<?xml version="1.0" standalone="no"?>
<!DOCTYPE svg PUBLIC "-//W3C//DTD SVG 1.1//EN" "http://www.w3.org/Graphics/SVG/1.1/DTD/svg11.dtd" >
<svg xmlns="http://www.w3.org/2000/svg" xmlns:xlink="http://www.w3.org/1999/xlink" version="1.1">
<metadata>
Created by FontForge 20170731 at Thu Nov 28 19:07:48 2019
 By Aleksey,,,
Copyright (c) 2007, Linotype GmbH
</metadata>
<defs>
<font id="FrutigerNext-Hv" horiz-adv-x="294" >
  <font-face 
    font-family="Frutiger Next Heavy"
    font-weight="800"
    font-stretch="normal"
    units-per-em="1000"
    panose-1="2 0 9 3 0 0 0 0 0 0"
    ascent="800"
    descent="-200"
    x-height="505"
    cap-height="667"
    bbox="-162 -241 1382 905"
    underline-thickness="50"
    underline-position="-150"
    unicode-range="U+0020-FB02"
  />
<missing-glyph horiz-adv-x="1000" 
 />
    <glyph glyph-name="IJ" unicode="IJ" horiz-adv-x="735" 
d="M261 0h-197v667h197v-667zM325 8l6 139q23 -12 55 -12q47 0 71 27t24 74v431h197v-469q0 -101 -58 -155t-160 -54q-65 0 -135 19z" />
    <glyph glyph-name="ij" unicode="ij" horiz-adv-x="585" 
d="M240 586h-185v127h185v-127zM240 0h-185v505h185v-505zM530 586h-184v127h184v-127zM246 -215l6 121q14 -6 37 -6q57 0 57 73v532h184v-547q0 -84 -40 -134t-122 -50q-74 0 -122 11z" />
    <glyph glyph-name="napostrophe" unicode="&#x22;n" horiz-adv-x="749" 
d="M370 0h-185v396q0 73 -4 109h175l2 -83q22 46 66 69.5t98 23.5q172 0 172 -179v-336h-185v292q0 29 -3 47t-18 34t-43 16q-75 0 -75 -106v-283zM109 450h-121l58 271h164z" />
    <glyph glyph-name="fi" unicode="fi" horiz-adv-x="692" 
d="M290 0h-186v389h-90v116h90v42q0 91 43.5 137.5t139.5 46.5q80 0 122 -13l-6 -108q-16 7 -50 7t-49 -22.5t-15 -52.5v-37h106v-116h-105v-389zM638 586h-185v127h185v-127zM638 0h-185v505h185v-505z" />
    <glyph glyph-name="fl" unicode="fl" horiz-adv-x="692" 
d="M290 0h-186v389h-90v116h90v42q0 91 43.5 137.5t139.5 46.5q80 0 122 -13l-6 -108q-16 7 -50 7t-49 -22.5t-15 -52.5v-37h106v-116h-105v-389zM638 0h-185v721h185v-721z" />
    <glyph glyph-name=".notdef" horiz-adv-x="1000" 
 />
    <glyph glyph-name=".null" horiz-adv-x="1000" 
 />
    <glyph glyph-name=".null" horiz-adv-x="1000" 
 />
    <glyph glyph-name="nonmarkingreturn" horiz-adv-x="333" 
 />
    <glyph glyph-name="space" unicode=" " horiz-adv-x="310" 
 />
    <glyph glyph-name="exclam" unicode="!" horiz-adv-x="310" 
d="M226 209h-141l-30 458h201zM239 0h-167v143h167v-143z" />
    <glyph glyph-name="quotedbl" unicode="&#x22;" horiz-adv-x="508" 
d="M416 459h-125v208h125v-208zM218 459h-125v208h125v-208z" />
    <glyph glyph-name="numbersign" unicode="#" horiz-adv-x="620" 
d="M186 0h-104l26 184h-71v97h84l17 106h-71v98h85l26 182h105l-26 -182h150l26 182h105l-26 -182h71v-98h-85l-16 -106h71v-97h-84l-27 -184h-105l27 184h-151zM243 387l-17 -106h151l16 106h-150z" />
    <glyph glyph-name="dollar" unicode="$" horiz-adv-x="620" 
d="M359 -108h-102v98q-97 3 -190 29l6 141q89 -42 196 -42q28 0 52 5t44 22.5t20 44.5q0 13 -6.5 23.5t-22 19.5t-25.5 14t-34 14t-31 12l-68 27q-136 53 -136 175q0 89 57 136t148 61v102h103v-96q76 -1 163 -23l-6 -137q-78 31 -158 31q-124 0 -124 -65q0 -7 2 -13
t6.5 -11.5t8.5 -9.5t12.5 -9t13.5 -7.5t15 -7t15 -6.5t16.5 -6t14.5 -5l73 -26q68 -25 108 -65.5t40 -116.5q0 -94 -58.5 -144.5t-152.5 -63.5v-101z" />
    <glyph glyph-name="percent" unicode="%" horiz-adv-x="1000" 
d="M691 5q-98 47 -98 190q0 91 45 148.5t140 57.5t140 -57t45 -149t-44.5 -149t-140.5 -57q-52 0 -87 16zM340 -24h-102l423 715h102zM135 281q-98 47 -98 190q0 91 45 148.5t140 57.5t140.5 -57.5t45.5 -148.5q0 -92 -45 -149t-141 -57q-52 0 -87 16zM729 104
q13 -39 49 -39t47 33.5t11 96.5q0 66 -11.5 98t-46.5 32t-46.5 -32t-11.5 -98q0 -64 9 -91zM173 380q13 -39 49 -39q19 0 31.5 10t18 30t7.5 40t2 50q0 66 -11.5 98t-47.5 32q-35 0 -46.5 -32t-11.5 -98q0 -64 9 -91z" />
    <glyph glyph-name="ampersand" unicode="&#x26;" horiz-adv-x="751" 
d="M626 288v-267q-35 -11 -121 -21.5t-139 -10.5q-73 0 -128.5 9t-103 29.5t-72.5 60t-25 95.5q0 65 46 109t115 50q-63 8 -100 49t-37 91q0 94 81.5 144.5t225.5 50.5q119 0 207 -25l-5 -125q-86 37 -202 37q-52 0 -91.5 -22.5t-39.5 -61.5q0 -43 30.5 -63.5t98.5 -20.5h88
v49h172v-49h109v-108h-109zM454 288h-88q-67 0 -105 -24t-38 -71q0 -88 143 -88q43 0 88 12v171z" />
    <glyph glyph-name="quotesingle" unicode="'" horiz-adv-x="310" 
d="M218 459h-125v208h125v-208z" />
    <glyph glyph-name="parenleft" unicode="(" horiz-adv-x="316" 
d="M319 -128h-135q-139 224 -139 425q0 202 139 424h135q-118 -216 -118 -424q0 -209 118 -425z" />
    <glyph glyph-name="parenright" unicode=")" horiz-adv-x="316" 
d="M133 -128h-135q119 218 119 425q0 206 -119 424h135q139 -222 139 -424q0 -201 -139 -425z" />
    <glyph glyph-name="asterisk" unicode="*" horiz-adv-x="453" 
d="M162 280l-96 63l94 105l-130 27l32 115l126 -59l-19 136h118l-18 -136l123 59l32 -115l-128 -28l90 -104l-97 -63l-63 120z" />
    <glyph glyph-name="plus" unicode="+" horiz-adv-x="620" 
d="M244 200h-201v131h201v200h133v-200h200v-131h-200v-200h-133v200z" />
    <glyph glyph-name="comma" unicode="," horiz-adv-x="310" 
d="M146 -128h-121l58 271h164z" />
    <glyph glyph-name="hyphen" unicode="-" horiz-adv-x="342" 
d="M301 244h-259v132h259v-132z" />
    <glyph glyph-name="period" unicode="." horiz-adv-x="310" 
d="M239 0h-167v143h167v-143z" />
    <glyph glyph-name="slash" unicode="/" horiz-adv-x="334" 
d="M103 0h-133l262 667h133z" />
    <glyph glyph-name="zero" unicode="0" horiz-adv-x="620" 
d="M178 16q-149 77 -149 317q0 73 15.5 133t47.5 108.5t88 75.5t130 27q99 0 164 -48.5t91.5 -123t26.5 -172.5q0 -72 -15 -132t-47 -108.5t-88 -76t-132 -27.5q-78 0 -132 27zM259 128q19 -19 51 -19q30 0 50 17.5t28.5 52.5t11.5 69t3 85q0 54 -3 90t-12.5 69t-28.5 49
t-49 16t-49 -16t-28 -49t-12 -69t-3 -90q0 -162 41 -205z" />
    <glyph glyph-name="one" unicode="1" horiz-adv-x="620" 
d="M463 0h-187v482l-142 -103l-58 134l226 154h161v-667z" />
    <glyph glyph-name="two" unicode="2" horiz-adv-x="620" 
d="M556 0h-512v138l189 144q63 48 96.5 86.5t33.5 83.5q0 92 -127 92q-80 0 -173 -42l-5 135q102 40 218 40q54 0 100 -9.5t87 -31t65 -62t24 -96.5q0 -74 -41.5 -132t-121.5 -118l-129 -99h296v-129z" />
    <glyph glyph-name="three" unicode="3" horiz-adv-x="620" 
d="M43 16l6 123q79 -30 173 -30q58 0 102.5 20t44.5 69q0 89 -158 89h-81v112h68q163 0 163 81q0 31 -24.5 49.5t-50.5 23t-56 4.5q-71 0 -167 -30l-6 121q93 29 202 29q50 0 95.5 -7t92.5 -25t75 -55t28 -90q0 -119 -130 -158q61 -10 101.5 -48.5t40.5 -97.5
q0 -60 -27.5 -102.5t-74.5 -64t-96.5 -31t-106.5 -9.5q-118 0 -214 27z" />
    <glyph glyph-name="four" unicode="4" horiz-adv-x="620" 
d="M333 512l-187 -255h187v255zM330 133h-305v150l295 384h191v-405h96v-129h-96v-133h-181v133z" />
    <glyph glyph-name="five" unicode="5" horiz-adv-x="620" 
d="M58 16l5 126q78 -24 149 -24q63 0 111 23t48 76q0 52 -48 75.5t-108 23.5q-73 0 -141 -18l9 369h449v-125h-282l-4 -138q27 7 61 7q257 0 257 -194q0 -59 -27.5 -104.5t-73.5 -71.5t-98 -39t-108 -13q-109 0 -199 27z" />
    <glyph glyph-name="six" unicode="6" horiz-adv-x="620" 
d="M244 134q26 -33 75 -33t76 30t27 79q0 50 -26 79.5t-75 29.5q-48 0 -75 -29t-27 -78q0 -46 25 -78zM549 659l-6 -125q-72 23 -146 23q-82 0 -130.5 -50.5t-48.5 -131.5q55 56 153 56q100 0 162 -57t62 -156q0 -108 -81.5 -168.5t-193.5 -60.5q-140 0 -212.5 88.5
t-72.5 237.5q0 161 92.5 261.5t251.5 100.5q92 0 170 -18z" />
    <glyph glyph-name="seven" unicode="7" horiz-adv-x="620" 
d="M321 0h-219l277 521h-332v146h520v-146z" />
    <glyph glyph-name="eight" unicode="8" horiz-adv-x="620" 
d="M60 288q38 39 105 57q-126 36 -126 156q0 45 27 81t69.5 55.5t87.5 29.5t87 10q46 0 90 -8.5t87 -27t69 -55t26 -85.5q0 -116 -129 -156q72 -18 108 -57.5t36 -110.5q0 -52 -27.5 -90.5t-72 -58.5t-91.5 -29.5t-96 -9.5q-51 0 -98 9.5t-91 30t-70.5 58.5t-26.5 90
q0 73 36 111zM246 423q26 -24 65 -32q37 6 63.5 34t26.5 65t-26 59.5t-65 22.5t-64.5 -22.5t-25.5 -59.5q0 -41 26 -67zM381 273q-29 28 -71 35q-45 -7 -72 -36t-27 -71q0 -45 26.5 -72t72.5 -27q47 0 73.5 27t26.5 73q0 45 -29 71z" />
    <glyph glyph-name="nine" unicode="9" horiz-adv-x="620" 
d="M70 7l5 125q75 -23 151 -23q83 0 128 46.5t48 131.5q-54 -53 -152 -53t-161 58t-63 155q0 109 80 169.5t192 60.5q138 0 213.5 -84t75.5 -229q0 -173 -86.5 -274t-251.5 -101q-91 0 -179 18zM223 376q25 -31 76 -31q49 0 75.5 29.5t26.5 78.5q0 48 -26 80t-73 32
q-49 0 -76 -30t-27 -79q0 -48 24 -80z" />
    <glyph glyph-name="colon" unicode=":" horiz-adv-x="310" 
d="M239 362h-167v143h167v-143zM239 0h-167v143h167v-143z" />
    <glyph glyph-name="semicolon" unicode=";" horiz-adv-x="310" 
d="M239 362h-168v143h168v-143zM146 -128h-121l58 271h164z" />
    <glyph glyph-name="less" unicode="&#x3c;" horiz-adv-x="620" 
d="M577 -14l-534 210v137l534 211v-139l-384 -141l384 -138v-140z" />
    <glyph glyph-name="equal" unicode="=" horiz-adv-x="620" 
d="M577 314h-534v132h534v-132zM577 84h-534v132h534v-132z" />
    <glyph glyph-name="greater" unicode="&#x3e;" horiz-adv-x="620" 
d="M577 196l-534 -210v140l384 138l-384 141v139l534 -211v-137z" />
    <glyph glyph-name="question" unicode="?" horiz-adv-x="486" 
d="M283 209h-151v13q0 49 14 85t34.5 56.5t41 37.5t34.5 37t14 45q0 32 -29.5 46.5t-66.5 14.5q-71 0 -137 -28l-6 129q106 32 188 32q42 0 81.5 -8.5t76 -26t58.5 -50.5t22 -78q0 -40 -18 -73t-43.5 -55.5t-51 -44.5t-43.5 -51.5t-18 -66.5v-14zM291 0h-167v143h167v-143z
" />
    <glyph glyph-name="at" unicode="@" horiz-adv-x="1100" 
d="M614 255l30 141q-20 6 -40 6q-73 0 -118 -70.5t-45 -148.5q0 -39 15 -60t42 -21q40 0 70.5 42t45.5 111zM869 -61l9 -114q-150 -51 -323 -51q-230 0 -365.5 119.5t-135.5 326.5q0 230 150.5 370.5t386.5 140.5q199 0 327.5 -106.5t128.5 -289.5q0 -151 -83.5 -248.5
t-202.5 -97.5q-121 0 -142 112q-33 -58 -73.5 -85t-99.5 -27q-69 0 -112.5 47.5t-43.5 128.5q0 151 90 250.5t240 99.5q103 0 186 -30l-63 -289q-5 -28 -5 -48q0 -58 50 -58q53 0 92.5 63.5t39.5 174.5q0 146 -93 220.5t-245 74.5q-173 0 -284 -111t-111 -292
q0 -160 99.5 -249.5t279.5 -89.5q153 0 303 58z" />
    <glyph glyph-name="A" unicode="A" horiz-adv-x="746" 
d="M188 0h-194l245 667h265l248 -667h-206l-52 156h-253zM369 552l-92 -267h181z" />
    <glyph glyph-name="B" unicode="B" horiz-adv-x="680" 
d="M375 0h-311v667h340q60 0 107.5 -13.5t82.5 -52t35 -99.5q0 -128 -134 -158q67 -12 108 -52t41 -105q0 -58 -22.5 -97t-64 -57.5t-84 -25.5t-98.5 -7zM253 555v-164h67q115 0 115 84q0 42 -31 61t-75 19h-76zM253 288v-176h68q51 0 88 20.5t37 67.5q0 88 -127 88h-66z
" />
    <glyph glyph-name="C" unicode="C" horiz-adv-x="614" 
d="M584 153l6 -137q-68 -27 -167 -27q-177 0 -284 88.5t-107 255.5q0 157 112 250.5t279 93.5q101 0 165 -20l-6 -140q-63 23 -133 23q-94 0 -152.5 -56.5t-58.5 -150.5q0 -98 56 -152.5t155 -54.5q72 0 135 27z" />
    <glyph glyph-name="D" unicode="D" horiz-adv-x="735" 
d="M261 538v-409h44q100 0 146 58t46 156q0 195 -188 195h-48zM341 0h-277v667h259q83 0 149.5 -17t119.5 -53.5t82 -101t29 -152.5q0 -162 -99 -252.5t-263 -90.5z" />
    <glyph glyph-name="E" unicode="E" horiz-adv-x="610" 
d="M572 0h-508v667h500v-129h-307v-137h295v-128h-295v-144h315v-129z" />
    <glyph glyph-name="F" unicode="F" horiz-adv-x="586" 
d="M261 0h-197v667h493v-129h-296v-149h284v-128h-284v-261z" />
    <glyph glyph-name="G" unicode="G" horiz-adv-x="716" 
d="M490 265h-121v119h292v-357q-113 -38 -238 -38q-171 0 -281 89.5t-110 254.5q0 83 35 150t93 108.5t130.5 63.5t150.5 22q118 0 209 -27l-6 -143q-73 37 -174 37q-103 0 -167.5 -56t-64.5 -155q0 -93 48.5 -152t141.5 -59q32 0 62 6v137z" />
    <glyph glyph-name="H" unicode="H" horiz-adv-x="745" 
d="M261 0h-197v667h197v-250h223v250h197v-667h-197v263h-223v-263z" />
    <glyph glyph-name="I" unicode="I" horiz-adv-x="325" 
d="M261 0h-197v667h197v-667z" />
    <glyph glyph-name="J" unicode="J" horiz-adv-x="415" 
d="M5 8l6 139q23 -12 55 -12q47 0 71 27t24 74v431h197v-469q0 -101 -58 -155t-160 -54q-65 0 -135 19z" />
    <glyph glyph-name="K" unicode="K" horiz-adv-x="718" 
d="M262 0h-197v667h197v-280l204 280h229l-256 -312l278 -355h-240l-215 307v-307z" />
    <glyph glyph-name="L" unicode="L" horiz-adv-x="580" 
d="M561 0h-497v667h197v-513h300v-154z" />
    <glyph glyph-name="M" unicode="M" horiz-adv-x="982" 
d="M236 0h-172v667h292l137 -456l134 456h291v-667h-178v550l-169 -550h-167l-168 550v-550z" />
    <glyph glyph-name="N" unicode="N" horiz-adv-x="784" 
d="M236 0h-172v667h291l194 -518v518h171v-667h-291l-193 517v-517z" />
    <glyph glyph-name="O" unicode="O" horiz-adv-x="759" 
d="M123 77q-91 88 -91 256q0 161 92.5 252.5t254.5 91.5q165 0 256.5 -89.5t91.5 -254.5q0 -163 -92.5 -253.5t-255.5 -90.5q-165 0 -256 88zM266 192q36 -74 113 -74q42 0 71.5 20t44 53.5t20.5 68t6 73.5t-6 73.5t-20.5 68t-44 53.5t-71.5 20q-40 0 -69.5 -20.5t-44 -54
t-21 -68.5t-6.5 -72q0 -81 28 -141z" />
    <glyph glyph-name="P" unicode="P" horiz-adv-x="670" 
d="M256 542v-196h49q31 0 53.5 4t44.5 14t34 31.5t12 53.5q0 93 -134 93h-59zM257 0h-193v667h278q304 0 304 -217q0 -114 -78.5 -171t-213.5 -57h-97v-222z" />
    <glyph glyph-name="Q" unicode="Q" horiz-adv-x="759" 
d="M721 -128h-221l-98 118q-3 -1 -11 -1h-12q-166 0 -256.5 89t-90.5 255q0 161 92.5 252.5t254.5 91.5q165 0 256.5 -89.5t91.5 -254.5q0 -105 -38.5 -181.5t-111.5 -116.5zM266 192q36 -74 113 -74q42 0 71.5 20t44 53.5t20.5 68t6 73.5t-6 73.5t-20.5 68t-44 53.5
t-71.5 20q-40 0 -69.5 -20.5t-44 -54t-21 -68.5t-6.5 -72q0 -81 28 -141z" />
    <glyph glyph-name="R" unicode="R" horiz-adv-x="688" 
d="M257 0h-193v667h334q47 0 88 -9t77 -28t57 -55.5t21 -86.5q0 -70 -42.5 -111.5t-114.5 -55.5q50 -10 76 -34.5t42 -74.5l68 -212h-207l-52 170q-16 50 -33.5 66.5t-66.5 16.5h-54v-253zM256 542v-164h64q123 0 123 85q0 46 -32 62.5t-87 16.5h-68z" />
    <glyph glyph-name="S" unicode="S" horiz-adv-x="599" 
d="M42 18l5 141q89 -41 204 -41q45 0 79 15.5t34 52.5q0 30 -25.5 46.5t-96.5 40.5l-45 15q-74 24 -114 66t-40 117q0 58 27.5 100.5t73.5 64.5t94.5 32t99.5 10q93 0 191 -23l-5 -137q-81 31 -170 31q-116 0 -116 -65q0 -28 19 -40.5t66 -27.5q7 -2 10 -3l57 -18
q85 -28 128 -68.5t43 -121.5q0 -58 -24.5 -101.5t-66.5 -67.5t-90.5 -35.5t-103.5 -11.5q-128 0 -234 29z" />
    <glyph glyph-name="T" unicode="T" horiz-adv-x="652" 
d="M425 0h-198v513h-216v154h631v-154h-217v-513z" />
    <glyph glyph-name="U" unicode="U" horiz-adv-x="728" 
d="M255 667v-408q0 -59 25.5 -96t82.5 -37t84 37.5t27 95.5v408h197v-405q0 -133 -87 -203t-222 -70q-137 0 -220.5 65t-83.5 199v414h197z" />
    <glyph glyph-name="V" unicode="V" horiz-adv-x="706" 
d="M465 0h-230l-242 667h211l153 -476l155 476h201z" />
    <glyph glyph-name="W" unicode="W" horiz-adv-x="1035" 
d="M391 0h-216l-171 667h187l107 -488l128 488h194l125 -488l110 488h177l-170 -667h-215l-130 490z" />
    <glyph glyph-name="X" unicode="X" horiz-adv-x="734" 
d="M212 0h-215l242 345l-214 322h224l132 -226l130 226h208l-222 -322l241 -345h-232l-147 246z" />
    <glyph glyph-name="Y" unicode="Y" horiz-adv-x="666" 
d="M430 0h-197v229l-246 438h214l139 -296l135 296h205l-250 -438v-229z" />
    <glyph glyph-name="Z" unicode="Z" horiz-adv-x="611" 
d="M585 0h-558v154l334 376h-323v137h537v-155l-326 -375h336v-137z" />
    <glyph glyph-name="bracketleft" unicode="[" horiz-adv-x="335" 
d="M329 -128h-261v849h261v-109h-116v-631h116v-109z" />
    <glyph glyph-name="backslash" unicode="\" horiz-adv-x="334" 
d="M365 0h-133l-262 667h133z" />
    <glyph glyph-name="bracketright" unicode="]" horiz-adv-x="335" 
d="M269 -128h-262v109h116v631h-116v109h262v-849z" />
    <glyph glyph-name="asciicircum" unicode="^" horiz-adv-x="620" 
d="M210 232h-141l180 435h121l181 -435h-142l-100 279z" />
    <glyph glyph-name="underscore" unicode="_" horiz-adv-x="500" 
d="M500 -125h-500v50h500v-50z" />
    <glyph glyph-name="grave" unicode="`" 
d="M211 582h-127l-123 136h177z" />
    <glyph glyph-name="a" unicode="a" horiz-adv-x="587" 
d="M363 231h-41q-126 0 -126 -73q0 -34 21 -49t50 -15q48 0 72 33.5t24 82.5v21zM543 0h-173l-3 71q-56 -82 -168 -82q-76 0 -125.5 39.5t-49.5 117.5q0 172 258 172q49 0 81 -4v12q0 85 -120 85q-85 0 -158 -40l-6 113q98 31 193 31q58 0 103 -9t83.5 -30t59.5 -62.5
t21 -100.5v-187q0 -93 4 -126z" />
    <glyph glyph-name="b" unicode="b" horiz-adv-x="631" 
d="M224 0h-169v721h185v-298q18 44 60 68t92 24q106 0 159 -74t53 -186q0 -115 -53.5 -190.5t-163.5 -75.5q-115 0 -160 93zM250 161q23 -51 71 -51q86 0 86 144q0 139 -85 139q-87 0 -87 -139q0 -57 15 -93z" />
    <glyph glyph-name="c" unicode="c" horiz-adv-x="500" 
d="M470 132l5 -123q-63 -20 -141 -20q-141 0 -223.5 68.5t-82.5 197.5q0 124 86.5 192t221.5 68q77 0 137 -19l-6 -120q-47 22 -102 22q-65 0 -102.5 -39.5t-37.5 -103.5q0 -65 38.5 -105.5t103.5 -40.5q58 0 103 23z" />
    <glyph glyph-name="d" unicode="d" horiz-adv-x="631" 
d="M581 0h-172l-4 82q-45 -93 -160 -93q-110 0 -163.5 75.5t-53.5 190.5q0 111 53 185.5t160 74.5q50 0 91.5 -24t59.5 -68v298h185v-594q0 -83 4 -127zM239 159q21 -49 72 -49q34 0 54.5 25.5t26 54.5t5.5 63q0 139 -87 139q-85 0 -85 -139q0 -60 14 -94z" />
    <glyph glyph-name="e" unicode="e" horiz-adv-x="567" 
d="M208 300h174q0 120 -78 120q-46 0 -69.5 -36.5t-26.5 -83.5zM541 211h-332q3 -58 47 -86t104 -28q90 0 149 30l6 -110q-85 -28 -191 -28q-134 0 -215 68t-81 198q0 120 77.5 190t195.5 70q125 0 182.5 -73t57.5 -200v-31z" />
    <glyph glyph-name="f" unicode="f" horiz-adv-x="398" 
d="M290 0h-186v389h-90v116h90v42q0 91 43.5 137.5t139.5 46.5q80 0 122 -13l-6 -108q-16 7 -50 7t-49 -22.5t-15 -52.5v-37h106v-116h-105v-389z" />
    <glyph glyph-name="g" unicode="g" horiz-adv-x="631" 
d="M69 -199l6 129q73 -39 159 -39q158 0 158 146v47q-57 -84 -159 -84q-103 0 -154 73.5t-51 181.5q0 112 51 186t156 74q116 0 161 -92v82h181v-467q0 -134 -78.5 -199t-215.5 -65q-125 0 -214 27zM240 166q22 -45 70 -45q34 0 54.5 22.5t26.5 49.5t6 60q0 139 -87 139
q-85 0 -85 -139q0 -53 15 -87z" />
    <glyph glyph-name="h" unicode="h" horiz-adv-x="619" 
d="M240 0h-185v721h185v-298q21 45 62 68.5t93 23.5q169 0 169 -177v-338h-185v293q0 29 -3 47t-18 33.5t-43 15.5q-40 0 -57.5 -31t-17.5 -74v-284z" />
    <glyph glyph-name="i" unicode="i" 
d="M240 586h-185v127h185v-127zM240 0h-185v505h185v-505z" />
    <glyph glyph-name="j" unicode="j" horiz-adv-x="299" 
d="M244 586h-184v127h184v-127zM-40 -215l6 121q14 -6 37 -6q57 0 57 73v532h184v-547q0 -84 -40 -134t-122 -50q-74 0 -122 11z" />
    <glyph glyph-name="k" unicode="k" horiz-adv-x="631" 
d="M240 0h-185v721h185v-422l161 206h212l-187 -227l202 -278h-219l-169 251v-251z" />
    <glyph glyph-name="l" unicode="l" 
d="M240 0h-185v721h185v-721z" />
    <glyph glyph-name="m" unicode="m" horiz-adv-x="924" 
d="M240 0h-185v396q0 73 -4 109h175l2 -83q45 93 164 93q56 0 95.5 -24.5t55.5 -71.5q19 46 63.5 71t95.5 25q93 0 130.5 -52t37.5 -148v-315h-185v303q0 86 -62 86q-69 0 -69 -105v-284h-183v303q0 86 -61 86q-36 0 -53 -31.5t-17 -73.5v-284z" />
    <glyph glyph-name="n" unicode="n" horiz-adv-x="619" 
d="M240 0h-185v396q0 73 -4 109h175l2 -83q22 46 66 69.5t98 23.5q172 0 172 -179v-336h-185v292q0 29 -3 47t-18 34t-43 16q-75 0 -75 -106v-283z" />
    <glyph glyph-name="o" unicode="o" horiz-adv-x="623" 
d="M105 56q-77 71 -77 199q0 129 78.5 194.5t205.5 65.5q131 0 207.5 -65t76.5 -195q0 -128 -76.5 -197t-207.5 -69q-132 0 -207 67zM242 154q22 -47 70 -47q87 0 87 148q0 36 -6 65.5t-26.5 53.5t-54.5 24q-47 0 -67 -42.5t-20 -100.5q0 -61 17 -101z" />
    <glyph glyph-name="p" unicode="p" horiz-adv-x="631" 
d="M240 -216h-185v590q0 84 -4 131h175l3 -83q21 45 65 69t98 24q106 0 159 -74t53 -186q0 -116 -53 -191t-164 -75q-49 0 -89.5 24t-57.5 68v-297zM250 162q23 -51 71 -51q86 0 86 144q0 138 -85 138q-87 0 -87 -138q0 -57 15 -93z" />
    <glyph glyph-name="q" unicode="q" horiz-adv-x="631" 
d="M577 -216h-185v298q-18 -44 -58 -68.5t-89 -24.5q-110 0 -163.5 75.5t-53.5 190.5q0 111 53 185.5t159 74.5q118 0 163 -92l1 82h173v-721zM239 162q21 -50 72 -50q34 0 54.5 26t26 55t5.5 63q0 138 -87 138q-85 0 -85 -138q0 -60 14 -94z" />
    <glyph glyph-name="r" unicode="r" horiz-adv-x="426" 
d="M240 0h-185v396q0 72 -4 108h175l2 -99q52 111 148 111q23 0 39 -5l-5 -160q-15 7 -45 7q-61 0 -93 -43.5t-32 -106.5v-208z" />
    <glyph glyph-name="s" unicode="s" horiz-adv-x="487" 
d="M33 15l6 116q70 -37 167 -37q32 0 54.5 12.5t22.5 39.5q0 25 -25 41t-61 26t-72 23.5t-61 44t-25 77.5q0 44 22 77t58.5 49.5t75 24t79.5 7.5q74 0 163 -21l-6 -110q-72 26 -145 26q-76 0 -76 -46q0 -19 25 -31.5t61 -22t72.5 -24t61.5 -47t25 -80.5q0 -50 -22.5 -85.5
t-60 -53t-75 -25t-78.5 -7.5q-93 0 -186 26z" />
    <glyph glyph-name="t" unicode="t" horiz-adv-x="415" 
d="M96 390h-88v115h88v95l185 58v-153h110v-115h-110v-204q0 -34 12 -52.5t45 -18.5q26 0 54 11l5 -115q-65 -22 -140 -22q-88 0 -124.5 47t-36.5 139v215z" />
    <glyph glyph-name="u" unicode="u" horiz-adv-x="616" 
d="M566 0h-175l-2 83q-22 -46 -66 -69.5t-98 -23.5q-172 0 -172 179v336h185v-291q0 -29 3 -47t18 -34.5t43 -16.5q75 0 75 107v282h184v-395q0 -65 5 -110z" />
    <glyph glyph-name="v" unicode="v" horiz-adv-x="550" 
d="M393 -1h-235l-156 506h192l86 -372l86 372h182z" />
    <glyph glyph-name="w" unicode="w" horiz-adv-x="903" 
d="M368 0h-230l-132 505h182l81 -370l80 370h219l84 -370l76 370h170l-131 -505h-231l-81 376z" />
    <glyph glyph-name="x" unicode="x" horiz-adv-x="590" 
d="M193 0h-189l170 264l-153 241h197l86 -170l78 170h188l-151 -241l168 -264h-198l-97 185z" />
    <glyph glyph-name="y" unicode="y" horiz-adv-x="546" 
d="M29 -212l6 117q30 -9 62 -9q65 0 85 56l9 27l-188 526h192l89 -350l82 350h180l-176 -539q-13 -40 -28 -70t-39.5 -60t-61.5 -46t-85 -16q-77 0 -127 14z" />
    <glyph glyph-name="z" unicode="z" horiz-adv-x="531" 
d="M502 0h-472v138l260 251h-252v116h460v-137l-256 -251h260v-117z" />
    <glyph glyph-name="braceleft" unicode="{" horiz-adv-x="339" 
d="M327 -128h-110q-53 0 -88.5 40.5t-35.5 92.5v165q0 35 -19 58t-53 23v92q34 0 53 23.5t19 58.5v163q0 52 35.5 92.5t88.5 40.5h110v-87h-28q-62 0 -62 -67v-160q0 -85 -98 -110q98 -25 98 -110v-160q0 -68 62 -68h28v-87z" />
    <glyph glyph-name="bar" unicode="|" horiz-adv-x="213" 
d="M172 -216h-131v992h131v-992z" />
    <glyph glyph-name="braceright" unicode="}" horiz-adv-x="339" 
d="M124 -128h-111v87h29q61 0 61 68v160q0 85 99 110q-99 25 -99 110v160q0 67 -61 67h-29v87h111q53 0 88.5 -40.5t35.5 -92.5v-163q0 -35 19 -58.5t53 -23.5v-92q-34 0 -53 -23t-19 -58v-165q0 -52 -35.5 -92.5t-88.5 -40.5z" />
    <glyph glyph-name="asciitilde" unicode="~" horiz-adv-x="620" 
d="M119 170h-86q3 71 42 132.5t104 61.5q43 0 134 -31.5t130 -31.5q27 0 39.5 15.5t18.5 45.5h87q-5 -75 -41.5 -135.5t-103.5 -60.5q-45 0 -134.5 32t-129.5 32q-53 0 -60 -60z" />
    <glyph glyph-name="uni00A0" unicode="&#xa0;" horiz-adv-x="310" 
 />
    <glyph glyph-name="exclamdown" unicode="&#xa1;" horiz-adv-x="310" 
d="M239 362h-167v143h167v-143zM256 -162h-201l30 459h141z" />
    <glyph glyph-name="cent" unicode="&#xa2;" horiz-adv-x="620" 
d="M396 0h-87v93q-99 13 -154.5 75.5t-55.5 168.5q0 101 57 162t153 76v92h87v-90q54 -1 116 -19l-6 -114q-52 25 -94 25q-60 0 -95 -36t-35 -96t34 -99t94 -39q49 0 98 26l6 -114q-55 -18 -118 -20v-91z" />
    <glyph glyph-name="sterling" unicode="&#xa3;" horiz-adv-x="620" 
d="M561 0h-482v118h75v160h-71v114h71v48q0 118 66.5 177.5t188.5 59.5q83 0 159 -21l-7 -120q-58 20 -110 20q-63 0 -89.5 -31t-26.5 -91v-42h158v-114h-158v-160h226v-118z" />
    <glyph glyph-name="currency" unicode="&#xa4;" horiz-adv-x="620" 
d="M198 141l-66 -66l-79 80l65 67q-30 54 -30 111q0 60 31 113l-67 66l80 80l67 -66q57 31 111 31q56 0 113 -31l66 65l80 -80l-66 -65q31 -59 31 -113q0 -58 -31 -112l66 -66l-79 -80l-67 67q-57 -33 -111 -33q-55 0 -114 32zM206 333q0 -44 30 -74t74 -30t74.5 30t30.5 74
q0 43 -30.5 74t-74.5 31t-74 -30.5t-30 -74.5z" />
    <glyph glyph-name="yen" unicode="&#xa5;" horiz-adv-x="620" 
d="M211 107h-148v104h148v57h-148v104h94l-155 295h190l119 -268l122 268h186l-164 -295h99v-104h-157v-57h157v-104h-157v-107h-186v107z" />
    <glyph glyph-name="brokenbar" unicode="&#xa6;" horiz-adv-x="213" 
d="M172 379h-131v396h131v-396zM172 -216h-131v397h131v-397z" />
    <glyph glyph-name="section" unicode="&#xa7;" horiz-adv-x="620" 
d="M298 230l80 -31q36 36 36 69q0 12 -5.5 22t-11.5 16t-21 13t-22.5 10t-27.5 10l-73 24q-43 -26 -43 -62q0 -40 88 -71zM87 -99l6 115q81 -29 164 -29q102 0 102 51q0 14 -13 26.5t-25.5 18.5t-39.5 17l-82 32q-61 23 -96 57.5t-35 95.5q0 77 93 126q-68 33 -68 108
q0 55 36.5 92t86.5 51.5t109 14.5q91 0 181 -21l-6 -113q-90 23 -145 23q-91 0 -91 -50q0 -18 14 -28.5t48 -22.5l97 -35q31 -11 50.5 -20t41 -25t31.5 -39.5t10 -55.5q0 -76 -83 -133q31 -24 44 -50.5t13 -66.5q0 -57 -39.5 -96t-91.5 -53.5t-112 -14.5q-104 0 -200 25z
" />
    <glyph glyph-name="dieresis" unicode="&#xa8;" 
d="M325 586h-136v127h136v-127zM106 586h-137v127h137v-127z" />
    <glyph glyph-name="copyright" unicode="&#xa9;" horiz-adv-x="760" 
d="M246 16q-94 40 -152 126t-58 192q0 142 101 242.5t243 100.5t243 -100.5t101 -242.5q0 -143 -101 -244t-243 -101q-71 0 -134 27zM195 145q78 -80 185 -80q108 0 183.5 79.5t75.5 189.5q0 109 -75.5 188t-183.5 79t-184 -78t-76 -189t75 -189zM502 249l4 -71
q-47 -14 -93 -14q-91 0 -147 44t-56 126q0 78 58.5 124t144.5 46q42 0 92 -12l-3 -71q-33 13 -70 13q-52 0 -83 -26.5t-31 -73.5q0 -48 30 -74t82 -26q32 0 72 15z" />
    <glyph glyph-name="ordfeminine" unicode="&#xaa;" horiz-adv-x="420" 
d="M242 504h-20q-85 0 -85 -42q0 -19 13 -27.5t31 -8.5q30 0 45.5 19.5t15.5 46.5v12zM364 366h-118l-2 42q-36 -49 -109 -49q-51 0 -81.5 24.5t-30.5 70.5q0 105 162 105q47 0 57 -2v6q0 48 -74 48q-55 0 -105 -24l-4 72q53 18 126 18q176 0 176 -123v-110q0 -58 3 -78z
" />
    <glyph glyph-name="guillemotleft" unicode="&#xab;" horiz-adv-x="544" 
d="M518 55h-146l-133 203l133 202h146l-128 -202zM296 55h-146l-133 203l133 202h146l-128 -202z" />
    <glyph glyph-name="logicalnot" unicode="&#xac;" horiz-adv-x="620" 
d="M439 314h-397v132h534v-362h-137v230z" />
    <glyph glyph-name="uni00AD" unicode="&#xad;" horiz-adv-x="342" 
d="M301 244h-259v132h259v-132z" />
    <glyph glyph-name="registered" unicode="&#xae;" horiz-adv-x="760" 
d="M246 16q-94 40 -152 126t-58 192q0 142 101 242.5t243 100.5t243 -100.5t101 -242.5q0 -143 -101 -244t-243 -101q-71 0 -134 27zM196 145q77 -80 184 -80q108 0 184 79.5t76 189.5q0 109 -76 188t-184 79t-183.5 -78t-75.5 -189t75 -189zM332 175h-102v331h177
q54 0 91.5 -21t37.5 -68q0 -35 -23 -56.5t-61 -27.5q27 -5 41 -17t22 -36l36 -105h-107l-28 84q-9 25 -19 33.5t-36 8.5h-29v-126zM331 445v-83h34q67 0 67 44q0 39 -66 39h-35z" />
    <glyph glyph-name="macron" unicode="&#xaf;" 
d="M321 608h-346v84h346v-84z" />
    <glyph glyph-name="degree" unicode="&#xb0;" horiz-adv-x="400" 
d="M86 403q-47 47 -47 114t47 113.5t114 46.5t114 -46.5t47 -113.5q0 -68 -47 -113.5t-114 -45.5t-114 45zM121 517q0 -33 23 -55.5t56 -22.5t56 22.5t23 55.5q0 34 -22.5 56t-56.5 22t-56.5 -22t-22.5 -56z" />
    <glyph glyph-name="plusminus" unicode="&#xb1;" horiz-adv-x="620" 
d="M244 281h-201v131h201v159h133v-159h200v-131h-200v-151h-133v151zM577 -40h-534v130h534v-130z" />
    <glyph glyph-name="twosuperior" unicode="&#xb2;" horiz-adv-x="480" 
d="M401 372h-335v88l85 54q119 72 119 128q0 26 -20 39.5t-54 13.5q-59 0 -118 -24l-3 85q83 23 142 23q34 0 64.5 -6t58 -19.5t43.5 -39t16 -59.5q0 -46 -34 -86.5t-103 -84.5l-46 -30h185v-82z" />
    <glyph glyph-name="threesuperior" unicode="&#xb3;" horiz-adv-x="480" 
d="M66 381l4 78q47 -17 116 -17q38 0 64 13t26 38q0 50 -103 50h-51v71h42q107 0 107 46q0 43 -86 43q-61 0 -106 -16l-4 76q56 17 130 17q46 0 85 -7t73 -33t34 -69q0 -70 -79 -92q37 -6 62 -29.5t25 -57.5q0 -48 -33 -78t-74.5 -39.5t-92.5 -9.5q-84 0 -139 16z" />
    <glyph glyph-name="acute" unicode="&#xb4;" 
d="M198 582h-127l73 136h177z" />
    <glyph glyph-name="mu" unicode="&#xb5;" horiz-adv-x="620" 
d="M238 -216h-183v721h185v-297q0 -30 3 -48t18 -33t43 -15q74 0 74 105v288h184v-397q0 -56 5 -108h-174l-4 87q-18 -38 -50 -64t-63 -26q-24 0 -38 13v-226z" />
    <glyph glyph-name="paragraph" unicode="&#xb6;" horiz-adv-x="620" 
d="M349 -108h-117v430q-85 0 -146 45t-61 128q0 175 230 175h307v-778h-117v694h-96v-694z" />
    <glyph glyph-name="periodcentered" unicode="&#xb7;" horiz-adv-x="310" 
d="M239 239h-167v142h167v-142z" />
    <glyph glyph-name="cedilla" unicode="&#xb8;" 
d="M22 -182l20 52q49 -16 86 -16q49 0 49 27q0 12 -12.5 19.5t-27.5 7.5q-22 0 -41 -5l-25 29l45 68h70l-33 -50q33 3 41 3q34 0 55 -18t21 -50q0 -39 -34 -62.5t-94 -23.5q-66 0 -120 19z" />
    <glyph glyph-name="onesuperior" unicode="&#xb9;" horiz-adv-x="480" 
d="M343 372h-125v285l-97 -64l-39 85l154 95h107v-401z" />
    <glyph glyph-name="ordmasculine" unicode="&#xba;" horiz-adv-x="420" 
d="M168 461q14 -27 42 -27q53 0 53 85q0 83 -53 83t-53 -83q0 -36 11 -58zM75 399q-50 41 -50 120q0 78 51.5 118t133.5 40q85 0 135 -39.5t50 -118.5q0 -78 -49.5 -119t-135.5 -41t-135 40z" />
    <glyph glyph-name="guillemotright" unicode="&#xbb;" horiz-adv-x="544" 
d="M394 55h-145l127 202l-127 203h145l134 -203zM172 55h-145l127 202l-127 203h145l134 -203z" />
    <glyph glyph-name="onequarter" unicode="&#xbc;" horiz-adv-x="1000" 
d="M303 -24h-97l423 715h98zM302 269h-125v286l-97 -64l-39 85l154 95h107v-402zM736 312l-124 -155h124v155zM734 79h-196v95l189 228h128v-241h61v-82h-61v-79h-121v79z" />
    <glyph glyph-name="onehalf" unicode="&#xbd;" horiz-adv-x="1000" 
d="M289 -24h-97l423 715h98zM288 269h-125v286l-97 -64l-39 85l154 95h107v-402zM934 0h-335v88l85 54q119 72 119 128q0 26 -20 40t-54 14q-59 0 -118 -24l-3 85q83 23 142 23q47 0 85.5 -10.5t67.5 -40t29 -74.5q0 -46 -34 -86.5t-103 -84.5l-46 -30h185v-82z" />
    <glyph glyph-name="threequarters" unicode="&#xbe;" horiz-adv-x="1000" 
d="M373 -24h-97l423 715h98zM805 312l-124 -155h124v155zM803 79h-196v95l189 228h128v-241h61v-82h-61v-79h-121v79zM53 278l4 78q47 -17 116 -17q38 0 64 13t26 38q0 50 -103 50h-51v71h42q107 0 107 46q0 43 -86 43q-61 0 -106 -16l-4 76q56 17 130 17q46 0 85 -7t73 -33
t34 -69q0 -70 -79 -92q37 -6 62 -29.5t25 -57.5q0 -48 -33 -78t-74.5 -39.5t-92.5 -9.5q-84 0 -139 16z" />
    <glyph glyph-name="questiondown" unicode="&#xbf;" horiz-adv-x="486" 
d="M362 362h-167v143h167v-143zM449 -11l6 -129q-106 -32 -188 -32q-42 0 -81.5 8.5t-76 26t-58.5 50.5t-22 78q0 40 18 73t43.5 55.5t51 44.5t43.5 51.5t18 66.5v15h151v-13q0 -49 -14 -85t-34.5 -56.5t-41 -37.5t-34.5 -37t-14 -45q0 -33 29.5 -47.5t66.5 -14.5
q65 0 137 28z" />
    <glyph glyph-name="Agrave" unicode="&#xc0;" horiz-adv-x="746" 
d="M188 0h-194l245 667h265l248 -667h-206l-52 156h-253zM369 552l-92 -267h181zM448 724h-127l-123 136h177z" />
    <glyph glyph-name="Aacute" unicode="&#xc1;" horiz-adv-x="746" 
d="M188 0h-194l245 667h265l248 -667h-206l-52 156h-253zM369 552l-92 -267h181zM435 724h-127l73 136h177z" />
    <glyph glyph-name="Acircumflex" unicode="&#xc2;" horiz-adv-x="746" 
d="M188 0h-194l245 667h265l248 -667h-206l-52 156h-253zM369 552l-92 -267h181zM305 724h-114l103 136h148l103 -136h-114l-63 78z" />
    <glyph glyph-name="Atilde" unicode="&#xc3;" horiz-adv-x="746" 
d="M188 0h-194l245 667h265l248 -667h-206l-52 156h-253zM369 552l-92 -267h181zM260 724h-76q4 53 31 92.5t77 39.5q32 0 82 -18.5t69 -18.5q35 0 42 39h76q-2 -52 -33 -92.5t-81 -40.5q-31 0 -77.5 18.5t-67.5 18.5q-16 0 -28.5 -11t-13.5 -27z" />
    <glyph glyph-name="Adieresis" unicode="&#xc4;" horiz-adv-x="746" 
d="M188 0h-194l245 667h265l248 -667h-206l-52 156h-253zM369 552l-92 -267h181zM331 728h-137v127h137v-127zM550 728h-136v127h136v-127z" />
    <glyph glyph-name="Aring" unicode="&#xc5;" horiz-adv-x="746" 
d="M188 0h-194l245 667h265l248 -667h-206l-52 156h-253zM369 552l-92 -267h181zM319 792q0 -21 15 -35.5t35 -14.5q21 0 35.5 14.5t14.5 35.5q0 20 -14.5 34.5t-35.5 14.5t-35.5 -14.5t-14.5 -34.5zM369 687q-45 0 -75 30t-30 75t30 74.5t75 29.5t75 -29.5t30 -74.5
q0 -44 -30.5 -74.5t-74.5 -30.5z" />
    <glyph glyph-name="AE" unicode="&#xc6;" horiz-adv-x="1019" 
d="M179 0h-195l393 667h596v-129h-285v-138h271v-127h-271v-144h293v-129h-487v156h-225zM494 561l-161 -276h161v276z" />
    <glyph glyph-name="Ccedilla" unicode="&#xc7;" horiz-adv-x="614" 
d="M257 -182l20 52q49 -16 86 -16q49 0 49 27q0 12 -12.5 19.5t-27.5 7.5q-22 0 -41 -5l-25 29l39 62q-145 19 -229 105t-84 234q0 157 112 250.5t279 93.5q101 0 165 -20l-6 -140q-63 23 -133 23q-94 0 -152.5 -56.5t-58.5 -150.5q0 -98 56 -152.5t155 -54.5q72 0 135 27
l6 -137q-68 -27 -167 -27h-11l-24 -39q33 3 41 3q34 0 55 -18t21 -50q0 -39 -34 -62.5t-94 -23.5q-66 0 -120 19z" />
    <glyph glyph-name="Egrave" unicode="&#xc8;" horiz-adv-x="610" 
d="M572 0h-508v667h500v-129h-307v-137h295v-128h-295v-144h315v-129zM399 724h-127l-123 136h177z" />
    <glyph glyph-name="Eacute" unicode="&#xc9;" horiz-adv-x="610" 
d="M572 0h-508v667h500v-129h-307v-137h295v-128h-295v-144h315v-129zM356 724h-127l73 136h177z" />
    <glyph glyph-name="Ecircumflex" unicode="&#xca;" horiz-adv-x="610" 
d="M572 0h-508v667h500v-129h-307v-137h295v-128h-295v-144h315v-129zM250 724h-114l103 136h148l103 -136h-114l-63 78z" />
    <glyph glyph-name="Edieresis" unicode="&#xcb;" horiz-adv-x="610" 
d="M572 0h-508v667h500v-129h-307v-137h295v-128h-295v-144h315v-129zM274 728h-137v127h137v-127zM493 728h-136v127h136v-127z" />
    <glyph glyph-name="Igrave" unicode="&#xcc;" horiz-adv-x="325" 
d="M261 0h-197v667h197v-667zM235 724h-127l-123 136h177z" />
    <glyph glyph-name="Iacute" unicode="&#xcd;" horiz-adv-x="325" 
d="M261 0h-197v667h197v-667zM216 724h-127l73 136h177z" />
    <glyph glyph-name="Icircumflex" unicode="&#xce;" horiz-adv-x="325" 
d="M261 0h-197v667h197v-667zM99 724h-114l103 136h148l103 -136h-114l-63 78z" />
    <glyph glyph-name="Idieresis" unicode="&#xcf;" horiz-adv-x="325" 
d="M261 0h-197v667h197v-667zM121 728h-137v127h137v-127zM340 728h-136v127h136v-127z" />
    <glyph glyph-name="Eth" unicode="&#xd0;" horiz-adv-x="735" 
d="M341 0h-277v284h-66v101h66v282h259q83 0 149.5 -17t119.5 -53.5t82 -101t29 -152.5q0 -162 -99 -252.5t-263 -90.5zM261 284v-155h44q100 0 146 58t46 156q0 195 -188 195h-48v-153h118v-101h-118z" />
    <glyph glyph-name="Ntilde" unicode="&#xd1;" horiz-adv-x="784" 
d="M236 0h-172v667h291l194 -518v518h171v-667h-291l-193 517v-517zM289 724h-76q4 53 31 92.5t77 39.5q31 0 81 -18.5t70 -18.5q35 0 42 39h76q-2 -52 -33 -92.5t-81 -40.5q-31 0 -77.5 18.5t-67.5 18.5q-16 0 -28.5 -11t-13.5 -27z" />
    <glyph glyph-name="Ograve" unicode="&#xd2;" horiz-adv-x="759" 
d="M123 77q-91 88 -91 256q0 161 92.5 252.5t254.5 91.5q165 0 256.5 -89.5t91.5 -254.5q0 -163 -92.5 -253.5t-255.5 -90.5q-165 0 -256 88zM266 192q36 -74 113 -74q42 0 71.5 20t44 53.5t20.5 68t6 73.5t-6 73.5t-20.5 68t-44 53.5t-71.5 20q-40 0 -69.5 -20.5t-44 -54
t-21 -68.5t-6.5 -72q0 -81 28 -141zM456 724h-127l-123 136h177z" />
    <glyph glyph-name="Oacute" unicode="&#xd3;" horiz-adv-x="759" 
d="M123 77q-91 88 -91 256q0 161 92.5 252.5t254.5 91.5q165 0 256.5 -89.5t91.5 -254.5q0 -163 -92.5 -253.5t-255.5 -90.5q-165 0 -256 88zM266 192q36 -74 113 -74q42 0 71.5 20t44 53.5t20.5 68t6 73.5t-6 73.5t-20.5 68t-44 53.5t-71.5 20q-40 0 -69.5 -20.5t-44 -54
t-21 -68.5t-6.5 -72q0 -81 28 -141zM430 724h-127l73 136h177z" />
    <glyph glyph-name="Ocircumflex" unicode="&#xd4;" horiz-adv-x="759" 
d="M123 77q-91 88 -91 256q0 161 92.5 252.5t254.5 91.5q165 0 256.5 -89.5t91.5 -254.5q0 -163 -92.5 -253.5t-255.5 -90.5q-165 0 -256 88zM266 192q36 -74 113 -74q42 0 71.5 20t44 53.5t20.5 68t6 73.5t-6 73.5t-20.5 68t-44 53.5t-71.5 20q-40 0 -69.5 -20.5t-44 -54
t-21 -68.5t-6.5 -72q0 -81 28 -141zM316 724h-114l103 136h148l103 -136h-114l-63 78z" />
    <glyph glyph-name="Otilde" unicode="&#xd5;" horiz-adv-x="759" 
d="M123 77q-91 88 -91 256q0 161 92.5 252.5t254.5 91.5q165 0 256.5 -89.5t91.5 -254.5q0 -163 -92.5 -253.5t-255.5 -90.5q-165 0 -256 88zM266 192q36 -74 113 -74q42 0 71.5 20t44 53.5t20.5 68t6 73.5t-6 73.5t-20.5 68t-44 53.5t-71.5 20q-40 0 -69.5 -20.5t-44 -54
t-21 -68.5t-6.5 -72q0 -81 28 -141zM268 724h-76q4 53 31 92.5t77 39.5q32 0 82 -18.5t69 -18.5q35 0 42 39h76q-2 -52 -33 -92.5t-81 -40.5q-31 0 -77.5 18.5t-67.5 18.5q-16 0 -28.5 -11t-13.5 -27z" />
    <glyph glyph-name="Odieresis" unicode="&#xd6;" horiz-adv-x="759" 
d="M123 77q-91 88 -91 256q0 161 92.5 252.5t254.5 91.5q165 0 256.5 -89.5t91.5 -254.5q0 -163 -92.5 -253.5t-255.5 -90.5q-165 0 -256 88zM266 192q36 -74 113 -74q42 0 71.5 20t44 53.5t20.5 68t6 73.5t-6 73.5t-20.5 68t-44 53.5t-71.5 20q-40 0 -69.5 -20.5t-44 -54
t-21 -68.5t-6.5 -72q0 -81 28 -141zM338 728h-137v127h137v-127zM557 728h-136v127h136v-127z" />
    <glyph glyph-name="multiply" unicode="&#xd7;" horiz-adv-x="620" 
d="M310 174l-167 -167l-91 91l167 167l-167 167l91 93l167 -169l168 168l91 -92l-167 -167l167 -167l-91 -92z" />
    <glyph glyph-name="Oslash" unicode="&#xd8;" horiz-adv-x="759" 
d="M517 414l-239 -248q36 -48 102 -48q55 0 89 36t44.5 80.5t10.5 98.5q0 53 -7 81zM243 256l239 247q-37 45 -102 45q-40 0 -69.5 -20.5t-45 -54t-23 -68.5t-7.5 -72q0 -43 8 -77zM87 -24l-65 59l75 77q-63 84 -63 221q0 162 92 253t254 91q135 0 218 -62l74 76l65 -59
l-75 -78q66 -82 66 -221q0 -163 -92.5 -253.5t-255.5 -90.5q-136 0 -221 61z" />
    <glyph glyph-name="Ugrave" unicode="&#xd9;" horiz-adv-x="728" 
d="M255 667v-408q0 -59 25.5 -96t82.5 -37t84 37.5t27 95.5v408h197v-405q0 -133 -87 -203t-222 -70q-137 0 -220.5 65t-83.5 199v414h197zM454 724h-127l-123 136h177z" />
    <glyph glyph-name="Uacute" unicode="&#xda;" horiz-adv-x="728" 
d="M255 667v-408q0 -59 25.5 -96t82.5 -37t84 37.5t27 95.5v408h197v-405q0 -133 -87 -203t-222 -70q-137 0 -220.5 65t-83.5 199v414h197zM401 724h-127l73 136h177z" />
    <glyph glyph-name="Ucircumflex" unicode="&#xdb;" horiz-adv-x="728" 
d="M255 667v-408q0 -59 25.5 -96t82.5 -37t84 37.5t27 95.5v408h197v-405q0 -133 -87 -203t-222 -70q-137 0 -220.5 65t-83.5 199v414h197zM300 724h-114l103 136h148l103 -136h-114l-63 78z" />
    <glyph glyph-name="Udieresis" unicode="&#xdc;" horiz-adv-x="728" 
d="M255 667v-408q0 -59 25.5 -96t82.5 -37t84 37.5t27 95.5v408h197v-405q0 -133 -87 -203t-222 -70q-137 0 -220.5 65t-83.5 199v414h197zM323 728h-137v127h137v-127zM542 728h-136v127h136v-127z" />
    <glyph glyph-name="Yacute" unicode="&#xdd;" horiz-adv-x="666" 
d="M430 0h-197v229l-246 438h214l139 -296l135 296h205l-250 -438v-229zM389 724h-127l73 136h177z" />
    <glyph glyph-name="Thorn" unicode="&#xde;" horiz-adv-x="670" 
d="M257 0h-193v667h193v-108h159q103 0 168.5 -58.5t65.5 -160.5q0 -109 -64 -167.5t-172 -58.5h-157v-114zM256 435v-196h53q31 0 53.5 3.5t45 13t34 30.5t11.5 53q0 96 -129 96h-68z" />
    <glyph glyph-name="germandbls" unicode="&#xdf;" horiz-adv-x="658" 
d="M240 0h-185v441q0 139 72.5 214.5t208.5 75.5q111 0 184.5 -52t73.5 -154q0 -34 -5 -58q-30 -3 -49 -8.5t-35 -22.5t-16 -45q0 -21 14.5 -40t35.5 -36.5t42 -37.5t35.5 -50.5t14.5 -67.5q0 -84 -61 -127t-144 -43q-57 0 -122 15l6 106q34 -11 64 -11q32 0 50.5 18
t18.5 52q0 25 -13.5 45.5t-32.5 36.5t-37.5 33t-32 42.5t-13.5 57.5q0 51 29.5 82.5t74.5 38.5q5 16 5 37q0 35 -20.5 56t-55.5 21q-107 0 -107 -177v-442z" />
    <glyph glyph-name="agrave" unicode="&#xe0;" horiz-adv-x="587" 
d="M363 231h-41q-126 0 -126 -73q0 -34 21 -49t50 -15q48 0 72 33.5t24 82.5v21zM543 0h-173l-3 71q-56 -82 -168 -82q-76 0 -125.5 39.5t-49.5 117.5q0 172 258 172q49 0 81 -4v12q0 85 -120 85q-85 0 -158 -40l-6 113q98 31 193 31q58 0 103 -9t83.5 -30t59.5 -62.5
t21 -100.5v-187q0 -93 4 -126zM379 582h-127l-123 136h177z" />
    <glyph glyph-name="aacute" unicode="&#xe1;" horiz-adv-x="587" 
d="M363 231h-41q-126 0 -126 -73q0 -34 21 -49t50 -15q48 0 72 33.5t24 82.5v21zM543 0h-173l-3 71q-56 -82 -168 -82q-76 0 -125.5 39.5t-49.5 117.5q0 172 258 172q49 0 81 -4v12q0 85 -120 85q-85 0 -158 -40l-6 113q98 31 193 31q58 0 103 -9t83.5 -30t59.5 -62.5
t21 -100.5v-187q0 -93 4 -126zM338 582h-127l73 136h177z" />
    <glyph glyph-name="acircumflex" unicode="&#xe2;" horiz-adv-x="587" 
d="M363 231h-41q-126 0 -126 -73q0 -34 21 -49t50 -15q48 0 72 33.5t24 82.5v21zM543 0h-173l-3 71q-56 -82 -168 -82q-76 0 -125.5 39.5t-49.5 117.5q0 172 258 172q49 0 81 -4v12q0 85 -120 85q-85 0 -158 -40l-6 113q98 31 193 31q58 0 103 -9t83.5 -30t59.5 -62.5
t21 -100.5v-187q0 -93 4 -126zM238 582h-114l103 136h148l103 -136h-114l-63 78z" />
    <glyph glyph-name="atilde" unicode="&#xe3;" horiz-adv-x="587" 
d="M363 231h-41q-126 0 -126 -73q0 -34 21 -49t50 -15q48 0 72 33.5t24 82.5v21zM543 0h-173l-3 71q-56 -82 -168 -82q-76 0 -125.5 39.5t-49.5 117.5q0 172 258 172q49 0 81 -4v12q0 85 -120 85q-85 0 -158 -40l-6 113q98 31 193 31q58 0 103 -9t83.5 -30t59.5 -62.5
t21 -100.5v-187q0 -93 4 -126zM192 582h-76q4 53 31 92.5t77 39.5q32 0 82 -18.5t69 -18.5q35 0 42 39h76q-2 -52 -33 -92.5t-81 -40.5q-31 0 -77.5 18.5t-67.5 18.5q-16 0 -28.5 -11t-13.5 -27z" />
    <glyph glyph-name="adieresis" unicode="&#xe4;" horiz-adv-x="587" 
d="M363 231h-41q-126 0 -126 -73q0 -34 21 -49t50 -15q48 0 72 33.5t24 82.5v21zM543 0h-173l-3 71q-56 -82 -168 -82q-76 0 -125.5 39.5t-49.5 117.5q0 172 258 172q49 0 81 -4v12q0 85 -120 85q-85 0 -158 -40l-6 113q98 31 193 31q58 0 103 -9t83.5 -30t59.5 -62.5
t21 -100.5v-187q0 -93 4 -126zM478 586h-136v127h136v-127zM259 586h-137v127h137v-127z" />
    <glyph glyph-name="aring" unicode="&#xe5;" horiz-adv-x="587" 
d="M363 231h-41q-126 0 -126 -73q0 -34 21 -49t50 -15q48 0 72 33.5t24 82.5v21zM543 0h-173l-3 71q-56 -82 -168 -82q-76 0 -125.5 39.5t-49.5 117.5q0 172 258 172q49 0 81 -4v12q0 85 -120 85q-85 0 -158 -40l-6 113q98 31 193 31q58 0 103 -9t83.5 -30t59.5 -62.5
t21 -100.5v-187q0 -93 4 -126zM251 553q-29 12 -46.5 38t-17.5 59q0 44 30.5 74t74.5 30t74.5 -30t30.5 -74t-30.5 -74.5t-74.5 -30.5q-20 0 -41 8zM242 650q0 -21 15 -35.5t35 -14.5q21 0 35.5 14.5t14.5 35.5q0 20 -14.5 34.5t-35.5 14.5t-35.5 -14.5t-14.5 -34.5z" />
    <glyph glyph-name="ae" unicode="&#xe6;" horiz-adv-x="878" 
d="M517 300h174q0 120 -78 120q-46 0 -69.5 -36.5t-26.5 -83.5zM85 369l-6 115q83 31 190 31q129 0 175 -75q60 75 166 75q125 0 182.5 -73t57.5 -200v-31h-332q3 -58 47 -86t104 -28q90 0 149 30l6 -110q-85 -28 -185 -28q-159 0 -232 92q-61 -92 -203 -92
q-74 0 -127.5 40.5t-53.5 114.5q0 47 21 81t57.5 52t78.5 26t92 8q53 0 80 -3v21q0 43 -32 62t-79 19q-82 0 -156 -41zM352 227h-28q-134 0 -134 -70q0 -31 20.5 -47t50.5 -16q91 0 91 110v23z" />
    <glyph glyph-name="ccedilla" unicode="&#xe7;" horiz-adv-x="500" 
d="M168 -182l20 52q49 -16 86 -16q49 0 49 27q0 12 -12.5 19.5t-27.5 7.5q-22 0 -41 -5l-25 29l39 63q-107 16 -167.5 82.5t-60.5 177.5q0 124 86.5 192t221.5 68q77 0 137 -19l-6 -120q-47 22 -102 22q-65 0 -102.5 -39.5t-37.5 -103.5q0 -65 38.5 -105.5t103.5 -40.5
q58 0 103 23l5 -123q-63 -20 -141 -20h-12l-23 -39q33 3 41 3q34 0 55 -18t21 -50q0 -39 -34 -62.5t-94 -23.5q-66 0 -120 19z" />
    <glyph glyph-name="egrave" unicode="&#xe8;" horiz-adv-x="567" 
d="M208 300h174q0 120 -78 120q-46 0 -69.5 -36.5t-26.5 -83.5zM541 211h-332q3 -58 47 -86t104 -28q90 0 149 30l6 -110q-85 -28 -191 -28q-134 0 -215 68t-81 198q0 120 77.5 190t195.5 70q125 0 182.5 -73t57.5 -200v-31zM376 582h-127l-123 136h177z" />
    <glyph glyph-name="eacute" unicode="&#xe9;" horiz-adv-x="567" 
d="M208 300h174q0 120 -78 120q-46 0 -69.5 -36.5t-26.5 -83.5zM541 211h-332q3 -58 47 -86t104 -28q90 0 149 30l6 -110q-85 -28 -191 -28q-134 0 -215 68t-81 198q0 120 77.5 190t195.5 70q125 0 182.5 -73t57.5 -200v-31zM341 582h-127l73 136h177z" />
    <glyph glyph-name="ecircumflex" unicode="&#xea;" horiz-adv-x="567" 
d="M208 300h174q0 120 -78 120q-46 0 -69.5 -36.5t-26.5 -83.5zM541 211h-332q3 -58 47 -86t104 -28q90 0 149 30l6 -110q-85 -28 -191 -28q-134 0 -215 68t-81 198q0 120 77.5 190t195.5 70q125 0 182.5 -73t57.5 -200v-31zM230 582h-114l103 136h148l103 -136h-114l-63 78
z" />
    <glyph glyph-name="edieresis" unicode="&#xeb;" horiz-adv-x="567" 
d="M208 300h174q0 120 -78 120q-46 0 -69.5 -36.5t-26.5 -83.5zM541 211h-332q3 -58 47 -86t104 -28q90 0 149 30l6 -110q-85 -28 -191 -28q-134 0 -215 68t-81 198q0 120 77.5 190t195.5 70q125 0 182.5 -73t57.5 -200v-31zM470 586h-136v127h136v-127zM251 586h-137v127
h137v-127z" />
    <glyph glyph-name="igrave" unicode="&#xec;" 
d="M240 0h-185v505h185v-505zM223 582h-127l-123 136h177z" />
    <glyph glyph-name="iacute" unicode="&#xed;" 
d="M240 0h-185v505h185v-505zM191 582h-127l73 136h177z" />
    <glyph glyph-name="icircumflex" unicode="&#xee;" 
d="M240 0h-185v505h185v-505zM84 582h-114l103 136h148l103 -136h-114l-63 78z" />
    <glyph glyph-name="idieresis" unicode="&#xef;" 
d="M240 0h-185v505h185v-505zM325 586h-136v127h136v-127zM106 586h-137v127h137v-127z" />
    <glyph glyph-name="eth" unicode="&#xf0;" horiz-adv-x="623" 
d="M170 523l-59 49l106 49q-41 20 -97 32l77 78q62 -11 146 -54l115 54l59 -49l-93 -44q172 -121 172 -363q0 -131 -78.5 -208.5t-209.5 -77.5t-205.5 66.5t-74.5 197.5q0 109 61 179.5t172 70.5q48 0 83 -16t70 -53q-31 93 -117 149zM242 152q22 -45 70 -45q87 0 87 146
q0 133 -87 133q-47 0 -67 -39.5t-20 -93.5q0 -61 17 -101z" />
    <glyph glyph-name="ntilde" unicode="&#xf1;" horiz-adv-x="619" 
d="M240 0h-185v396q0 73 -4 109h175l2 -83q22 46 66 69.5t98 23.5q172 0 172 -179v-336h-185v292q0 29 -3 47t-18 34t-43 16q-75 0 -75 -106v-283zM201 582h-76q4 53 31 92.5t77 39.5q31 0 81 -18.5t70 -18.5q35 0 42 39h76q-2 -52 -33 -92.5t-81 -40.5q-31 0 -77.5 18.5
t-67.5 18.5q-16 0 -28.5 -11t-13.5 -27z" />
    <glyph glyph-name="ograve" unicode="&#xf2;" horiz-adv-x="623" 
d="M105 56q-77 71 -77 199q0 129 78.5 194.5t205.5 65.5q131 0 207.5 -65t76.5 -195q0 -128 -76.5 -197t-207.5 -69q-132 0 -207 67zM242 154q22 -47 70 -47q87 0 87 148q0 36 -6 65.5t-26.5 53.5t-54.5 24q-47 0 -67 -42.5t-20 -100.5q0 -61 17 -101zM389 582h-127
l-123 136h177z" />
    <glyph glyph-name="oacute" unicode="&#xf3;" horiz-adv-x="623" 
d="M105 56q-77 71 -77 199q0 129 78.5 194.5t205.5 65.5q131 0 207.5 -65t76.5 -195q0 -128 -76.5 -197t-207.5 -69q-132 0 -207 67zM242 154q22 -47 70 -47q87 0 87 148q0 36 -6 65.5t-26.5 53.5t-54.5 24q-47 0 -67 -42.5t-20 -100.5q0 -61 17 -101zM358 582h-127l73 136
h177z" />
    <glyph glyph-name="ocircumflex" unicode="&#xf4;" horiz-adv-x="623" 
d="M105 56q-77 71 -77 199q0 129 78.5 194.5t205.5 65.5q131 0 207.5 -65t76.5 -195q0 -128 -76.5 -197t-207.5 -69q-132 0 -207 67zM242 154q22 -47 70 -47q87 0 87 148q0 36 -6 65.5t-26.5 53.5t-54.5 24q-47 0 -67 -42.5t-20 -100.5q0 -61 17 -101zM248 582h-114l103 136
h148l103 -136h-114l-63 78z" />
    <glyph glyph-name="otilde" unicode="&#xf5;" horiz-adv-x="623" 
d="M105 56q-77 71 -77 199q0 129 78.5 194.5t205.5 65.5q131 0 207.5 -65t76.5 -195q0 -128 -76.5 -197t-207.5 -69q-132 0 -207 67zM242 154q22 -47 70 -47q87 0 87 148q0 36 -6 65.5t-26.5 53.5t-54.5 24q-47 0 -67 -42.5t-20 -100.5q0 -61 17 -101zM199 582h-76
q4 53 31 92.5t77 39.5q31 0 81 -18.5t70 -18.5q35 0 42 39h76q-2 -52 -33 -92.5t-81 -40.5q-31 0 -77.5 18.5t-67.5 18.5q-16 0 -28.5 -11t-13.5 -27z" />
    <glyph glyph-name="odieresis" unicode="&#xf6;" horiz-adv-x="623" 
d="M105 56q-77 71 -77 199q0 129 78.5 194.5t205.5 65.5q131 0 207.5 -65t76.5 -195q0 -128 -76.5 -197t-207.5 -69q-132 0 -207 67zM242 154q22 -47 70 -47q87 0 87 148q0 36 -6 65.5t-26.5 53.5t-54.5 24q-47 0 -67 -42.5t-20 -100.5q0 -61 17 -101zM490 586h-136v127h136
v-127zM271 586h-137v127h137v-127z" />
    <glyph glyph-name="divide" unicode="&#xf7;" horiz-adv-x="620" 
d="M310 378q-35 0 -59.5 24.5t-24.5 59.5t24.5 60t59.5 25t59.5 -25t24.5 -60t-24.5 -59.5t-59.5 -24.5zM577 199h-534v132h534v-132zM310 -17q-35 0 -59.5 25t-24.5 60t24.5 60t59.5 25t59.5 -25.5t24.5 -59.5q0 -35 -24.5 -60t-59.5 -25z" />
    <glyph glyph-name="oslash" unicode="&#xf8;" horiz-adv-x="623" 
d="M397 306l-154 -158q20 -41 69 -41q90 0 90 149q0 28 -5 50zM226 208l153 154q-19 36 -67 36q-33 0 -54 -24t-28.5 -54t-7.5 -65q0 -27 4 -47zM75 -25l-52 49l58 57q-52 65 -52 174q0 129 78 194.5t205 65.5q113 0 178 -43l59 58l52 -49l-56 -56q51 -66 51 -170
q0 -128 -76.5 -197t-207.5 -69q-106 0 -177 45z" />
    <glyph glyph-name="ugrave" unicode="&#xf9;" horiz-adv-x="616" 
d="M566 0h-175l-2 83q-22 -46 -66 -69.5t-98 -23.5q-172 0 -172 179v336h185v-291q0 -29 3 -47t18 -34.5t43 -16.5q75 0 75 107v282h184v-395q0 -65 5 -110zM393 582h-127l-123 136h177z" />
    <glyph glyph-name="uacute" unicode="&#xfa;" horiz-adv-x="616" 
d="M566 0h-175l-2 83q-22 -46 -66 -69.5t-98 -23.5q-172 0 -172 179v336h185v-291q0 -29 3 -47t18 -34.5t43 -16.5q75 0 75 107v282h184v-395q0 -65 5 -110zM347 582h-127l73 136h177z" />
    <glyph glyph-name="ucircumflex" unicode="&#xfb;" horiz-adv-x="616" 
d="M566 0h-175l-2 83q-22 -46 -66 -69.5t-98 -23.5q-172 0 -172 179v336h185v-291q0 -29 3 -47t18 -34.5t43 -16.5q75 0 75 107v282h184v-395q0 -65 5 -110zM245 582h-114l103 136h148l103 -136h-114l-63 78z" />
    <glyph glyph-name="udieresis" unicode="&#xfc;" horiz-adv-x="616" 
d="M566 0h-175l-2 83q-22 -46 -66 -69.5t-98 -23.5q-172 0 -172 179v336h185v-291q0 -29 3 -47t18 -34.5t43 -16.5q75 0 75 107v282h184v-395q0 -65 5 -110zM485 586h-136v127h136v-127zM266 586h-137v127h137v-127z" />
    <glyph glyph-name="yacute" unicode="&#xfd;" horiz-adv-x="546" 
d="M29 -212l6 117q30 -9 62 -9q65 0 85 56l9 27l-188 526h192l89 -350l82 350h180l-176 -539q-13 -40 -28 -70t-39.5 -60t-61.5 -46t-85 -16q-77 0 -127 14zM329 582h-127l73 136h177z" />
    <glyph glyph-name="thorn" unicode="&#xfe;" horiz-adv-x="631" 
d="M240 -216h-185v937h185v-298q18 44 60 68t92 24q106 0 159 -74t53 -186q0 -116 -53 -191t-164 -75q-49 0 -89.5 24t-57.5 68v-297zM250 162q23 -51 71 -51q86 0 86 144q0 138 -85 138q-87 0 -87 -138q0 -57 15 -93z" />
    <glyph glyph-name="ydieresis" unicode="&#xff;" horiz-adv-x="546" 
d="M29 -212l6 117q30 -9 62 -9q65 0 85 56l9 27l-188 526h192l89 -350l82 350h180l-176 -539q-13 -40 -28 -70t-39.5 -60t-61.5 -46t-85 -16q-77 0 -127 14zM458 586h-136v127h136v-127zM239 586h-137v127h137v-127z" />
    <glyph glyph-name="Amacron" unicode="&#x100;" horiz-adv-x="746" 
d="M545 750h-346v84h346v-84zM188 0h-194l245 667h265l248 -667h-206l-52 156h-253zM369 552l-92 -267h181z" />
    <glyph glyph-name="amacron" unicode="&#x101;" horiz-adv-x="587" 
d="M473 608h-346v84h346v-84zM363 231h-41q-126 0 -126 -73q0 -34 21 -49t50 -15q48 0 72 33.5t24 82.5v21zM543 0h-173l-3 71q-56 -82 -168 -82q-76 0 -125.5 39.5t-49.5 117.5q0 172 258 172q49 0 81 -4v12q0 85 -120 85q-85 0 -158 -40l-6 113q98 31 193 31q58 0 103 -9
t83.5 -30t59.5 -62.5t21 -100.5v-187q0 -93 4 -126z" />
    <glyph glyph-name="Abreve" unicode="&#x102;" horiz-adv-x="746" 
d="M208 863h85q1 -25 22 -43t58 -18t57.5 17.5t22.5 43.5h84q0 -60 -46.5 -101.5t-117.5 -41.5q-73 0 -119 41t-46 102zM188 0h-194l245 667h265l248 -667h-206l-52 156h-253zM369 552l-92 -267h181z" />
    <glyph glyph-name="abreve" unicode="&#x103;" horiz-adv-x="587" 
d="M137 721h85q1 -25 22 -43t58 -18t57.5 17.5t22.5 43.5h84q0 -60 -46.5 -101.5t-117.5 -41.5q-73 0 -119 41t-46 102zM363 231h-41q-126 0 -126 -73q0 -34 21 -49t50 -15q48 0 72 33.5t24 82.5v21zM543 0h-173l-3 71q-56 -82 -168 -82q-76 0 -125.5 39.5t-49.5 117.5
q0 172 258 172q49 0 81 -4v12q0 85 -120 85q-85 0 -158 -40l-6 113q98 31 193 31q58 0 103 -9t83.5 -30t59.5 -62.5t21 -100.5v-187q0 -93 4 -126z" />
    <glyph glyph-name="Aogonek" unicode="&#x104;" horiz-adv-x="746" 
d="M369 552l-92 -267h181zM188 0h-194l245 667h265l248 -667h-93q-46 -37 -61 -59t-15 -43q0 -18 13.5 -28.5t35.5 -10.5t64 17l15 -54q-48 -23 -105 -23q-53 0 -83 21.5t-30 60.5q0 64 101 119h-48l-52 156h-253z" />
    <glyph glyph-name="aogonek" unicode="&#x105;" horiz-adv-x="587" 
d="M363 231h-41q-126 0 -126 -73q0 -34 21 -49t50 -15q48 0 72 33.5t24 82.5v21zM515 -124l15 -54q-48 -23 -105 -23q-53 0 -83 21.5t-30 60.5q0 64 101 119h-43l-3 71q-56 -82 -168 -82q-76 0 -125.5 39.5t-49.5 117.5q0 172 258 172q49 0 81 -4v12q0 85 -120 85
q-85 0 -158 -40l-6 113q98 31 193 31q58 0 103 -9t83.5 -30t59.5 -62.5t21 -100.5v-187q0 -93 4 -126h-65q-46 -37 -61 -59t-15 -43q0 -18 13.5 -28.5t35.5 -10.5t64 17z" />
    <glyph glyph-name="Cacute" unicode="&#x106;" horiz-adv-x="614" 
d="M436 724h-127l73 136h177zM584 153l6 -137q-68 -27 -167 -27q-177 0 -284 88.5t-107 255.5q0 157 112 250.5t279 93.5q101 0 165 -20l-6 -140q-63 23 -133 23q-94 0 -152.5 -56.5t-58.5 -150.5q0 -98 56 -152.5t155 -54.5q72 0 135 27z" />
    <glyph glyph-name="cacute" unicode="&#x107;" horiz-adv-x="500" 
d="M346 582h-127l73 136h177zM470 132l5 -123q-63 -20 -141 -20q-141 0 -223.5 68.5t-82.5 197.5q0 124 86.5 192t221.5 68q77 0 137 -19l-6 -120q-47 22 -102 22q-65 0 -102.5 -39.5t-37.5 -103.5q0 -65 38.5 -105.5t103.5 -40.5q58 0 103 23z" />
    <glyph glyph-name="Ccircumflex" unicode="&#x108;" horiz-adv-x="614" 
d="M584 153l6 -137q-68 -27 -167 -27q-177 0 -284 88.5t-107 255.5q0 157 112 250.5t279 93.5q101 0 165 -20l-6 -140q-63 23 -133 23q-94 0 -152.5 -56.5t-58.5 -150.5q0 -98 56 -152.5t155 -54.5q72 0 135 27zM328 724h-114l103 136h148l103 -136h-114l-63 78z" />
    <glyph glyph-name="ccircumflex" unicode="&#x109;" horiz-adv-x="500" 
d="M470 132l5 -123q-63 -20 -141 -20q-141 0 -223.5 68.5t-82.5 197.5q0 124 86.5 192t221.5 68q77 0 137 -19l-6 -120q-47 22 -102 22q-65 0 -102.5 -39.5t-37.5 -103.5q0 -65 38.5 -105.5t103.5 -40.5q58 0 103 23zM234 582h-114l103 136h148l103 -136h-114l-63 78z" />
    <glyph glyph-name="Cdotaccent" unicode="&#x10a;" horiz-adv-x="614" 
d="M584 153l6 -137q-68 -27 -167 -27q-177 0 -284 88.5t-107 255.5q0 157 112 250.5t279 93.5q101 0 165 -20l-6 -140q-63 23 -133 23q-94 0 -152.5 -56.5t-58.5 -150.5q0 -98 56 -152.5t155 -54.5q72 0 135 27zM464 728h-147v127h147v-127z" />
    <glyph glyph-name="cdotaccent" unicode="&#x10b;" horiz-adv-x="500" 
d="M470 132l5 -123q-63 -20 -141 -20q-141 0 -223.5 68.5t-82.5 197.5q0 124 86.5 192t221.5 68q77 0 137 -19l-6 -120q-47 22 -102 22q-65 0 -102.5 -39.5t-37.5 -103.5q0 -65 38.5 -105.5t103.5 -40.5q58 0 103 23zM393 586h-185v127h185v-127z" />
    <glyph glyph-name="Ccaron" unicode="&#x10c;" horiz-adv-x="614" 
d="M466 724h-147l-103 136h114l63 -79l63 79h113zM584 153l6 -137q-68 -27 -167 -27q-177 0 -284 88.5t-107 255.5q0 157 112 250.5t279 93.5q101 0 165 -20l-6 -140q-63 23 -133 23q-94 0 -152.5 -56.5t-58.5 -150.5q0 -98 56 -152.5t155 -54.5q72 0 135 27z" />
    <glyph glyph-name="ccaron" unicode="&#x10d;" horiz-adv-x="500" 
d="M377 582h-147l-103 136h114l63 -79l63 79h113zM470 132l5 -123q-63 -20 -141 -20q-141 0 -223.5 68.5t-82.5 197.5q0 124 86.5 192t221.5 68q77 0 137 -19l-6 -120q-47 22 -102 22q-65 0 -102.5 -39.5t-37.5 -103.5q0 -65 38.5 -105.5t103.5 -40.5q58 0 103 23z" />
    <glyph glyph-name="Dcaron" unicode="&#x10e;" horiz-adv-x="735" 
d="M408 724h-147l-103 136h114l63 -79l63 79h113zM261 538v-409h44q100 0 146 58t46 156q0 195 -188 195h-48zM341 0h-277v667h259q83 0 149.5 -17t119.5 -53.5t82 -101t29 -152.5q0 -162 -99 -252.5t-263 -90.5z" />
    <glyph glyph-name="dcaron" unicode="&#x10f;" horiz-adv-x="631" 
d="M725 552h-98l19 166h129zM581 0h-172l-4 82q-45 -93 -160 -93q-110 0 -163.5 75.5t-53.5 190.5q0 111 53 185.5t160 74.5q50 0 91.5 -24t59.5 -68v298h185v-594q0 -83 4 -127zM239 159q21 -49 72 -49q34 0 54.5 25.5t26 54.5t5.5 63q0 139 -87 139q-85 0 -85 -139
q0 -60 14 -94z" />
    <glyph glyph-name="Dcroat" unicode="&#x110;" horiz-adv-x="735" 
d="M341 0h-277v284h-66v101h66v282h259q83 0 149.5 -17t119.5 -53.5t82 -101t29 -152.5q0 -162 -99 -252.5t-263 -90.5zM261 284v-155h44q100 0 146 58t46 156q0 195 -188 195h-48v-153h118v-101h-118z" />
    <glyph glyph-name="dcroat" unicode="&#x111;" horiz-adv-x="631" 
d="M581 0h-172l-4 82q-45 -93 -160 -93q-110 0 -163.5 75.5t-53.5 190.5q0 111 53 185.5t160 74.5q50 0 91.5 -24t59.5 -68v148h-149v84h149v66h185v-66h77v-84h-77v-444q0 -83 4 -127zM239 159q21 -49 72 -49q34 0 54.5 25.5t26 54.5t5.5 63q0 139 -87 139q-85 0 -85 -139
q0 -60 14 -94z" />
    <glyph glyph-name="Emacron" unicode="&#x112;" horiz-adv-x="610" 
d="M488 750h-346v84h346v-84zM572 0h-508v667h500v-129h-307v-137h295v-128h-295v-144h315v-129z" />
    <glyph glyph-name="emacron" unicode="&#x113;" horiz-adv-x="567" 
d="M467 608h-346v84h346v-84zM208 300h174q0 120 -78 120q-46 0 -69.5 -36.5t-26.5 -83.5zM541 211h-332q3 -58 47 -86t104 -28q90 0 149 30l6 -110q-85 -28 -191 -28q-134 0 -215 68t-81 198q0 120 77.5 190t195.5 70q125 0 182.5 -73t57.5 -200v-31z" />
    <glyph glyph-name="Ebreve" unicode="&#x114;" horiz-adv-x="610" 
d="M572 0h-508v667h500v-129h-307v-137h295v-128h-295v-144h315v-129zM152 863h85q1 -25 22 -43t58 -18t57.5 17.5t22.5 43.5h84q0 -60 -46.5 -101.5t-117.5 -41.5q-73 0 -119 41t-46 102z" />
    <glyph glyph-name="ebreve" unicode="&#x115;" horiz-adv-x="567" 
d="M208 300h174q0 120 -78 120q-46 0 -69.5 -36.5t-26.5 -83.5zM541 211h-332q3 -58 47 -86t104 -28q90 0 149 30l6 -110q-85 -28 -191 -28q-134 0 -215 68t-81 198q0 120 77.5 190t195.5 70q125 0 182.5 -73t57.5 -200v-31zM128 721h85q1 -25 22 -43t58 -18t57.5 17.5
t22.5 43.5h84q0 -60 -46.5 -101.5t-117.5 -41.5q-73 0 -119 41t-46 102z" />
    <glyph glyph-name="Edotaccent" unicode="&#x116;" horiz-adv-x="610" 
d="M389 728h-147v127h147v-127zM572 0h-508v667h500v-129h-307v-137h295v-128h-295v-144h315v-129z" />
    <glyph glyph-name="edotaccent" unicode="&#x117;" horiz-adv-x="567" 
d="M385 586h-185v127h185v-127zM208 300h174q0 120 -78 120q-46 0 -69.5 -36.5t-26.5 -83.5zM541 211h-332q3 -58 47 -86t104 -28q90 0 149 30l6 -110q-85 -28 -191 -28q-134 0 -215 68t-81 198q0 120 77.5 190t195.5 70q125 0 182.5 -73t57.5 -200v-31z" />
    <glyph glyph-name="Eogonek" unicode="&#x118;" horiz-adv-x="610" 
d="M432 0h-368v667h500v-129h-307v-137h295v-128h-295v-144h315v-129h-75q-46 -37 -61 -59t-15 -43q0 -18 13.5 -28.5t35.5 -10.5t64 17l15 -54q-48 -23 -105 -23q-53 0 -83 21.5t-30 60.5q0 64 101 119z" />
    <glyph glyph-name="eogonek" unicode="&#x119;" horiz-adv-x="567" 
d="M208 300h174q0 120 -78 120q-46 0 -69.5 -36.5t-26.5 -83.5zM425 -124l15 -54q-48 -23 -105 -23q-53 0 -83 21.5t-30 60.5q0 58 80 109q-126 6 -200 73t-74 192q0 120 77.5 190t195.5 70q125 0 182.5 -73t57.5 -200v-31h-332q3 -58 47 -86t104 -28q90 0 149 30l6 -110
q-67 -21 -141 -26q-37 -32 -49.5 -52.5t-12.5 -40.5q0 -18 13.5 -28.5t35.5 -10.5t64 17z" />
    <glyph glyph-name="Ecaron" unicode="&#x11a;" horiz-adv-x="610" 
d="M388 724h-147l-103 136h114l63 -79l63 79h113zM572 0h-508v667h500v-129h-307v-137h295v-128h-295v-144h315v-129z" />
    <glyph glyph-name="ecaron" unicode="&#x11b;" horiz-adv-x="567" 
d="M369 582h-147l-103 136h114l63 -79l63 79h113zM208 300h174q0 120 -78 120q-46 0 -69.5 -36.5t-26.5 -83.5zM541 211h-332q3 -58 47 -86t104 -28q90 0 149 30l6 -110q-85 -28 -191 -28q-134 0 -215 68t-81 198q0 120 77.5 190t195.5 70q125 0 182.5 -73t57.5 -200v-31z
" />
    <glyph glyph-name="Gcircumflex" unicode="&#x11c;" horiz-adv-x="716" 
d="M490 265h-121v119h292v-357q-113 -38 -238 -38q-171 0 -281 89.5t-110 254.5q0 83 35 150t93 108.5t130.5 63.5t150.5 22q118 0 209 -27l-6 -143q-73 37 -174 37q-103 0 -167.5 -56t-64.5 -155q0 -93 48.5 -152t141.5 -59q32 0 62 6v137zM342 724h-114l103 136h148
l103 -136h-114l-63 78z" />
    <glyph glyph-name="gcircumflex" unicode="&#x11d;" horiz-adv-x="631" 
d="M69 -199l6 129q73 -39 159 -39q158 0 158 146v47q-57 -84 -159 -84q-103 0 -154 73.5t-51 181.5q0 112 51 186t156 74q116 0 161 -92v82h181v-467q0 -134 -78.5 -199t-215.5 -65q-125 0 -214 27zM240 166q22 -45 70 -45q34 0 54.5 22.5t26.5 49.5t6 60q0 139 -87 139
q-85 0 -85 -139q0 -53 15 -87zM258 582h-114l103 136h148l103 -136h-114l-63 78z" />
    <glyph glyph-name="Gbreve" unicode="&#x11e;" horiz-adv-x="716" 
d="M244 863h85q1 -25 22 -43t58 -18t57.5 17.5t22.5 43.5h84q0 -60 -46.5 -101.5t-117.5 -41.5q-73 0 -119 41t-46 102zM490 265h-121v119h292v-357q-113 -38 -238 -38q-171 0 -281 89.5t-110 254.5q0 83 35 150t93 108.5t130.5 63.5t150.5 22q118 0 209 -27l-6 -143
q-73 37 -174 37q-103 0 -167.5 -56t-64.5 -155q0 -93 48.5 -152t141.5 -59q32 0 62 6v137z" />
    <glyph glyph-name="gbreve" unicode="&#x11f;" horiz-adv-x="631" 
d="M159 721h85q1 -25 22 -43t58 -18t57.5 17.5t22.5 43.5h84q0 -60 -46.5 -101.5t-117.5 -41.5q-73 0 -119 41t-46 102zM69 -199l6 129q73 -39 159 -39q158 0 158 146v47q-57 -84 -159 -84q-103 0 -154 73.5t-51 181.5q0 112 51 186t156 74q116 0 161 -92v82h181v-467
q0 -134 -78.5 -199t-215.5 -65q-125 0 -214 27zM240 166q22 -45 70 -45q34 0 54.5 22.5t26.5 49.5t6 60q0 139 -87 139q-85 0 -85 -139q0 -53 15 -87z" />
    <glyph glyph-name="Gdotaccent" unicode="&#x120;" horiz-adv-x="716" 
d="M490 265h-121v119h292v-357q-113 -38 -238 -38q-171 0 -281 89.5t-110 254.5q0 83 35 150t93 108.5t130.5 63.5t150.5 22q118 0 209 -27l-6 -143q-73 37 -174 37q-103 0 -167.5 -56t-64.5 -155q0 -93 48.5 -152t141.5 -59q32 0 62 6v137zM481 728h-147v127h147v-127z" />
    <glyph glyph-name="gdotaccent" unicode="&#x121;" horiz-adv-x="631" 
d="M69 -199l6 129q73 -39 159 -39q158 0 158 146v47q-57 -84 -159 -84q-103 0 -154 73.5t-51 181.5q0 112 51 186t156 74q116 0 161 -92v82h181v-467q0 -134 -78.5 -199t-215.5 -65q-125 0 -214 27zM240 166q22 -45 70 -45q34 0 54.5 22.5t26.5 49.5t6 60q0 139 -87 139
q-85 0 -85 -139q0 -53 15 -87zM412 586h-185v127h185v-127z" />
    <glyph glyph-name="Gcommaaccent" unicode="&#x122;" horiz-adv-x="716" 
d="M389 -227h-108l43 159h156zM490 265h-121v119h292v-357q-113 -38 -238 -38q-171 0 -281 89.5t-110 254.5q0 83 35 150t93 108.5t130.5 63.5t150.5 22q118 0 209 -27l-6 -143q-73 37 -174 37q-103 0 -167.5 -56t-64.5 -155q0 -93 48.5 -152t141.5 -59q32 0 62 6v137z" />
    <glyph glyph-name="gcommaaccent" unicode="&#x123;" horiz-adv-x="631" 
d="M391 582h-154l83 136h112zM69 -199l6 129q73 -39 159 -39q158 0 158 146v47q-57 -84 -159 -84q-103 0 -154 73.5t-51 181.5q0 112 51 186t156 74q116 0 161 -92v82h181v-467q0 -134 -78.5 -199t-215.5 -65q-125 0 -214 27zM240 166q22 -45 70 -45q34 0 54.5 22.5
t26.5 49.5t6 60q0 139 -87 139q-85 0 -85 -139q0 -53 15 -87z" />
    <glyph glyph-name="Hcircumflex" unicode="&#x124;" horiz-adv-x="745" 
d="M261 0h-197v667h197v-250h223v250h197v-667h-197v263h-223v-263zM313 724h-114l103 136h148l103 -136h-114l-63 78z" />
    <glyph glyph-name="hcircumflex" unicode="&#x125;" horiz-adv-x="619" 
d="M240 0h-185v721h185v-298q21 45 62 68.5t93 23.5q169 0 169 -177v-338h-185v293q0 29 -3 47t-18 33.5t-43 15.5q-40 0 -57.5 -31t-17.5 -74v-284zM238 769h-114l103 136h148l103 -136h-114l-63 78z" />
    <glyph glyph-name="Hbar" unicode="&#x126;" horiz-adv-x="745" 
d="M261 468v-96h223v96h-223zM261 0h-197v667h197v-98h223v98h197v-667h-197v222h-223v-222z" />
    <glyph glyph-name="hbar" unicode="&#x127;" horiz-adv-x="619" 
d="M240 0h-185v571h-77v84h77v66h185v-66h149v-84h-149v-148q21 45 62 68.5t93 23.5q169 0 169 -177v-338h-185v293q0 29 -3 47t-18 33.5t-43 15.5q-40 0 -57.5 -31t-17.5 -74v-284z" />
    <glyph glyph-name="Itilde" unicode="&#x128;" horiz-adv-x="325" 
d="M261 0h-197v667h197v-667zM51 724h-76q4 53 31 92.5t77 39.5q31 0 81 -18.5t70 -18.5q35 0 42 39h76q-2 -52 -33 -92.5t-81 -40.5q-31 0 -77.5 18.5t-67.5 18.5q-16 0 -28.5 -11t-13.5 -27z" />
    <glyph glyph-name="itilde" unicode="&#x129;" 
d="M240 0h-185v505h185v-505zM35 582h-76q4 53 31 92.5t77 39.5q31 0 81 -18.5t70 -18.5q35 0 42 39h76q-2 -52 -33 -92.5t-81 -40.5q-31 0 -77.5 18.5t-67.5 18.5q-16 0 -28.5 -11t-13.5 -27z" />
    <glyph glyph-name="Imacron" unicode="&#x12a;" horiz-adv-x="325" 
d="M336 750h-346v84h346v-84zM261 0h-197v667h197v-667z" />
    <glyph glyph-name="imacron" unicode="&#x12b;" 
d="M320 608h-346v84h346v-84zM240 0h-185v505h185v-505z" />
    <glyph glyph-name="Iogonek" unicode="&#x12e;" horiz-adv-x="325" 
d="M162 0h-98v667h197v-667h-34q-46 -37 -61 -59t-15 -43q0 -18 13.5 -28.5t35.5 -10.5t64 17l15 -54q-48 -23 -105 -23q-53 0 -83 21.5t-30 60.5q0 64 101 119z" />
    <glyph glyph-name="iogonek" unicode="&#x12f;" 
d="M240 586h-185v127h185v-127zM147 0h-92v505h185v-505h-28q-46 -37 -61 -59t-15 -43q0 -18 13.5 -28.5t35.5 -10.5t64 17l15 -54q-48 -23 -105 -23q-53 0 -83 21.5t-30 60.5q0 64 101 119z" />
    <glyph glyph-name="Idotaccent" unicode="&#x130;" horiz-adv-x="325" 
d="M237 728h-147v127h147v-127zM261 0h-197v667h197v-667z" />
    <glyph glyph-name="dotlessi" unicode="&#x131;" 
d="M240 0h-185v505h185v-505z" />
    <glyph glyph-name="Jcircumflex" unicode="&#x134;" horiz-adv-x="415" 
d="M5 8l6 139q23 -12 55 -12q47 0 71 27t24 74v431h197v-469q0 -101 -58 -155t-160 -54q-65 0 -135 19zM191 724h-114l103 136h148l103 -136h-114l-63 78z" />
    <glyph glyph-name="jcircumflex" unicode="&#x135;" horiz-adv-x="299" 
d="M-40 -215l6 121q14 -6 37 -6q57 0 57 73v532h184v-547q0 -84 -40 -134t-122 -50q-74 0 -122 11zM84 582h-114l103 136h148l103 -136h-114l-63 78z" />
    <glyph glyph-name="Kcommaaccent" unicode="&#x136;" horiz-adv-x="718" 
d="M373 -227h-108l43 159h156zM262 0h-197v667h197v-280l204 280h229l-256 -312l278 -355h-240l-215 307v-307z" />
    <glyph glyph-name="kcommaaccent" unicode="&#x137;" horiz-adv-x="631" 
d="M332 -227h-108l43 159h156zM240 0h-185v721h185v-422l161 206h212l-187 -227l202 -278h-219l-169 251v-251z" />
    <glyph glyph-name="Lacute" unicode="&#x139;" horiz-adv-x="580" 
d="M232 724h-127l73 136h177zM561 0h-497v667h197v-513h300v-154z" />
    <glyph glyph-name="lacute" unicode="&#x13a;" 
d="M240 0h-185v721h185v-721zM201 769h-127l73 136h177z" />
    <glyph glyph-name="Lcommaaccent" unicode="&#x13b;" horiz-adv-x="580" 
d="M307 -227h-108l43 159h156zM561 0h-497v667h197v-513h300v-154z" />
    <glyph glyph-name="lcommaaccent" unicode="&#x13c;" 
d="M134 -227h-108l43 159h156zM240 0h-185v721h185v-721z" />
    <glyph glyph-name="Lcaron" unicode="&#x13d;" horiz-adv-x="580" 
d="M439 552h-98l19 166h129zM561 0h-497v667h197v-513h300v-154z" />
    <glyph glyph-name="lcaron" unicode="&#x13e;" 
d="M388 552h-98l19 166h129zM240 0h-185v721h185v-721z" />
    <glyph glyph-name="Ldot" unicode="&#x13f;" horiz-adv-x="580" 
d="M561 0h-497v667h197v-513h300v-154zM539 286h-185v127h185v-127z" />
    <glyph glyph-name="ldot" unicode="&#x140;" horiz-adv-x="472" 
d="M240 0h-185v721h185v-721zM478 286h-185v127h185v-127z" />
    <glyph glyph-name="Lslash" unicode="&#x141;" horiz-adv-x="580" 
d="M561 0h-497v269l-82 -49v102l82 49v296h197v-202l150 89v-102l-150 -89v-209h300v-154z" />
    <glyph glyph-name="lslash" unicode="&#x142;" 
d="M240 0h-185v306l-76 -48v102l76 47v314h185v-226l77 46v-102l-77 -46v-393z" />
    <glyph glyph-name="Nacute" unicode="&#x143;" horiz-adv-x="784" 
d="M441 724h-127l73 136h177zM236 0h-172v667h291l194 -518v518h171v-667h-291l-193 517v-517z" />
    <glyph glyph-name="nacute" unicode="&#x144;" horiz-adv-x="619" 
d="M356 582h-127l73 136h177zM240 0h-185v396q0 73 -4 109h175l2 -83q22 46 66 69.5t98 23.5q172 0 172 -179v-336h-185v292q0 29 -3 47t-18 34t-43 16q-75 0 -75 -106v-283z" />
    <glyph glyph-name="Ncommaaccent" unicode="&#x145;" horiz-adv-x="784" 
d="M409 -227h-108l43 159h156zM236 0h-172v667h291l194 -518v518h171v-667h-291l-193 517v-517z" />
    <glyph glyph-name="ncommaaccent" unicode="&#x146;" horiz-adv-x="619" 
d="M300 -227h-108l43 159h156zM240 0h-185v396q0 73 -4 109h175l2 -83q22 46 66 69.5t98 23.5q172 0 172 -179v-336h-185v292q0 29 -3 47t-18 34t-43 16q-75 0 -75 -106v-283z" />
    <glyph glyph-name="Ncaron" unicode="&#x147;" horiz-adv-x="784" 
d="M471 724h-147l-103 136h114l63 -79l63 79h113zM236 0h-172v667h291l194 -518v518h171v-667h-291l-193 517v-517z" />
    <glyph glyph-name="ncaron" unicode="&#x148;" horiz-adv-x="619" 
d="M387 582h-147l-103 136h114l63 -79l63 79h113zM240 0h-185v396q0 73 -4 109h175l2 -83q22 46 66 69.5t98 23.5q172 0 172 -179v-336h-185v292q0 29 -3 47t-18 34t-43 16q-75 0 -75 -106v-283z" />
    <glyph glyph-name="Omacron" unicode="&#x14c;" horiz-adv-x="759" 
d="M552 750h-346v84h346v-84zM123 77q-91 88 -91 256q0 161 92.5 252.5t254.5 91.5q165 0 256.5 -89.5t91.5 -254.5q0 -163 -92.5 -253.5t-255.5 -90.5q-165 0 -256 88zM266 192q36 -74 113 -74q42 0 71.5 20t44 53.5t20.5 68t6 73.5t-6 73.5t-20.5 68t-44 53.5t-71.5 20
q-40 0 -69.5 -20.5t-44 -54t-21 -68.5t-6.5 -72q0 -81 28 -141z" />
    <glyph glyph-name="omacron" unicode="&#x14d;" horiz-adv-x="623" 
d="M485 608h-346v84h346v-84zM105 56q-77 71 -77 199q0 129 78.5 194.5t205.5 65.5q131 0 207.5 -65t76.5 -195q0 -128 -76.5 -197t-207.5 -69q-132 0 -207 67zM242 154q22 -47 70 -47q87 0 87 148q0 36 -6 65.5t-26.5 53.5t-54.5 24q-47 0 -67 -42.5t-20 -100.5
q0 -61 17 -101z" />
    <glyph glyph-name="Obreve" unicode="&#x14e;" horiz-adv-x="759" 
d="M123 77q-91 88 -91 256q0 161 92.5 252.5t254.5 91.5q165 0 256.5 -89.5t91.5 -254.5q0 -163 -92.5 -253.5t-255.5 -90.5q-165 0 -256 88zM266 192q36 -74 113 -74q42 0 71.5 20t44 53.5t20.5 68t6 73.5t-6 73.5t-20.5 68t-44 53.5t-71.5 20q-40 0 -69.5 -20.5t-44 -54
t-21 -68.5t-6.5 -72q0 -81 28 -141zM214 863h85q1 -25 22 -43t58 -18t57.5 17.5t22.5 43.5h84q0 -60 -46.5 -101.5t-117.5 -41.5q-73 0 -119 41t-46 102z" />
    <glyph glyph-name="obreve" unicode="&#x14f;" horiz-adv-x="623" 
d="M105 56q-77 71 -77 199q0 129 78.5 194.5t205.5 65.5q131 0 207.5 -65t76.5 -195q0 -128 -76.5 -197t-207.5 -69q-132 0 -207 67zM242 154q22 -47 70 -47q87 0 87 148q0 36 -6 65.5t-26.5 53.5t-54.5 24q-47 0 -67 -42.5t-20 -100.5q0 -61 17 -101zM146 721h85
q1 -25 22 -43t58 -18t57.5 17.5t22.5 43.5h84q0 -60 -46.5 -101.5t-117.5 -41.5q-73 0 -119 41t-46 102z" />
    <glyph glyph-name="Ohungarumlaut" unicode="&#x150;" horiz-adv-x="759" 
d="M311 724h-127l73 136h177zM559 724h-126l72 136h177zM123 77q-91 88 -91 256q0 161 92.5 252.5t254.5 91.5q165 0 256.5 -89.5t91.5 -254.5q0 -163 -92.5 -253.5t-255.5 -90.5q-165 0 -256 88zM266 192q36 -74 113 -74q42 0 71.5 20t44 53.5t20.5 68t6 73.5t-6 73.5
t-20.5 68t-44 53.5t-71.5 20q-40 0 -69.5 -20.5t-44 -54t-21 -68.5t-6.5 -72q0 -81 28 -141z" />
    <glyph glyph-name="ohungarumlaut" unicode="&#x151;" horiz-adv-x="623" 
d="M489 582h-126l72 136h177zM241 582h-127l73 136h177zM105 56q-77 71 -77 199q0 129 78.5 194.5t205.5 65.5q131 0 207.5 -65t76.5 -195q0 -128 -76.5 -197t-207.5 -69q-132 0 -207 67zM242 154q22 -47 70 -47q87 0 87 148q0 36 -6 65.5t-26.5 53.5t-54.5 24
q-47 0 -67 -42.5t-20 -100.5q0 -61 17 -101z" />
    <glyph glyph-name="OE" unicode="&#x152;" horiz-adv-x="993" 
d="M493 128v411q-41 9 -77 9q-88 0 -133.5 -62.5t-45.5 -152.5q0 -95 46 -155t133 -60q48 0 77 10zM955 0h-406q-78 -11 -143 -11q-171 0 -272.5 88t-101.5 256q0 164 108 254t276 90q59 0 126 -10h406v-129h-268v-138h253v-127h-253v-144h275v-129z" />
    <glyph glyph-name="oe" unicode="&#x153;" horiz-adv-x="928" 
d="M568 300h174q0 120 -78 120q-46 0 -69.5 -36.5t-26.5 -83.5zM901 211h-332q3 -58 47 -86t104 -28q90 0 149 30l6 -110q-85 -28 -188 -28q-139 0 -204 82q-61 -82 -193 -82q-122 0 -192 72t-70 194q0 118 73.5 189t190.5 71q123 0 192 -83q75 83 177 83q125 0 182.5 -73
t57.5 -200v-31zM230 154q22 -47 70 -47q87 0 87 148q0 36 -6 65.5t-26.5 53.5t-54.5 24q-47 0 -67 -42.5t-20 -100.5q0 -61 17 -101z" />
    <glyph glyph-name="Racute" unicode="&#x154;" horiz-adv-x="688" 
d="M376 724h-127l73 136h177zM257 0h-193v667h334q47 0 88 -9t77 -28t57 -55.5t21 -86.5q0 -70 -42.5 -111.5t-114.5 -55.5q50 -10 76 -34.5t42 -74.5l68 -212h-207l-52 170q-16 50 -33.5 66.5t-66.5 16.5h-54v-253zM256 542v-164h64q123 0 123 85q0 46 -32 62.5t-87 16.5
h-68z" />
    <glyph glyph-name="racute" unicode="&#x155;" horiz-adv-x="426" 
d="M279 582h-127l73 136h177zM240 0h-185v396q0 72 -4 108h175l2 -99q52 111 148 111q23 0 39 -5l-5 -160q-15 7 -45 7q-61 0 -93 -43.5t-32 -106.5v-208z" />
    <glyph glyph-name="Rcommaaccent" unicode="&#x156;" horiz-adv-x="688" 
d="M360 -227h-108l43 159h156zM257 0h-193v667h334q47 0 88 -9t77 -28t57 -55.5t21 -86.5q0 -70 -42.5 -111.5t-114.5 -55.5q50 -10 76 -34.5t42 -74.5l68 -212h-207l-52 170q-16 50 -33.5 66.5t-66.5 16.5h-54v-253zM256 542v-164h64q123 0 123 85q0 46 -32 62.5t-87 16.5
h-68z" />
    <glyph glyph-name="rcommaaccent" unicode="&#x157;" horiz-adv-x="426" 
d="M134 -227h-108l43 159h156zM240 0h-185v396q0 72 -4 108h175l2 -99q52 111 148 111q23 0 39 -5l-5 -160q-15 7 -45 7q-61 0 -93 -43.5t-32 -106.5v-208z" />
    <glyph glyph-name="Rcaron" unicode="&#x158;" horiz-adv-x="688" 
d="M404 724h-147l-103 136h114l63 -79l63 79h113zM257 0h-193v667h334q47 0 88 -9t77 -28t57 -55.5t21 -86.5q0 -70 -42.5 -111.5t-114.5 -55.5q50 -10 76 -34.5t42 -74.5l68 -212h-207l-52 170q-16 50 -33.5 66.5t-66.5 16.5h-54v-253zM256 542v-164h64q123 0 123 85
q0 46 -32 62.5t-87 16.5h-68z" />
    <glyph glyph-name="rcaron" unicode="&#x159;" horiz-adv-x="426" 
d="M311 582h-147l-103 136h114l63 -79l63 79h113zM240 0h-185v396q0 72 -4 108h175l2 -99q52 111 148 111q23 0 39 -5l-5 -160q-15 7 -45 7q-61 0 -93 -43.5t-32 -106.5v-208z" />
    <glyph glyph-name="Sacute" unicode="&#x15a;" horiz-adv-x="599" 
d="M350 724h-127l73 136h177zM42 18l5 141q89 -41 204 -41q45 0 79 15.5t34 52.5q0 30 -25.5 46.5t-96.5 40.5l-45 15q-74 24 -114 66t-40 117q0 58 27.5 100.5t73.5 64.5t94.5 32t99.5 10q93 0 191 -23l-5 -137q-81 31 -170 31q-116 0 -116 -65q0 -28 19 -40.5t66 -27.5
q7 -2 10 -3l57 -18q85 -28 128 -68.5t43 -121.5q0 -58 -24.5 -101.5t-66.5 -67.5t-90.5 -35.5t-103.5 -11.5q-128 0 -234 29z" />
    <glyph glyph-name="sacute" unicode="&#x15b;" horiz-adv-x="487" 
d="M289 582h-127l73 136h177zM33 15l6 116q70 -37 167 -37q32 0 54.5 12.5t22.5 39.5q0 25 -25 41t-61 26t-72 23.5t-61 44t-25 77.5q0 44 22 77t58.5 49.5t75 24t79.5 7.5q74 0 163 -21l-6 -110q-72 26 -145 26q-76 0 -76 -46q0 -19 25 -31.5t61 -22t72.5 -24t61.5 -47
t25 -80.5q0 -50 -22.5 -85.5t-60 -53t-75 -25t-78.5 -7.5q-93 0 -186 26z" />
    <glyph glyph-name="Scircumflex" unicode="&#x15c;" horiz-adv-x="599" 
d="M42 18l5 141q89 -41 204 -41q45 0 79 15.5t34 52.5q0 30 -25.5 46.5t-96.5 40.5l-45 15q-74 24 -114 66t-40 117q0 58 27.5 100.5t73.5 64.5t94.5 32t99.5 10q93 0 191 -23l-5 -137q-81 31 -170 31q-116 0 -116 -65q0 -28 19 -40.5t66 -27.5q7 -2 10 -3l57 -18
q85 -28 128 -68.5t43 -121.5q0 -58 -24.5 -101.5t-66.5 -67.5t-90.5 -35.5t-103.5 -11.5q-128 0 -234 29zM242 724h-114l103 136h148l103 -136h-114l-63 78z" />
    <glyph glyph-name="scircumflex" unicode="&#x15d;" horiz-adv-x="487" 
d="M33 15l6 116q70 -37 167 -37q32 0 54.5 12.5t22.5 39.5q0 25 -25 41t-61 26t-72 23.5t-61 44t-25 77.5q0 44 22 77t58.5 49.5t75 24t79.5 7.5q74 0 163 -21l-6 -110q-72 26 -145 26q-76 0 -76 -46q0 -19 25 -31.5t61 -22t72.5 -24t61.5 -47t25 -80.5q0 -50 -22.5 -85.5
t-60 -53t-75 -25t-78.5 -7.5q-93 0 -186 26zM184 582h-114l103 136h148l103 -136h-114l-63 78z" />
    <glyph glyph-name="Scedilla" unicode="&#x15e;" horiz-adv-x="599" 
d="M171 -182l20 52q49 -16 86 -16q49 0 49 27q0 12 -12.5 19.5t-27.5 7.5q-22 0 -41 -5l-25 29l38 57q-112 1 -216 29l5 141q89 -41 204 -41q45 0 79 15.5t34 52.5q0 30 -25.5 46.5t-96.5 40.5l-45 15q-74 24 -114 66t-40 117q0 58 27.5 100.5t73.5 64.5t94.5 32t99.5 10
q93 0 191 -23l-5 -137q-81 31 -170 31q-116 0 -116 -65q0 -28 19 -40.5t66 -27.5q7 -2 10 -3l57 -18q85 -28 128 -68.5t43 -121.5q0 -98 -65 -150t-166 -63l-28 -42q33 3 41 3q34 0 55 -18t21 -50q0 -39 -34 -62.5t-94 -23.5q-66 0 -120 19z" />
    <glyph glyph-name="scedilla" unicode="&#x15f;" horiz-adv-x="487" 
d="M115 -182l20 52q49 -16 86 -16q49 0 49 27q0 12 -12.5 19.5t-27.5 7.5q-22 0 -41 -5l-25 29l38 57q-85 3 -169 26l6 116q70 -37 167 -37q32 0 54.5 12.5t22.5 39.5q0 25 -25 41t-61 26t-72 23.5t-61 44t-25 77.5q0 44 22 77t58.5 49.5t75 24t79.5 7.5q74 0 163 -21
l-6 -110q-72 26 -145 26q-76 0 -76 -46q0 -19 25 -31.5t61 -22t72.5 -24t61.5 -47t25 -80.5q0 -144 -182 -167l-27 -43q33 3 41 3q34 0 55 -18t21 -50q0 -39 -34 -62.5t-94 -23.5q-66 0 -120 19z" />
    <glyph glyph-name="Scaron" unicode="&#x160;" horiz-adv-x="599" 
d="M42 18l5 141q89 -41 204 -41q45 0 79 15.5t34 52.5q0 30 -25.5 46.5t-96.5 40.5l-45 15q-74 24 -114 66t-40 117q0 58 27.5 100.5t73.5 64.5t94.5 32t99.5 10q93 0 191 -23l-5 -137q-81 31 -170 31q-116 0 -116 -65q0 -28 19 -40.5t66 -27.5q7 -2 10 -3l57 -18
q85 -28 128 -68.5t43 -121.5q0 -58 -24.5 -101.5t-66.5 -67.5t-90.5 -35.5t-103.5 -11.5q-128 0 -234 29zM373 724h-147l-103 136h114l63 -79l63 79h113z" />
    <glyph glyph-name="scaron" unicode="&#x161;" horiz-adv-x="487" 
d="M33 15l6 116q70 -37 167 -37q32 0 54.5 12.5t22.5 39.5q0 25 -25 41t-61 26t-72 23.5t-61 44t-25 77.5q0 44 22 77t58.5 49.5t75 24t79.5 7.5q74 0 163 -21l-6 -110q-72 26 -145 26q-76 0 -76 -46q0 -19 25 -31.5t61 -22t72.5 -24t61.5 -47t25 -80.5q0 -50 -22.5 -85.5
t-60 -53t-75 -25t-78.5 -7.5q-93 0 -186 26zM322 582h-147l-103 136h114l63 -79l63 79h113z" />
    <glyph glyph-name="Tcommaaccent" unicode="&#x162;" horiz-adv-x="652" 
d="M313 -227h-108l43 159h156zM425 0h-198v513h-216v154h631v-154h-217v-513z" />
    <glyph glyph-name="tcommaaccent" unicode="&#x163;" horiz-adv-x="415" 
d="M238 -227h-108l43 159h156zM96 390h-88v115h88v95l185 58v-153h110v-115h-110v-204q0 -34 12 -52.5t45 -18.5q26 0 54 11l5 -115q-65 -22 -140 -22q-88 0 -124.5 47t-36.5 139v215z" />
    <glyph glyph-name="Tcaron" unicode="&#x164;" horiz-adv-x="652" 
d="M401 724h-147l-103 136h114l63 -79l63 79h113zM425 0h-198v513h-216v154h631v-154h-217v-513z" />
    <glyph glyph-name="tcaron" unicode="&#x165;" horiz-adv-x="415" 
d="M96 390h-88v115h88v95l185 58v-153h110v-115h-110v-204q0 -34 12 -52.5t45 -18.5q26 0 54 11l5 -115q-65 -22 -140 -22q-88 0 -124.5 47t-36.5 139v215zM420 552h-98l19 166h129z" />
    <glyph glyph-name="Tbar" unicode="&#x166;" horiz-adv-x="652" 
d="M425 0h-198v298h-131v101h131v114h-216v154h631v-154h-217v-114h139v-101h-139v-298z" />
    <glyph glyph-name="tbar" unicode="&#x167;" horiz-adv-x="415" 
d="M96 228h-74v84h74v78h-88v115h88v95l185 58v-153h110v-115h-110v-78h91v-84h-91v-42q0 -34 12 -52.5t45 -18.5q26 0 54 11l5 -115q-65 -22 -140 -22q-88 0 -124.5 47t-36.5 139v53z" />
    <glyph glyph-name="Utilde" unicode="&#x168;" horiz-adv-x="728" 
d="M255 667v-408q0 -59 25.5 -96t82.5 -37t84 37.5t27 95.5v408h197v-405q0 -133 -87 -203t-222 -70q-137 0 -220.5 65t-83.5 199v414h197zM250 724h-76q4 53 31 92.5t77 39.5q32 0 82 -18.5t69 -18.5q35 0 42 39h76q-2 -52 -33 -92.5t-81 -40.5q-31 0 -77.5 18.5
t-67.5 18.5q-16 0 -28.5 -11t-13.5 -27z" />
    <glyph glyph-name="utilde" unicode="&#x169;" horiz-adv-x="616" 
d="M566 0h-175l-2 83q-22 -46 -66 -69.5t-98 -23.5q-172 0 -172 179v336h185v-291q0 -29 3 -47t18 -34.5t43 -16.5q75 0 75 107v282h184v-395q0 -65 5 -110zM198 582h-76q4 53 31 92.5t77 39.5q32 0 82 -18.5t69 -18.5q35 0 42 39h76q-2 -52 -33 -92.5t-81 -40.5
q-31 0 -77.5 18.5t-67.5 18.5q-16 0 -28.5 -11t-13.5 -27z" />
    <glyph glyph-name="Umacron" unicode="&#x16a;" horiz-adv-x="728" 
d="M537 750h-346v84h346v-84zM255 667v-408q0 -59 25.5 -96t82.5 -37t84 37.5t27 95.5v408h197v-405q0 -133 -87 -203t-222 -70q-137 0 -220.5 65t-83.5 199v414h197z" />
    <glyph glyph-name="umacron" unicode="&#x16b;" horiz-adv-x="616" 
d="M480 608h-346v84h346v-84zM566 0h-175l-2 83q-22 -46 -66 -69.5t-98 -23.5q-172 0 -172 179v336h185v-291q0 -29 3 -47t18 -34.5t43 -16.5q75 0 75 107v282h184v-395q0 -65 5 -110z" />
    <glyph glyph-name="Ubreve" unicode="&#x16c;" horiz-adv-x="728" 
d="M255 667v-408q0 -59 25.5 -96t82.5 -37t84 37.5t27 95.5v408h197v-405q0 -133 -87 -203t-222 -70q-137 0 -220.5 65t-83.5 199v414h197zM201 863h85q1 -25 22 -43t58 -18t57.5 17.5t22.5 43.5h84q0 -60 -46.5 -101.5t-117.5 -41.5q-73 0 -119 41t-46 102z" />
    <glyph glyph-name="ubreve" unicode="&#x16d;" horiz-adv-x="616" 
d="M566 0h-175l-2 83q-22 -46 -66 -69.5t-98 -23.5q-172 0 -172 179v336h185v-291q0 -29 3 -47t18 -34.5t43 -16.5q75 0 75 107v282h184v-395q0 -65 5 -110zM143 721h85q1 -25 22 -43t58 -18t57.5 17.5t22.5 43.5h84q0 -60 -46.5 -101.5t-117.5 -41.5q-73 0 -119 41t-46 102
z" />
    <glyph glyph-name="Uring" unicode="&#x16e;" horiz-adv-x="728" 
d="M314 792q0 -21 15 -35.5t35 -14.5q21 0 35.5 14.5t14.5 35.5q0 20 -14.5 34.5t-35.5 14.5t-35.5 -14.5t-14.5 -34.5zM364 687q-45 0 -75 30t-30 75t30 74.5t75 29.5t75 -29.5t30 -74.5q0 -44 -30.5 -74.5t-74.5 -30.5zM255 667v-408q0 -59 25.5 -96t82.5 -37t84 37.5
t27 95.5v408h197v-405q0 -133 -87 -203t-222 -70q-137 0 -220.5 65t-83.5 199v414h197z" />
    <glyph glyph-name="uring" unicode="&#x16f;" horiz-adv-x="616" 
d="M266 553q-29 12 -46.5 38t-17.5 59q0 44 30.5 74t74.5 30t74.5 -30t30.5 -74t-30.5 -74.5t-74.5 -30.5q-20 0 -41 8zM257 650q0 -21 15 -35.5t35 -14.5q21 0 35.5 14.5t14.5 35.5q0 20 -14.5 34.5t-35.5 14.5t-35.5 -14.5t-14.5 -34.5zM566 0h-175l-2 83
q-22 -46 -66 -69.5t-98 -23.5q-172 0 -172 179v336h185v-291q0 -29 3 -47t18 -34.5t43 -16.5q75 0 75 107v282h184v-395q0 -65 5 -110z" />
    <glyph glyph-name="Uhungarumlaut" unicode="&#x170;" horiz-adv-x="728" 
d="M295 724h-127l73 136h177zM543 724h-126l72 136h177zM255 667v-408q0 -59 25.5 -96t82.5 -37t84 37.5t27 95.5v408h197v-405q0 -133 -87 -203t-222 -70q-137 0 -220.5 65t-83.5 199v414h197z" />
    <glyph glyph-name="uhungarumlaut" unicode="&#x171;" horiz-adv-x="616" 
d="M488 582h-126l72 136h177zM240 582h-127l73 136h177zM566 0h-175l-2 83q-22 -46 -66 -69.5t-98 -23.5q-172 0 -172 179v336h185v-291q0 -29 3 -47t18 -34.5t43 -16.5q75 0 75 107v282h184v-395q0 -65 5 -110z" />
    <glyph glyph-name="Uogonek" unicode="&#x172;" horiz-adv-x="728" 
d="M484 -124l15 -54q-48 -23 -105 -23q-53 0 -83 21.5t-30 60.5q0 58 82 108h-1q-137 0 -220.5 65t-83.5 199v414h197v-408q0 -59 25.5 -96t82.5 -37t84 37.5t27 95.5v408h197v-405q0 -112 -63 -179.5t-166 -86.5q-44 -35 -57.5 -56t-13.5 -42q0 -18 13.5 -28.5t35.5 -10.5
t64 17z" />
    <glyph glyph-name="uogonek" unicode="&#x173;" horiz-adv-x="616" 
d="M543 -124l15 -54q-48 -23 -105 -23q-53 0 -83 21.5t-30 60.5q0 64 101 119h-49l-3 83q-22 -46 -66 -69.5t-98 -23.5q-172 0 -172 179v336h185v-291q0 -29 3 -47t18 -34.5t43 -16.5q75 0 75 107v282h184v-395q0 -65 5 -110h-60q-46 -37 -61 -59t-15 -43q0 -18 13.5 -28.5
t35.5 -10.5t64 17z" />
    <glyph glyph-name="Wcircumflex" unicode="&#x174;" horiz-adv-x="1035" 
d="M391 0h-216l-171 667h187l107 -488l128 488h194l125 -488l110 488h177l-170 -667h-215l-130 490zM464 724h-114l103 136h148l103 -136h-114l-63 78z" />
    <glyph glyph-name="wcircumflex" unicode="&#x175;" horiz-adv-x="903" 
d="M368 0h-230l-132 505h182l81 -370l80 370h219l84 -370l76 370h170l-131 -505h-231l-81 376zM395 582h-114l103 136h148l103 -136h-114l-63 78z" />
    <glyph glyph-name="Ycircumflex" unicode="&#x176;" horiz-adv-x="666" 
d="M430 0h-197v229l-246 438h214l139 -296l135 296h205l-250 -438v-229zM278 724h-114l103 136h148l103 -136h-114l-63 78z" />
    <glyph glyph-name="ycircumflex" unicode="&#x177;" horiz-adv-x="546" 
d="M29 -212l6 117q30 -9 62 -9q65 0 85 56l9 27l-188 526h192l89 -350l82 350h180l-176 -539q-13 -40 -28 -70t-39.5 -60t-61.5 -46t-85 -16q-77 0 -127 14zM222 582h-114l103 136h148l103 -136h-114l-63 78z" />
    <glyph glyph-name="Ydieresis" unicode="&#x178;" horiz-adv-x="666" 
d="M430 0h-197v229l-246 438h214l139 -296l135 296h205l-250 -438v-229zM297 728h-137v127h137v-127zM516 728h-136v127h136v-127z" />
    <glyph glyph-name="Zacute" unicode="&#x179;" horiz-adv-x="611" 
d="M354 724h-127l73 136h177zM585 0h-558v154l334 376h-323v137h537v-155l-326 -375h336v-137z" />
    <glyph glyph-name="zacute" unicode="&#x17a;" horiz-adv-x="531" 
d="M317 582h-127l73 136h177zM502 0h-472v138l260 251h-252v116h460v-137l-256 -251h260v-117z" />
    <glyph glyph-name="Zdotaccent" unicode="&#x17b;" horiz-adv-x="611" 
d="M383 728h-147v127h147v-127zM585 0h-558v154l334 376h-323v137h537v-155l-326 -375h336v-137z" />
    <glyph glyph-name="zdotaccent" unicode="&#x17c;" horiz-adv-x="531" 
d="M367 586h-185v127h185v-127zM502 0h-472v138l260 251h-252v116h460v-137l-256 -251h260v-117z" />
    <glyph glyph-name="Zcaron" unicode="&#x17d;" horiz-adv-x="611" 
d="M585 0h-558v154l334 376h-323v137h537v-155l-326 -375h336v-137zM379 724h-147l-103 136h114l63 -79l63 79h113z" />
    <glyph glyph-name="zcaron" unicode="&#x17e;" horiz-adv-x="531" 
d="M502 0h-472v138l260 251h-252v116h460v-137l-256 -251h260v-117zM342 582h-147l-103 136h114l63 -79l63 79h113z" />
    <glyph glyph-name="florin" unicode="&#x192;" horiz-adv-x="620" 
d="M26 -215l6 117q16 -6 39 -6q31 0 51 27.5t27 63.5l62 299h-108v114h132l21 92q21 95 69 140t133 45q65 0 106 -13l-6 -108q-22 7 -48 7q-64 0 -80 -81l-18 -82h109v-114h-133l-64 -308q-17 -89 -64.5 -146.5t-123.5 -57.5q-67 0 -110 11z" />
    <glyph glyph-name="Scommaaccent" unicode="&#x218;" horiz-adv-x="599" 
d="M298 -227h-108l43 159h156zM42 18l5 141q89 -41 204 -41q45 0 79 15.5t34 52.5q0 30 -25.5 46.5t-96.5 40.5l-45 15q-74 24 -114 66t-40 117q0 58 27.5 100.5t73.5 64.5t94.5 32t99.5 10q93 0 191 -23l-5 -137q-81 31 -170 31q-116 0 -116 -65q0 -28 19 -40.5t66 -27.5
q7 -2 10 -3l57 -18q85 -28 128 -68.5t43 -121.5q0 -58 -24.5 -101.5t-66.5 -67.5t-90.5 -35.5t-103.5 -11.5q-128 0 -234 29z" />
    <glyph glyph-name="scommaaccent" unicode="&#x219;" horiz-adv-x="487" 
d="M248 -227h-108l43 159h156zM33 15l6 116q70 -37 167 -37q32 0 54.5 12.5t22.5 39.5q0 25 -25 41t-61 26t-72 23.5t-61 44t-25 77.5q0 44 22 77t58.5 49.5t75 24t79.5 7.5q74 0 163 -21l-6 -110q-72 26 -145 26q-76 0 -76 -46q0 -19 25 -31.5t61 -22t72.5 -24t61.5 -47
t25 -80.5q0 -50 -22.5 -85.5t-60 -53t-75 -25t-78.5 -7.5q-93 0 -186 26z" />
    <glyph glyph-name="uni021A" unicode="&#x21a;" horiz-adv-x="652" 
d="M313 -227h-108l43 159h156zM425 0h-198v513h-216v154h631v-154h-217v-513z" />
    <glyph glyph-name="uni021B" unicode="&#x21b;" horiz-adv-x="415" 
d="M238 -227h-108l43 159h156zM96 390h-88v115h88v95l185 58v-153h110v-115h-110v-204q0 -34 12 -52.5t45 -18.5q26 0 54 11l5 -115q-65 -22 -140 -22q-88 0 -124.5 47t-36.5 139v215z" />
    <glyph glyph-name="dotlessj" unicode="&#x237;" horiz-adv-x="299" 
d="M-40 -215l6 121q14 -6 37 -6q57 0 57 73v532h184v-547q0 -84 -40 -134t-122 -50q-74 0 -122 11z" />
    <glyph glyph-name="apostrophe" unicode="&#x2bc;" horiz-adv-x="310" 
d="M132 512h-94l45 209h126z" />
    <glyph glyph-name="circumflex" unicode="&#x2c6;" 
d="M84 582h-114l103 136h148l103 -136h-114l-63 78z" />
    <glyph glyph-name="caron" unicode="&#x2c7;" 
d="M221 582h-147l-103 136h114l63 -79l63 79h113z" />
    <glyph glyph-name="uni02C9" unicode="&#x2c9;" 
d="M321 608h-346v84h346v-84z" />
    <glyph glyph-name="breve" unicode="&#x2d8;" 
d="M-17 721h85q1 -25 22 -43t58 -18t57.5 17.5t22.5 43.5h84q0 -60 -46.5 -101.5t-117.5 -41.5q-73 0 -119 41t-46 102z" />
    <glyph glyph-name="dotaccent" unicode="&#x2d9;" 
d="M240 586h-185v127h185v-127z" />
    <glyph glyph-name="ring" unicode="&#x2da;" 
d="M107 553q-29 12 -46.5 38t-17.5 59q0 44 30.5 74t74.5 30t74.5 -30t30.5 -74t-30.5 -74.5t-74.5 -30.5q-20 0 -41 8zM98 650q0 -21 15 -35.5t35 -14.5q21 0 35.5 14.5t14.5 35.5q0 20 -14.5 34.5t-35.5 14.5t-35.5 -14.5t-14.5 -34.5z" />
    <glyph glyph-name="ogonek" unicode="&#x2db;" 
d="M250 -124l15 -54q-48 -23 -105 -23q-53 0 -83 21.5t-30 60.5q0 64 101 119h65q-46 -37 -61 -59t-15 -43q0 -18 13.5 -28.5t35.5 -10.5t64 17z" />
    <glyph glyph-name="tilde" unicode="&#x2dc;" 
d="M35 582h-76q4 53 31 92.5t77 39.5q31 0 81 -18.5t70 -18.5q35 0 42 39h76q-2 -52 -33 -92.5t-81 -40.5q-31 0 -77.5 18.5t-67.5 18.5q-16 0 -28.5 -11t-13.5 -27z" />
    <glyph glyph-name="hungarumlaut" unicode="&#x2dd;" 
d="M296 582h-126l72 136h177zM48 582h-127l73 136h177z" />
    <glyph glyph-name="uni0394" unicode="&#x394;" horiz-adv-x="750" 
d="M716 0h-682l257 701h151zM368 554l-151 -428h311z" />
    <glyph glyph-name="uni03A9" unicode="&#x3a9;" horiz-adv-x="750" 
d="M339 0h-291v123h180v33q-85 21 -132.5 92.5t-47.5 162.5q0 139 95.5 219.5t234.5 80.5q135 0 230 -81.5t95 -217.5q0 -90 -48 -164.5t-132 -91.5v-33h179v-123h-291v210q69 8 106 61.5t37 126.5q0 79 -48.5 133.5t-127.5 54.5q-80 0 -130.5 -55.5t-50.5 -136.5
q0 -72 37.5 -124t104.5 -60v-210z" />
    <glyph glyph-name="uni03BC" unicode="&#x3bc;" horiz-adv-x="620" 
d="M238 -216h-183v721h185v-297q0 -30 3 -48t18 -33t43 -15q74 0 74 105v288h184v-397q0 -56 5 -108h-174l-4 87q-18 -38 -50 -64t-63 -26q-24 0 -38 13v-226z" />
    <glyph glyph-name="pi" unicode="&#x3c0;" horiz-adv-x="650" 
d="M236 0h-131v372h-70v119h558v-119h-81v-199q0 -27 1.5 -39t9.5 -21.5t25 -9.5t45 13v-99q-50 -27 -98 -27q-64 0 -89 35t-25 99v248h-145v-372z" />
    <glyph glyph-name="endash" unicode="&#x2013;" horiz-adv-x="500" 
d="M500 253h-500v114h500v-114z" />
    <glyph glyph-name="emdash" unicode="&#x2014;" horiz-adv-x="1000" 
d="M1000 253h-1000v114h1000v-114z" />
    <glyph glyph-name="quoteleft" unicode="&#x2018;" horiz-adv-x="310" 
d="M203 450h-163l101 271h121z" />
    <glyph glyph-name="quoteright" unicode="&#x2019;" horiz-adv-x="310" 
d="M171 450h-121l58 271h164z" />
    <glyph glyph-name="quotesinglbase" unicode="&#x201a;" horiz-adv-x="310" 
d="M146 -128h-121l58 271h164z" />
    <glyph glyph-name="quotedblleft" unicode="&#x201c;" horiz-adv-x="533" 
d="M426 450h-163l101 271h120zM203 450h-163l101 271h121z" />
    <glyph glyph-name="quotedblright" unicode="&#x201d;" horiz-adv-x="533" 
d="M392 450h-121l59 271h163zM170 450h-121l58 271h164z" />
    <glyph glyph-name="quotedblbase" unicode="&#x201e;" horiz-adv-x="533" 
d="M368 -127h-120l58 271h163zM146 -127h-121l58 271h164z" />
    <glyph glyph-name="dagger" unicode="&#x2020;" horiz-adv-x="620" 
d="M400 -128h-179v517h-176v144h176v188h179v-188h176v-144h-176v-517z" />
    <glyph glyph-name="daggerdbl" unicode="&#x2021;" horiz-adv-x="620" 
d="M400 -128h-179v188h-176v144h176v185h-176v144h176v188h179v-188h176v-144h-176v-185h176v-144h-176v-188z" />
    <glyph glyph-name="bullet" unicode="&#x2022;" horiz-adv-x="620" 
d="M249 165q-43 20 -69.5 59t-26.5 86q0 64 46.5 110.5t110.5 46.5t111 -46.5t47 -110.5t-47 -110.5t-111 -46.5q-32 0 -61 12z" />
    <glyph glyph-name="ellipsis" unicode="&#x2026;" horiz-adv-x="1000" 
d="M918 0h-168v143h168v-143zM585 0h-168v143h168v-143zM251 0h-167v143h167v-143z" />
    <glyph glyph-name="perthousand" unicode="&#x2030;" horiz-adv-x="1418" 
d="M1109 5q-97 47 -97 190q0 91 45 148.5t139 57.5q95 0 140.5 -57.5t45.5 -148.5q0 -92 -45 -149t-141 -57q-52 0 -87 16zM692 5q-98 47 -98 190q0 91 45 148.5t140 57.5t140.5 -57.5t45.5 -148.5q0 -92 -45 -149t-141 -57q-52 0 -87 16zM341 -24h-103l424 715h102z
M136 281q-99 48 -99 190q0 91 45.5 148.5t140.5 57.5t140 -57t45 -149t-44.5 -149t-140.5 -57q-52 0 -87 16zM1147 104q13 -39 49 -39q19 0 31.5 10t18 30t7.5 40t2 50q0 66 -11.5 98t-47.5 32q-25 0 -38 -18t-16 -43t-3 -69q0 -64 8 -91zM730 104q13 -39 49 -39
q19 0 31.5 10t18 30t7.5 40t2 50q0 66 -11.5 98t-47.5 32q-35 0 -46.5 -32t-11.5 -98q0 -64 9 -91zM173 380q13 -39 50 -39q36 0 47 33.5t11 96.5q0 66 -11.5 98t-46.5 32t-47 -32.5t-12 -97.5q0 -64 9 -91z" />
    <glyph glyph-name="guilsinglleft" unicode="&#x2039;" horiz-adv-x="322" 
d="M296 55h-146l-133 203l133 202h146l-128 -202z" />
    <glyph glyph-name="guilsinglright" unicode="&#x203a;" horiz-adv-x="322" 
d="M173 55h-146l127 202l-127 203h146l133 -203z" />
    <glyph glyph-name="fraction" unicode="&#x2044;" horiz-adv-x="196" 
d="M-65 -24h-97l423 715h98z" />
    <glyph glyph-name="zero.superior" unicode="&#x2070;" horiz-adv-x="480" 
d="M191 482q13 -40 49 -40q19 0 31.5 10t17.5 30.5t7 40.5t2 50q0 66 -11.5 98t-46.5 32t-46 -32t-11 -98q0 -64 8 -91zM154 381q-98 47 -98 192q0 92 45 149.5t139 57.5q95 0 140 -57.5t45 -149.5t-45 -150t-140 -58q-53 0 -86 16z" />
    <glyph glyph-name="uni2071" unicode="&#x2071;" horiz-adv-x="207" 
d="M167 372h-125v305h125v-305zM167 722h-125v81h125v-81z" />
    <glyph glyph-name="four.superior" unicode="&#x2074;" horiz-adv-x="480" 
d="M253 684l-124 -155h124v155zM251 451h-196v95l189 228h128v-241h61v-82h-61v-79h-121v79z" />
    <glyph glyph-name="five.superior" unicode="&#x2075;" horiz-adv-x="480" 
d="M75 382l3 79q50 -14 95 -14q103 0 103 57q0 30 -31 43t-69 13q-44 0 -90 -9l6 223h294v-79h-183l-2 -79q13 4 38 4q167 0 167 -116q0 -48 -32.5 -80.5t-76 -45.5t-92.5 -13q-68 0 -130 17z" />
    <glyph glyph-name="six.superior" unicode="&#x2076;" horiz-adv-x="480" 
d="M199 455q16 -19 48 -19q29 0 46 18t17 46q0 27 -16 45t-46 18t-47 -17.5t-17 -44.5t15 -46zM395 770l-4 -79q-42 13 -95 13q-51 0 -82 -28.5t-31 -75.5q37 33 99 33q65 0 104.5 -34t39.5 -95q0 -66 -53 -102.5t-126 -36.5q-93 0 -140 54t-47 143q0 97 60.5 157.5
t162.5 60.5q62 0 112 -10z" />
    <glyph glyph-name="seven.superior" unicode="&#x2077;" horiz-adv-x="480" 
d="M250 372h-148l180 309h-213v93h339v-93z" />
    <glyph glyph-name="eight.superior" unicode="&#x2078;" horiz-adv-x="480" 
d="M286 536q-14 15 -46 20q-29 -3 -45.5 -20t-16.5 -42t16.5 -41t45.5 -16t45.5 16t16.5 43q0 24 -16 40zM199 627q16 -14 41 -17q25 2 41 17.5t16 37.5q0 21 -16.5 35t-40.5 14t-40 -13.5t-16 -36.5q0 -24 15 -37zM75 546q22 22 65 33q-40 12 -58.5 32.5t-18.5 58.5
q0 54 57 82t120 28q68 0 123 -26t55 -83q0 -66 -79 -91q46 -10 67 -33t21 -67q0 -42 -32 -69.5t-71.5 -36.5t-83.5 -9q-73 0 -130 27.5t-57 87.5q0 44 22 66z" />
    <glyph glyph-name="nine.superior" unicode="&#x2079;" horiz-adv-x="480" 
d="M185 601q15 -18 47 -18q29 0 46.5 17t17.5 44q0 28 -17 47t-46 19t-46 -18.5t-17 -45.5t15 -45zM84 376l4 78q50 -13 98 -13q51 0 81 28t31 76q-39 -33 -101 -33t-102 35t-40 94q0 66 52 102.5t123 36.5q94 0 142.5 -53t48.5 -143q0 -100 -57.5 -159.5t-161.5 -59.5
q-64 0 -118 11z" />
    <glyph glyph-name="plus.superior" unicode="&#x207a;" horiz-adv-x="480" 
d="M196 491h-129v83h129v120h89v-120h128v-83h-128v-118h-89v118z" />
    <glyph glyph-name="plus.superior" unicode="&#xe1e1;" horiz-adv-x="480" 
d="M196 491h-129v83h129v120h89v-120h128v-83h-128v-118h-89v118z" />
    <glyph glyph-name="minus.superior" unicode="&#x207b;" horiz-adv-x="480" 
d="M413 491h-346v83h346v-83z" />
    <glyph glyph-name="minus.superior" unicode="&#xe1e5;" horiz-adv-x="480" 
d="M413 491h-346v83h346v-83z" />
    <glyph glyph-name="uni207F" unicode="&#x207f;" horiz-adv-x="417" 
d="M166 372h-124v239q0 43 -3 66h117l2 -51q34 57 107 57q54 0 82 -28t28 -79v-204h-124v175q0 55 -40 55q-45 0 -45 -59v-171z" />
    <glyph glyph-name="zero.inferior" unicode="&#x2080;" horiz-adv-x="480" 
d="M191 -55q13 -40 49 -40q19 0 31.5 10t17.5 30.5t7 40.5t2 50q0 66 -11.5 98t-46.5 32t-46 -32t-11 -98q0 -64 8 -91zM154 -156q-98 47 -98 192q0 92 45 149.5t139 57.5q95 0 140 -57.5t45 -149.5t-45 -150t-140 -58q-53 0 -86 16z" />
    <glyph glyph-name="one.inferior" unicode="&#x2081;" horiz-adv-x="480" 
d="M343 -165h-125v285l-97 -64l-39 85l154 95h107v-401z" />
    <glyph glyph-name="two.inferior" unicode="&#x2082;" horiz-adv-x="480" 
d="M401 -165h-335v88l85 54q119 72 119 128q0 26 -20 39.5t-54 13.5q-59 0 -118 -24l-3 85q83 23 142 23q34 0 64.5 -6t58 -19.5t43.5 -39t16 -59.5q0 -46 -34 -86.5t-103 -84.5l-46 -30h185v-82z" />
    <glyph glyph-name="three.inferior" unicode="&#x2083;" horiz-adv-x="480" 
d="M66 -156l4 78q47 -17 116 -17q38 0 64 13t26 38q0 50 -103 50h-51v71h42q107 0 107 46q0 43 -86 43q-61 0 -106 -16l-4 76q56 17 130 17q46 0 85 -7t73 -33t34 -69q0 -70 -79 -92q37 -6 62 -29.5t25 -57.5q0 -48 -33 -78t-74.5 -39.5t-92.5 -9.5q-84 0 -139 16z" />
    <glyph glyph-name="four.inferior" unicode="&#x2084;" horiz-adv-x="480" 
d="M253 147l-124 -155h124v155zM251 -86h-196v95l189 228h128v-241h61v-82h-61v-79h-121v79z" />
    <glyph glyph-name="five.inferior" unicode="&#x2085;" horiz-adv-x="480" 
d="M75 -155l3 79q50 -14 95 -14q103 0 103 57q0 30 -31 43t-69 13q-44 0 -90 -9l6 223h294v-79h-183l-2 -79q13 4 38 4q167 0 167 -116q0 -48 -32.5 -80.5t-76 -45.5t-92.5 -13q-68 0 -130 17z" />
    <glyph glyph-name="six.inferior" unicode="&#x2086;" horiz-adv-x="480" 
d="M199 -82q16 -19 48 -19q29 0 46 18t17 46q0 27 -16 45t-46 18t-47 -17t-17 -45q0 -26 15 -46zM395 233l-4 -79q-42 13 -95 13q-51 0 -82 -28.5t-31 -75.5q37 33 99 33q65 0 104.5 -34t39.5 -95q0 -66 -53 -102.5t-126 -36.5q-93 0 -140 54t-47 143q0 97 60.5 157.5
t162.5 60.5q62 0 112 -10z" />
    <glyph glyph-name="seven.inferior" unicode="&#x2087;" horiz-adv-x="480" 
d="M250 -165h-148l180 309h-213v93h339v-93z" />
    <glyph glyph-name="eight.inferior" unicode="&#x2088;" horiz-adv-x="480" 
d="M286 -1q-14 15 -46 20q-29 -3 -45.5 -20t-16.5 -42t16.5 -41t45.5 -16t45.5 16t16.5 43q0 24 -16 40zM199 90q16 -14 41 -17q25 2 41 17.5t16 37.5q0 21 -16.5 35t-40.5 14t-40 -13.5t-16 -36.5t15 -37zM75 9q22 22 65 33q-40 12 -58.5 32.5t-18.5 58.5q0 54 57 82
t120 28q68 0 123 -26t55 -83q0 -66 -79 -91q46 -10 67 -33t21 -67q0 -42 -32 -69.5t-71.5 -36.5t-83.5 -9q-73 0 -130 27.5t-57 87.5q0 44 22 66z" />
    <glyph glyph-name="nine.inferior" unicode="&#x2089;" horiz-adv-x="480" 
d="M185 64q15 -18 47 -18q29 0 46.5 17t17.5 44q0 28 -17 47t-46 19t-46 -18.5t-17 -45.5t15 -45zM84 -161l4 78q50 -13 98 -13q51 0 81 28t31 76q-39 -33 -101 -33t-102 35t-40 94q0 66 52 102.5t123 36.5q94 0 142.5 -53t48.5 -143q0 -100 -57.5 -159.5t-161.5 -59.5
q-64 0 -118 11z" />
    <glyph glyph-name="plus.inferior" unicode="&#x208a;" horiz-adv-x="480" 
d="M196 -46h-129v83h129v120h89v-120h128v-83h-128v-118h-89v118z" />
    <glyph glyph-name="plus.inferior" unicode="&#xe194;" horiz-adv-x="480" 
d="M196 -46h-129v83h129v120h89v-120h128v-83h-128v-118h-89v118z" />
    <glyph glyph-name="minus.inferior" unicode="&#x208b;" horiz-adv-x="480" 
d="M413 -46h-346v83h346v-83z" />
    <glyph glyph-name="minus.inferior" unicode="&#xe198;" horiz-adv-x="480" 
d="M413 -46h-346v83h346v-83z" />
    <glyph glyph-name="a.inferior" unicode="&#x2090;" horiz-adv-x="398" 
d="M242 -27h-20q-85 0 -85 -42q0 -19 13 -27.5t31 -8.5q30 0 45.5 19.5t15.5 46.5v12zM364 -165h-118l-2 42q-36 -49 -109 -49q-51 0 -81.5 24.5t-30.5 70.5q0 105 162 105q47 0 57 -2v6q0 48 -74 48q-55 0 -105 -24l-4 72q53 18 126 18q176 0 176 -123v-110q0 -58 3 -78z
" />
    <glyph glyph-name="a.inferior" unicode="&#xe150;" horiz-adv-x="398" 
d="M242 -27h-20q-85 0 -85 -42q0 -19 13 -27.5t31 -8.5q30 0 45.5 19.5t15.5 46.5v12zM364 -165h-118l-2 42q-36 -49 -109 -49q-51 0 -81.5 24.5t-30.5 70.5q0 105 162 105q47 0 57 -2v6q0 48 -74 48q-55 0 -105 -24l-4 72q53 18 126 18q176 0 176 -123v-110q0 -58 3 -78z
" />
    <glyph glyph-name="e.inferior" unicode="&#x2091;" horiz-adv-x="383" 
d="M145 15h108q0 67 -49 67q-53 0 -59 -67zM361 -40h-215q2 -31 28.5 -47.5t67.5 -16.5q54 0 98 18l4 -68q-57 -18 -119 -18q-200 0 -200 161q0 73 50.5 115t127.5 42q84 0 121 -40.5t37 -117.5v-28z" />
    <glyph glyph-name="e.inferior" unicode="&#xe154;" horiz-adv-x="383" 
d="M145 15h108q0 67 -49 67q-53 0 -59 -67zM361 -40h-215q2 -31 28.5 -47.5t67.5 -16.5q54 0 98 18l4 -68q-57 -18 -119 -18q-200 0 -200 161q0 73 50.5 115t127.5 42q84 0 121 -40.5t37 -117.5v-28z" />
    <glyph glyph-name="o.inferior" unicode="&#x2092;" horiz-adv-x="420" 
d="M168 -70q14 -27 42 -27q53 0 53 85q0 83 -53 83t-53 -83q0 -36 11 -58zM75 -132q-50 41 -50 120q0 78 51.5 118t133.5 40q85 0 135 -39.5t50 -118.5q0 -78 -49.5 -119t-135.5 -41t-135 40z" />
    <glyph glyph-name="o.inferior" unicode="&#xe15e;" horiz-adv-x="420" 
d="M168 -70q14 -27 42 -27q53 0 53 85q0 83 -53 83t-53 -83q0 -36 11 -58zM75 -132q-50 41 -50 120q0 78 51.5 118t133.5 40q85 0 135 -39.5t50 -118.5q0 -78 -49.5 -119t-135.5 -41t-135 40z" />
    <glyph glyph-name="x.inferior" unicode="&#x2093;" horiz-adv-x="402" 
d="M136 -165h-127l109 160l-99 145h133l55 -103l49 103h126l-97 -145l109 -160h-134l-61 110z" />
    <glyph glyph-name="x.inferior" unicode="&#xe167;" horiz-adv-x="402" 
d="M136 -165h-127l109 160l-99 145h133l55 -103l49 103h126l-97 -145l109 -160h-134l-61 110z" />
    <glyph glyph-name="schwa.inferior" unicode="&#x2094;" horiz-adv-x="383" 
d="M241 -41h-108q0 -32 10 -49.5t39 -17.5q53 0 59 67zM25 -14v28h215q-2 31 -28.5 47.5t-67.5 16.5q-54 0 -98 -18l-4 68q57 18 119 18q200 0 200 -161q0 -73 -50.5 -115t-127.5 -42q-84 0 -121 40.5t-37 117.5z" />
    <glyph glyph-name="Euro" unicode="&#x20ac;" horiz-adv-x="620" 
d="M121 233h-89l17 67h63q-1 5 -1 17v17v16q0 11 1 16h-79l17 67h72q28 112 116.5 178t204.5 66q77 0 152 -23l-32 -130q-42 16 -86 16q-53 0 -93 -29t-61 -78h221l-17 -67h-224q-2 -22 -2 -32q0 -12 2 -34h211l-17 -67h-175q44 -104 152 -104q45 0 90 17l6 -138
q-49 -19 -127 -19q-123 0 -209.5 63.5t-112.5 180.5z" />
    <glyph glyph-name="afii61289" unicode="&#x2113;" horiz-adv-x="500" 
d="M263 550v-161q73 77 73 170q0 27 -9.5 45t-26.5 18q-16 0 -26.5 -20t-10.5 -52zM60 120h-2l-53 81l108 86v235q0 85 53.5 142t134.5 57q72 0 114.5 -42t42.5 -111q0 -77 -47 -149.5t-148 -154.5v-104q0 -33 17 -49t42 -16q39 0 88 37h2l50 -77q-82 -69 -178 -69
q-80 0 -125 42.5t-45 107.5v30z" />
    <glyph glyph-name="trademark" unicode="&#x2122;" horiz-adv-x="1072" 
d="M584 267h-114v400h195l87 -270l83 270h195v-400h-120v328l-106 -328h-112l-108 328v-328zM280 267h-132v307h-142v93h416v-93h-142v-307z" />
    <glyph glyph-name="Omega" unicode="&#x2126;" horiz-adv-x="750" 
d="M339 0h-291v123h180v33q-85 21 -132.5 92.5t-47.5 162.5q0 139 95.5 219.5t234.5 80.5q135 0 230 -81.5t95 -217.5q0 -90 -48 -164.5t-132 -91.5v-33h179v-123h-291v210q69 8 106 61.5t37 126.5q0 79 -48.5 133.5t-127.5 54.5q-80 0 -130.5 -55.5t-50.5 -136.5
q0 -72 37.5 -124t104.5 -60v-210z" />
    <glyph glyph-name="estimated" unicode="&#x212e;" horiz-adv-x="600" 
d="M157 440v-145h291v145q-63 60 -147 60t-144 -60zM157 259v-181q59 -59 145 -59q63 0 109 28.5t84 91.5l35 -21q-46 -73 -98 -104t-130 -31q-115 0 -186.5 79t-71.5 197q0 119 71 197.5t187 78.5q115 0 187 -77t72 -199h-404z" />
    <glyph glyph-name="partialdiff" unicode="&#x2202;" horiz-adv-x="620" 
d="M167 565l-71 80q83 76 185 76q60 0 107.5 -21.5t77.5 -56.5t49 -83t27 -97.5t8 -103.5t-6 -102.5t-23.5 -99.5t-44.5 -87.5t-73 -60t-105 -23.5q-103 0 -166.5 65.5t-63.5 169.5q0 95 61 159.5t156 64.5q71 0 134 -50q0 33 -4 60q-7 66 -38.5 116.5t-89.5 50.5
q-63 0 -120 -57zM220 124q29 -42 79 -42q35 0 60 22.5t36.5 58t16.5 68.5t5 65q-50 52 -110 52q-54 0 -83 -40t-29 -95q0 -50 25 -89z" />
    <glyph glyph-name="Delta" unicode="&#x2206;" horiz-adv-x="750" 
d="M716 0h-682l257 701h151zM368 554l-151 -428h311z" />
    <glyph glyph-name="product" unicode="&#x220f;" horiz-adv-x="750" 
d="M193 -200h-132v1000h629v-1000h-131v870h-366v-870z" />
    <glyph glyph-name="summation" unicode="&#x2211;" horiz-adv-x="750" 
d="M694 -200h-634v115l283 393l-270 377v115h608v-130h-434l252 -362l-269 -377h464v-131z" />
    <glyph glyph-name="minus" unicode="&#x2212;" horiz-adv-x="620" 
d="M577 200h-534v131h534v-131z" />
    <glyph glyph-name="uni2215" unicode="&#x2215;" horiz-adv-x="196" 
d="M-65 -24h-97l423 715h98z" />
    <glyph glyph-name="uni2219" unicode="&#x2219;" horiz-adv-x="310" 
d="M239 239h-167v142h167v-142z" />
    <glyph glyph-name="radical" unicode="&#x221a;" horiz-adv-x="620" 
d="M388 -200h-120l-145 302l-54 -25l-49 100l172 80l116 -258l157 801h136z" />
    <glyph glyph-name="infinity" unicode="&#x221e;" horiz-adv-x="940" 
d="M509 134q-26 30 -38 46q-42 -56 -84 -85.5t-101 -29.5q-88 0 -141 57t-53 146q0 88 51.5 143.5t137.5 55.5q61 0 103.5 -31t85.5 -91q30 41 51 63.5t57 40.5t80 18q88 0 140 -55.5t52 -143.5t-51.5 -146t-138.5 -58q-84 0 -151 70zM561 291q-9 -10 -23 -28
q61 -84 121 -84q37 0 58.5 25t21.5 62q0 36 -23 60.5t-59 24.5q-46 0 -96 -60zM224 205q22 -24 59 -24q25 0 49.5 15.5t37.5 29.5t33 40q-63 87 -121 87q-35 0 -57 -25.5t-22 -61.5t21 -61z" />
    <glyph glyph-name="integral" unicode="&#x222b;" horiz-adv-x="620" 
d="M121 -214l6 111q18 -8 49 -8q33 0 49 23.5t16 52.5v636q0 91 37 137.5t120 46.5q68 0 103 -13l-6 -111q-18 8 -49 8q-33 0 -48.5 -23t-15.5 -53v-636q0 -92 -37 -138t-121 -46q-65 0 -103 13z" />
    <glyph glyph-name="approxequal" unicode="&#x2248;" horiz-adv-x="620" 
d="M119 283h-86q3 73 42 134.5t107 61.5q44 0 132 -31t129 -31q50 0 58 59h87q-3 -45 -18.5 -87.5t-50.5 -75t-81 -32.5q-44 0 -132.5 31.5t-127.5 31.5q-25 0 -41 -17.5t-18 -43.5zM119 55h-86q3 73 42 134.5t107 61.5q44 0 132 -31.5t129 -31.5q50 0 58 59h87
q-3 -45 -18.5 -87.5t-50.5 -75t-81 -32.5q-44 0 -132.5 32t-127.5 32q-25 0 -41 -17.5t-18 -43.5z" />
    <glyph glyph-name="notequal" unicode="&#x2260;" horiz-adv-x="620" 
d="M213 -73l-116 57l51 100h-105v132h170l50 98h-220v132h285l80 157l114 -57l-51 -100h106v-132h-171l-50 -98h221v-132h-286z" />
    <glyph glyph-name="lessequal" unicode="&#x2264;" horiz-adv-x="620" 
d="M577 113l-534 171v132l534 159v-135l-350 -90l350 -101v-136zM577 -47h-534v132h534v-132z" />
    <glyph glyph-name="greaterequal" unicode="&#x2265;" horiz-adv-x="620" 
d="M577 284l-534 -171v136l351 101l-351 90v135l534 -159v-132zM577 -47h-534v132h534v-132z" />
    <glyph glyph-name="lozenge" unicode="&#x25ca;" horiz-adv-x="620" 
d="M370 0h-121l-188 400l189 400h120l189 -400zM196 400l114 -266l113 266l-113 265z" />
    <glyph glyph-name="exclam.sc" unicode="&#xe000;" horiz-adv-x="310" 
d="M236 0h-162v133h162v-133zM222 199h-134l-23 336h180z" />
    <glyph glyph-name="dollar.sc" unicode="&#xe001;" horiz-adv-x="526" 
d="M304 -86h-95v77q-84 3 -168 24l5 121q84 -35 186 -35q76 0 76 46q0 20 -19 35t-67 31l-57 19q-63 22 -95 56.5t-32 91.5q0 71 51 109.5t130 49.5v80h95v-74q65 -3 145 -20l-4 -119q-84 28 -156 28q-81 0 -81 -45q0 -18 17 -30t57 -25l62 -21q71 -23 102.5 -55t31.5 -95
q0 -76 -52 -117t-132 -52v-80z" />
    <glyph glyph-name="percent.sc" unicode="&#xe002;" horiz-adv-x="900" 
d="M324 -19h-88l340 572h87zM644 80q8 -26 34 -26q24 0 33 25t9 75q0 52 -9.5 75.5t-32.5 23.5t-32.5 -23.5t-9.5 -75.5q0 -45 8 -74zM605 2q-85 36 -85 152q0 73 39.5 119.5t118.5 46.5q80 0 118.5 -46.5t38.5 -119.5t-39 -119t-118 -46q-44 0 -73 13zM190 305
q8 -26 34 -26q24 0 33 25t9 75q0 53 -9.5 76t-32.5 23t-32.5 -23.5t-9.5 -75.5q0 -45 8 -74zM151 227q-85 36 -85 152q0 73 39.5 119.5t118.5 46.5q80 0 118.5 -46.5t38.5 -119.5t-39 -119t-118 -46q-44 0 -73 13z" />
    <glyph glyph-name="ampersand.sc" unicode="&#xe003;" horiz-adv-x="631" 
d="M375 225h-66q-105 0 -105 -69q0 -65 105 -65q26 0 66 8v126zM529 225v-209q-131 -27 -221 -27q-129 0 -202.5 39t-73.5 120q0 49 33 81.5t86 41.5q-100 31 -100 116q0 74 69.5 116t189.5 42q95 0 171 -19l-4 -109q-72 25 -167 25q-94 0 -94 -60q0 -66 94 -66h65v48h154
v-48h86v-91h-86z" />
    <glyph glyph-name="question.sc" unicode="&#xe004;" horiz-adv-x="443" 
d="M276 0h-162v133h162v-133zM268 199h-147q0 45 15 70t60 55q42 31 42 63q0 43 -74 43q-55 0 -121 -25l-5 115q88 25 166 25q94 0 150.5 -36t56.5 -99q0 -43 -19 -70.5t-57 -51.5q-38 -25 -52.5 -43t-14.5 -46z" />
    <glyph glyph-name="a.sc" unicode="&#xe005;" horiz-adv-x="626" 
d="M308 433l-68 -201h136zM170 0h-171l198 535h229l201 -535h-181l-41 122h-194z" />
    <glyph glyph-name="b.sc" unicode="&#xe006;" horiz-adv-x="579" 
d="M228 439v-124h45q85 0 85 64q0 31 -22.5 45.5t-54.5 14.5h-53zM228 228v-132h57q34 0 58 16t24 49q0 22 -9 36t-25.5 20.5t-32 8.5t-37.5 2h-35zM294 0h-235v535h242q35 0 61.5 -1.5t61.5 -9.5t57.5 -21.5t38.5 -39.5t16 -62q0 -49 -28.5 -81.5t-77.5 -44.5
q53 -12 85 -44t32 -81q0 -35 -10 -61.5t-31 -42t-42.5 -25.5t-54.5 -14.5t-56.5 -5.5t-58.5 -1z" />
    <glyph glyph-name="c.sc" unicode="&#xe007;" horiz-adv-x="520" 
d="M491 136l6 -124q-73 -23 -151 -23q-141 0 -228 72t-87 206q0 126 91.5 202t223.5 76q63 0 148 -19l-5 -126q-61 22 -113 22q-73 0 -116.5 -42t-43.5 -113q0 -74 41.5 -114.5t114.5 -40.5q53 0 119 24z" />
    <glyph glyph-name="d.sc" unicode="&#xe008;" horiz-adv-x="625" 
d="M235 425v-316h39q70 0 102.5 38.5t32.5 118.5q0 70 -30 114.5t-95 44.5h-49zM289 0h-230v535h217q73 0 127.5 -12.5t99 -42t68 -83t23.5 -131.5q0 -137 -82 -201.5t-223 -64.5z" />
    <glyph glyph-name="e.sc" unicode="&#xe009;" horiz-adv-x="524" 
d="M488 0h-429v535h423v-111h-251v-99h241v-110h-241v-105h257v-110z" />
    <glyph glyph-name="f.sc" unicode="&#xe00a;" horiz-adv-x="505" 
d="M235 0h-176v535h416v-111h-240v-123h231v-109h-231v-192z" />
    <glyph glyph-name="g.sc" unicode="&#xe00b;" horiz-adv-x="603" 
d="M416 205h-80v101h222v-283q-106 -34 -207 -34q-141 0 -230.5 72t-89.5 205q0 128 97 203.5t238 75.5q100 0 181 -23l-5 -129q-65 31 -144 31q-81 0 -132 -40.5t-51 -117.5q0 -73 37.5 -115.5t104.5 -42.5q31 0 59 6v91z" />
    <glyph glyph-name="h.sc" unicode="&#xe00c;" horiz-adv-x="635" 
d="M235 0h-176v535h176v-196h165v196h176v-535h-176v207h-165v-207z" />
    <glyph glyph-name="i.sc" unicode="&#xe00d;" 
d="M235 0h-176v535h176v-535z" />
    <glyph glyph-name="j.sc" unicode="&#xe00e;" horiz-adv-x="363" 
d="M7 6l4 123q29 -12 54 -12q68 0 68 78v340h176v-375q0 -82 -49.5 -126.5t-135.5 -44.5q-54 0 -117 17z" />
    <glyph glyph-name="k.sc" unicode="&#xe00f;" horiz-adv-x="610" 
d="M235 0h-176v535h176v-225l159 225h196l-196 -250l212 -285h-204l-167 245v-245z" />
    <glyph glyph-name="l.sc" unicode="&#xe010;" horiz-adv-x="497" 
d="M479 0h-420v535h176v-404h244v-131z" />
    <glyph glyph-name="m.sc" unicode="&#xe011;" horiz-adv-x="826" 
d="M213 0h-154v535h255l101 -364l99 364h253v-535h-160v417l-122 -417h-150l-122 418v-418z" />
    <glyph glyph-name="n.sc" unicode="&#xe012;" horiz-adv-x="667" 
d="M213 0h-154v535h252l143 -396v396h154v-535h-252l-143 398v-398z" />
    <glyph glyph-name="o.sc" unicode="&#xe013;" horiz-adv-x="639" 
d="M238 154q28 -50 81 -50q104 0 104 163t-104 163q-55 0 -79 -46t-24 -117q0 -70 22 -113zM106 61q-75 72 -75 206q0 131 76.5 204.5t211.5 73.5q138 0 213.5 -72t75.5 -206q0 -132 -76.5 -205t-212.5 -73q-137 0 -213 72z" />
    <glyph glyph-name="p.sc" unicode="&#xe014;" horiz-adv-x="574" 
d="M231 428v-160h41q101 0 101 83q0 37 -23.5 57t-59.5 20h-59zM231 0h-172v535h298q86 0 141.5 -50.5t55.5 -134.5q0 -89 -54 -138.5t-145 -49.5h-124v-162z" />
    <glyph glyph-name="q.sc" unicode="&#xe015;" horiz-adv-x="639" 
d="M238 154q28 -50 81 -50q104 0 104 163t-104 163q-55 0 -79 -46t-24 -117q0 -70 22 -113zM332 -11h-13q-138 0 -213 72t-75 206q0 131 76.5 204.5t211.5 73.5q138 0 213.5 -72t75.5 -206q0 -161 -120 -235l119 -134h-196z" />
    <glyph glyph-name="r.sc" unicode="&#xe016;" horiz-adv-x="587" 
d="M231 428v-123h45q90 0 90 64q0 59 -89 59h-46zM231 0h-172v535h235q127 0 189.5 -33.5t62.5 -111.5q0 -52 -32.5 -86t-86.5 -47q42 -10 61 -34t33 -69l48 -154h-186l-39 135q-11 36 -25.5 50t-49.5 14h-38v-199z" />
    <glyph glyph-name="s.sc" unicode="&#xe017;" horiz-adv-x="509" 
d="M33 15l5 121q84 -35 186 -35q76 0 76 46q0 20 -19 35t-67 31l-57 19q-63 22 -95 56.5t-32 91.5q0 47 24 81t64 51.5t81.5 25t87.5 7.5q76 0 164 -20l-4 -119q-84 28 -156 28q-81 0 -81 -45q0 -18 17 -30t57 -25l62 -21q71 -23 102.5 -55t31.5 -95q0 -62 -38 -102.5
t-90 -55.5t-115 -15q-105 0 -204 25z" />
    <glyph glyph-name="t.sc" unicode="&#xe018;" horiz-adv-x="551" 
d="M363 0h-176v404h-176v131h529v-131h-177v-404z" />
    <glyph glyph-name="u.sc" unicode="&#xe019;" horiz-adv-x="622" 
d="M230 535v-321q0 -45 19.5 -74t61.5 -29t61.5 28t19.5 74v322h176v-324q0 -107 -73.5 -164.5t-185.5 -57.5q-115 0 -185 53.5t-70 161.5v331h176z" />
    <glyph glyph-name="v.sc" unicode="&#xe01a;" horiz-adv-x="588" 
d="M392 0h-201l-197 535h187l116 -374l118 374h179z" />
    <glyph glyph-name="w.sc" unicode="&#xe01b;" horiz-adv-x="859" 
d="M334 0h-189l-140 535h167l80 -379l97 379h171l94 -380l82 380h159l-138 -535h-189l-99 385z" />
    <glyph glyph-name="x.sc" unicode="&#xe01c;" horiz-adv-x="614" 
d="M185 0h-187l205 277l-184 258h198l102 -166l98 166h183l-190 -260l205 -275h-204l-113 180h-1z" />
    <glyph glyph-name="y.sc" unicode="&#xe01d;" horiz-adv-x="553" 
d="M363 0h-176v182l-199 353h190l104 -232l102 232h182l-203 -353v-182z" />
    <glyph glyph-name="z.sc" unicode="&#xe01e;" horiz-adv-x="517" 
d="M493 0h-468v128l272 290h-263v117h451v-130l-266 -288h274v-117z" />
    <glyph glyph-name="agrave.sc" unicode="&#xe01f;" horiz-adv-x="626" 
d="M308 433l-68 -201h136zM170 0h-171l198 535h229l201 -535h-181l-41 122h-194zM382 603h-127l-123 136h177z" />
    <glyph glyph-name="aacute.sc" unicode="&#xe020;" horiz-adv-x="626" 
d="M308 433l-68 -201h136zM170 0h-171l198 535h229l201 -535h-181l-41 122h-194zM355 603h-127l73 136h177z" />
    <glyph glyph-name="acircumflex.sc" unicode="&#xe021;" horiz-adv-x="626" 
d="M308 433l-68 -201h136zM170 0h-171l198 535h229l201 -535h-181l-41 122h-194zM244 603h-114l103 136h148l103 -136h-114l-63 78z" />
    <glyph glyph-name="atilde.sc" unicode="&#xe022;" horiz-adv-x="626" 
d="M308 433l-68 -201h136zM170 0h-171l198 535h229l201 -535h-181l-41 122h-194zM195 603h-76q4 53 31 92.5t77 39.5q31 0 81 -18.5t70 -18.5q35 0 42 39h76q-2 -52 -33 -92.5t-81 -40.5q-31 0 -77.5 18.5t-67.5 18.5q-16 0 -28.5 -11t-13.5 -27z" />
    <glyph glyph-name="adieresis.sc" unicode="&#xe023;" horiz-adv-x="626" 
d="M308 433l-68 -201h136zM170 0h-171l198 535h229l201 -535h-181l-41 122h-194zM266 607h-137v127h137v-127zM485 607h-136v127h136v-127z" />
    <glyph glyph-name="aring.sc" unicode="&#xe024;" horiz-adv-x="626" 
d="M308 433l-68 -201h136zM170 0h-171l198 535h229l201 -535h-181l-41 122h-194zM258 671q0 -21 15 -35.5t35 -14.5q21 0 35.5 14.5t14.5 35.5q0 20 -14.5 34.5t-35.5 14.5t-35.5 -14.5t-14.5 -34.5zM267 574q-29 12 -46.5 38t-17.5 59q0 44 30.5 74t74.5 30t74.5 -30
t30.5 -74t-30.5 -74.5t-74.5 -30.5q-20 0 -41 8z" />
    <glyph glyph-name="amacron.sc" unicode="&#xe025;" horiz-adv-x="626" 
d="M481 629h-346v84h346v-84zM308 433l-68 -201h136zM170 0h-171l198 535h229l201 -535h-181l-41 122h-194z" />
    <glyph glyph-name="abreve.sc" unicode="&#xe026;" horiz-adv-x="626" 
d="M308 433l-68 -201h136zM170 0h-171l198 535h229l201 -535h-181l-41 122h-194zM143 742h85q1 -25 22 -43t58 -18t57.5 17.5t22.5 43.5h84q0 -60 -46.5 -101.5t-117.5 -41.5q-73 0 -119 41t-46 102z" />
    <glyph glyph-name="aogonek.sc" unicode="&#xe027;" horiz-adv-x="626" 
d="M308 433l-68 -201h136zM170 0h-171l198 535h229l201 -535h-79q-46 -37 -61 -59t-15 -43q0 -18 13.5 -28.5t35.5 -10.5t64 17l15 -54q-48 -23 -105 -23q-53 0 -83 21.5t-30 60.5q0 64 101 119h-37l-41 122h-194z" />
    <glyph glyph-name="ae.sc" unicode="&#xe028;" horiz-adv-x="847" 
d="M404 436l-117 -203h117v203zM165 0h-175l320 535h495v-111h-236v-99h226v-110h-226v-105h242v-110h-407v123h-167z" />
    <glyph glyph-name="cacute.sc" unicode="&#xe029;" horiz-adv-x="520" 
d="M491 136l6 -124q-73 -23 -151 -23q-141 0 -228 72t-87 206q0 126 91.5 202t223.5 76q63 0 148 -19l-5 -126q-61 22 -113 22q-73 0 -116.5 -42t-43.5 -113q0 -74 41.5 -114.5t114.5 -40.5q53 0 119 24zM371 603h-127l73 136h177z" />
    <glyph glyph-name="ccircumflex.sc" unicode="&#xe02a;" horiz-adv-x="520" 
d="M491 136l6 -124q-73 -23 -151 -23q-141 0 -228 72t-87 206q0 126 91.5 202t223.5 76q63 0 148 -19l-5 -126q-61 22 -113 22q-73 0 -116.5 -42t-43.5 -113q0 -74 41.5 -114.5t114.5 -40.5q53 0 119 24zM249 603h-114l103 136h148l103 -136h-114l-63 78z" />
    <glyph glyph-name="ccaron.sc" unicode="&#xe02b;" horiz-adv-x="520" 
d="M491 136l6 -124q-73 -23 -151 -23q-141 0 -228 72t-87 206q0 126 91.5 202t223.5 76q63 0 148 -19l-5 -126q-61 22 -113 22q-73 0 -116.5 -42t-43.5 -113q0 -74 41.5 -114.5t114.5 -40.5q53 0 119 24zM395 603h-147l-103 136h114l63 -79l63 79h113z" />
    <glyph glyph-name="cdotaccent.sc" unicode="&#xe02c;" horiz-adv-x="520" 
d="M491 136l6 -124q-73 -23 -151 -23q-141 0 -228 72t-87 206q0 126 91.5 202t223.5 76q63 0 148 -19l-5 -126q-61 22 -113 22q-73 0 -116.5 -42t-43.5 -113q0 -74 41.5 -114.5t114.5 -40.5q53 0 119 24zM395 607h-147v127h147v-127z" />
    <glyph glyph-name="ccedilla.sc" unicode="&#xe02d;" horiz-adv-x="520" 
d="M189 -182l20 52q49 -16 86 -16q49 0 49 27q0 12 -12.5 19.5t-27.5 7.5q-22 0 -41 -5l-25 29l41 62q-114 16 -181 86t-67 187q0 126 91.5 202t223.5 76q63 0 148 -19l-5 -126q-61 22 -113 22q-73 0 -116.5 -42t-43.5 -113q0 -74 41.5 -114.5t114.5 -40.5q53 0 119 24
l6 -124q-73 -23 -152 -23l-25 -39q33 3 41 3q34 0 55 -18t21 -50q0 -39 -34 -62.5t-94 -23.5q-66 0 -120 19z" />
    <glyph glyph-name="dcaron.sc" unicode="&#xe02e;" horiz-adv-x="625" 
d="M235 425v-316h39q70 0 102.5 38.5t32.5 118.5q0 70 -30 114.5t-95 44.5h-49zM289 0h-230v535h217q73 0 127.5 -12.5t99 -42t68 -83t23.5 -131.5q0 -137 -82 -201.5t-223 -64.5zM359 603h-147l-103 136h114l63 -79l63 79h113z" />
    <glyph glyph-name="dcroat.sc" unicode="&#xe02f;" horiz-adv-x="625" 
d="M234 227v-118h40q70 0 103 38.5t33 118.5q0 70 -30.5 114.5t-95.5 44.5h-50v-113h92v-85h-92zM289 0h-229v227h-59v85h59v223h216q73 0 127.5 -12.5t99 -42t68 -83t23.5 -131.5q0 -137 -82 -201.5t-223 -64.5z" />
    <glyph glyph-name="eth.sc" unicode="&#xe030;" horiz-adv-x="625" 
d="M234 227v-118h40q70 0 103 38.5t33 118.5q0 70 -30.5 114.5t-95.5 44.5h-50v-113h92v-85h-92zM289 0h-229v227h-59v85h59v223h216q73 0 127.5 -12.5t99 -42t68 -83t23.5 -131.5q0 -137 -82 -201.5t-223 -64.5z" />
    <glyph glyph-name="egrave.sc" unicode="&#xe031;" horiz-adv-x="524" 
d="M488 0h-429v535h423v-111h-251v-99h241v-110h-241v-105h257v-110zM351 603h-127l-123 136h177z" />
    <glyph glyph-name="eacute.sc" unicode="&#xe032;" horiz-adv-x="524" 
d="M488 0h-429v535h423v-111h-251v-99h241v-110h-241v-105h257v-110zM321 603h-127l73 136h177z" />
    <glyph glyph-name="ecircumflex.sc" unicode="&#xe033;" horiz-adv-x="524" 
d="M488 0h-429v535h423v-111h-251v-99h241v-110h-241v-105h257v-110zM208 603h-114l103 136h148l103 -136h-114l-63 78z" />
    <glyph glyph-name="ecaron.sc" unicode="&#xe034;" horiz-adv-x="524" 
d="M488 0h-429v535h423v-111h-251v-99h241v-110h-241v-105h257v-110zM345 603h-147l-103 136h114l63 -79l63 79h113z" />
    <glyph glyph-name="edieresis.sc" unicode="&#xe035;" horiz-adv-x="524" 
d="M488 0h-429v535h423v-111h-251v-99h241v-110h-241v-105h257v-110zM230 607h-137v127h137v-127zM449 607h-136v127h136v-127z" />
    <glyph glyph-name="edotaccent.sc" unicode="&#xe036;" horiz-adv-x="524" 
d="M488 0h-429v535h423v-111h-251v-99h241v-110h-241v-105h257v-110zM345 607h-147v127h147v-127z" />
    <glyph glyph-name="emacron.sc" unicode="&#xe037;" horiz-adv-x="524" 
d="M488 0h-429v535h423v-111h-251v-99h241v-110h-241v-105h257v-110zM445 629h-346v84h346v-84z" />
    <glyph glyph-name="ebreve.sc" unicode="&#xe038;" horiz-adv-x="524" 
d="M488 0h-429v535h423v-111h-251v-99h241v-110h-241v-105h257v-110zM107 742h85q1 -25 22 -43t58 -18t57.5 17.5t22.5 43.5h84q0 -60 -46.5 -101.5t-117.5 -41.5q-73 0 -119 41t-46 102z" />
    <glyph glyph-name="eogonek.sc" unicode="&#xe039;" horiz-adv-x="524" 
d="M360 0h-301v535h423v-111h-251v-99h241v-110h-241v-105h257v-110h-63q-46 -37 -61 -59t-15 -43q0 -18 13.5 -28.5t35.5 -10.5t64 17l15 -54q-48 -23 -105 -23q-53 0 -83 21.5t-30 60.5q0 64 101 119z" />
    <glyph glyph-name="gcircumflex.sc" unicode="&#xe03a;" horiz-adv-x="603" 
d="M416 205h-80v101h222v-283q-106 -34 -207 -34q-141 0 -230.5 72t-89.5 205q0 128 97 203.5t238 75.5q100 0 181 -23l-5 -129q-65 31 -144 31q-81 0 -132 -40.5t-51 -117.5q0 -73 37.5 -115.5t104.5 -42.5q31 0 59 6v91zM273 603h-114l103 136h148l103 -136h-114l-63 78z
" />
    <glyph glyph-name="gdotaccent.sc" unicode="&#xe03b;" horiz-adv-x="603" 
d="M416 205h-80v101h222v-283q-106 -34 -207 -34q-141 0 -230.5 72t-89.5 205q0 128 97 203.5t238 75.5q100 0 181 -23l-5 -129q-65 31 -144 31q-81 0 -132 -40.5t-51 -117.5q0 -73 37.5 -115.5t104.5 -42.5q31 0 59 6v91zM410 607h-147v127h147v-127z" />
    <glyph glyph-name="gbreve.sc" unicode="&#xe03c;" horiz-adv-x="603" 
d="M416 205h-80v101h222v-283q-106 -34 -207 -34q-141 0 -230.5 72t-89.5 205q0 128 97 203.5t238 75.5q100 0 181 -23l-5 -129q-65 31 -144 31q-81 0 -132 -40.5t-51 -117.5q0 -73 37.5 -115.5t104.5 -42.5q31 0 59 6v91zM172 742h85q1 -25 22 -43t58 -18t57.5 17.5
t22.5 43.5h84q0 -60 -46.5 -101.5t-117.5 -41.5q-73 0 -119 41t-46 102z" />
    <glyph glyph-name="gcommaaccent.sc" unicode="&#xe03d;" horiz-adv-x="603" 
d="M416 205h-80v101h222v-283q-106 -34 -207 -34q-141 0 -230.5 72t-89.5 205q0 128 97 203.5t238 75.5q100 0 181 -23l-5 -129q-65 31 -144 31q-81 0 -132 -40.5t-51 -117.5q0 -73 37.5 -115.5t104.5 -42.5q31 0 59 6v91zM334 -227h-108l43 159h156z" />
    <glyph glyph-name="hcircumflex.sc" unicode="&#xe03e;" horiz-adv-x="635" 
d="M235 0h-176v535h176v-196h165v196h176v-535h-176v207h-165v-207zM255 603h-114l103 136h148l103 -136h-114l-63 78z" />
    <glyph glyph-name="hbar.sc" unicode="&#xe03f;" horiz-adv-x="635" 
d="M235 377v-84h165v84h-165zM235 0h-176v535h176v-77h165v77h176v-535h-176v169h-165v-169z" />
    <glyph glyph-name="igrave.sc" unicode="&#xe040;" 
d="M224 603h-127l-123 136h177zM235 0h-176v535h176v-535z" />
    <glyph glyph-name="iacute.sc" unicode="&#xe041;" 
d="M193 603h-127l73 136h177zM235 0h-176v535h176v-535z" />
    <glyph glyph-name="icircumflex.sc" unicode="&#xe042;" 
d="M84 603h-114l103 136h148l103 -136h-114l-63 78zM235 0h-176v535h176v-535z" />
    <glyph glyph-name="itilde.sc" unicode="&#xe043;" 
d="M35 603h-76q4 53 31 92.5t77 39.5q31 0 81 -18.5t70 -18.5q35 0 42 39h76q-2 -52 -33 -92.5t-81 -40.5q-31 0 -77.5 18.5t-67.5 18.5q-16 0 -28.5 -11t-13.5 -27zM235 0h-176v535h176v-535z" />
    <glyph glyph-name="idieresis.sc" unicode="&#xe044;" 
d="M106 607h-137v127h137v-127zM325 607h-136v127h136v-127zM235 0h-176v535h176v-535z" />
    <glyph glyph-name="imacron.sc" unicode="&#xe045;" 
d="M321 629h-346v84h346v-84zM235 0h-176v535h176v-535z" />
    <glyph glyph-name="idotaccent.sc" unicode="&#xe046;" 
d="M235 0h-176v535h176v-535zM221 607h-147v127h147v-127z" />
    <glyph glyph-name="iogonek.sc" unicode="&#xe047;" 
d="M146 0h-87v535h176v-535h-24q-46 -37 -61 -59t-15 -43q0 -18 13.5 -28.5t35.5 -10.5t64 17l15 -54q-48 -23 -105 -23q-53 0 -83 21.5t-30 60.5q0 64 101 119z" />
    <glyph glyph-name="jcircumflex.sc" unicode="&#xe048;" horiz-adv-x="363" 
d="M150 603h-114l103 136h148l103 -136h-114l-63 78zM7 6l4 123q29 -12 54 -12q68 0 68 78v340h176v-375q0 -82 -49.5 -126.5t-135.5 -44.5q-54 0 -117 17z" />
    <glyph glyph-name="kcommaaccent.sc" unicode="&#xe049;" horiz-adv-x="610" 
d="M235 0h-176v535h176v-225l159 225h196l-196 -250l212 -285h-204l-167 245v-245zM314 -227h-108l43 159h156z" />
    <glyph glyph-name="lacute.sc" unicode="&#xe04a;" horiz-adv-x="497" 
d="M479 0h-420v535h176v-404h244v-131zM210 603h-127l73 136h177z" />
    <glyph glyph-name="lcaron.sc" unicode="&#xe04b;" horiz-adv-x="497" 
d="M479 0h-420v535h176v-404h244v-131zM396 429h-98l19 166h129z" />
    <glyph glyph-name="lcommaaccent.sc" unicode="&#xe04c;" horiz-adv-x="497" 
d="M479 0h-420v535h176v-404h244v-131zM259 -227h-108l43 159h156z" />
    <glyph glyph-name="ldot.sc" unicode="&#xe04d;" horiz-adv-x="497" 
d="M479 0h-420v535h176v-404h244v-131zM467 253h-147v127h147v-127z" />
    <glyph glyph-name="lslash.sc" unicode="&#xe04e;" horiz-adv-x="497" 
d="M479 0h-420v204l-61 -37v89l61 38v241h176v-158l121 73v-91l-121 -72v-156h244v-131z" />
    <glyph glyph-name="nacute.sc" unicode="&#xe04f;" horiz-adv-x="667" 
d="M213 0h-154v535h252l143 -396v396h154v-535h-252l-143 398v-398zM389 603h-127l73 136h177z" />
    <glyph glyph-name="ncaron.sc" unicode="&#xe050;" horiz-adv-x="667" 
d="M213 0h-154v535h252l143 -396v396h154v-535h-252l-143 398v-398zM413 603h-147l-103 136h114l63 -79l63 79h113z" />
    <glyph glyph-name="ntilde.sc" unicode="&#xe051;" horiz-adv-x="667" 
d="M213 0h-154v535h252l143 -396v396h154v-535h-252l-143 398v-398zM226 603h-76q4 53 31 92.5t77 39.5q32 0 82 -18.5t69 -18.5q35 0 42 39h76q-2 -52 -33 -92.5t-81 -40.5q-31 0 -77.5 18.5t-67.5 18.5q-16 0 -28.5 -11t-13.5 -27z" />
    <glyph glyph-name="ncommaaccent.sc" unicode="&#xe052;" horiz-adv-x="667" 
d="M213 0h-154v535h252l143 -396v396h154v-535h-252l-143 398v-398zM345 -227h-108l43 159h156z" />
    <glyph glyph-name="ograve.sc" unicode="&#xe054;" horiz-adv-x="639" 
d="M238 154q28 -50 81 -50q104 0 104 163t-104 163q-55 0 -79 -46t-24 -117q0 -70 22 -113zM106 61q-75 72 -75 206q0 131 76.5 204.5t211.5 73.5q138 0 213.5 -72t75.5 -206q0 -132 -76.5 -205t-212.5 -73q-137 0 -213 72zM387 603h-127l-123 136h177z" />
    <glyph glyph-name="oacute.sc" unicode="&#xe055;" horiz-adv-x="639" 
d="M238 154q28 -50 81 -50q104 0 104 163t-104 163q-55 0 -79 -46t-24 -117q0 -70 22 -113zM106 61q-75 72 -75 206q0 131 76.5 204.5t211.5 73.5q138 0 213.5 -72t75.5 -206q0 -132 -76.5 -205t-212.5 -73q-137 0 -213 72zM359 603h-127l73 136h177z" />
    <glyph glyph-name="ocircumflex.sc" unicode="&#xe056;" horiz-adv-x="639" 
d="M238 154q28 -50 81 -50q104 0 104 163t-104 163q-55 0 -79 -46t-24 -117q0 -70 22 -113zM106 61q-75 72 -75 206q0 131 76.5 204.5t211.5 73.5q138 0 213.5 -72t75.5 -206q0 -132 -76.5 -205t-212.5 -73q-137 0 -213 72zM255 603h-114l103 136h148l103 -136h-114l-63 78z
" />
    <glyph glyph-name="otilde.sc" unicode="&#xe057;" horiz-adv-x="639" 
d="M238 154q28 -50 81 -50q104 0 104 163t-104 163q-55 0 -79 -46t-24 -117q0 -70 22 -113zM106 61q-75 72 -75 206q0 131 76.5 204.5t211.5 73.5q138 0 213.5 -72t75.5 -206q0 -132 -76.5 -205t-212.5 -73q-137 0 -213 72zM206 603h-76q4 53 31 92.5t77 39.5q32 0 82 -18.5
t69 -18.5q35 0 42 39h76q-2 -52 -33 -92.5t-81 -40.5q-31 0 -77.5 18.5t-67.5 18.5q-16 0 -28.5 -11t-13.5 -27z" />
    <glyph glyph-name="odieresis.sc" unicode="&#xe058;" horiz-adv-x="639" 
d="M238 154q28 -50 81 -50q104 0 104 163t-104 163q-55 0 -79 -46t-24 -117q0 -70 22 -113zM106 61q-75 72 -75 206q0 131 76.5 204.5t211.5 73.5q138 0 213.5 -72t75.5 -206q0 -132 -76.5 -205t-212.5 -73q-137 0 -213 72zM278 607h-137v127h137v-127zM497 607h-136v127
h136v-127z" />
    <glyph glyph-name="omacron.sc" unicode="&#xe059;" horiz-adv-x="639" 
d="M238 154q28 -50 81 -50q104 0 104 163t-104 163q-55 0 -79 -46t-24 -117q0 -70 22 -113zM106 61q-75 72 -75 206q0 131 76.5 204.5t211.5 73.5q138 0 213.5 -72t75.5 -206q0 -132 -76.5 -205t-212.5 -73q-137 0 -213 72zM493 629h-346v84h346v-84z" />
    <glyph glyph-name="obreve.sc" unicode="&#xe05a;" horiz-adv-x="639" 
d="M238 154q28 -50 81 -50q104 0 104 163t-104 163q-55 0 -79 -46t-24 -117q0 -70 22 -113zM106 61q-75 72 -75 206q0 131 76.5 204.5t211.5 73.5q138 0 213.5 -72t75.5 -206q0 -132 -76.5 -205t-212.5 -73q-137 0 -213 72zM154 742h85q1 -25 22 -43t58 -18t57.5 17.5
t22.5 43.5h84q0 -60 -46.5 -101.5t-117.5 -41.5q-73 0 -119 41t-46 102z" />
    <glyph glyph-name="ohungarumlaut.sc" unicode="&#xe05b;" horiz-adv-x="639" 
d="M238 154q28 -50 81 -50q104 0 104 163t-104 163q-55 0 -79 -46t-24 -117q0 -70 22 -113zM106 61q-75 72 -75 206q0 131 76.5 204.5t211.5 73.5q138 0 213.5 -72t75.5 -206q0 -132 -76.5 -205t-212.5 -73q-137 0 -213 72zM247 603h-127l73 136h177zM495 603h-126l72 136
h177z" />
    <glyph glyph-name="oslash.sc" unicode="&#xe05c;" horiz-adv-x="639" 
d="M218 222l175 171q-26 37 -74 37q-55 0 -79 -46t-24 -117q0 -35 2 -45zM419 320l-176 -174q25 -42 76 -42q104 0 104 163q0 30 -4 53zM76 -22l-56 53l61 59q-50 68 -50 177q0 131 76.5 204.5t211.5 73.5q105 0 178 -45l58 57l56 -55l-56 -56q53 -68 53 -179
q0 -132 -76.5 -205t-212.5 -73q-113 0 -183 48z" />
    <glyph glyph-name="oe.sc" unicode="&#xe05d;" horiz-adv-x="831" 
d="M398 110v313q-15 7 -54 7q-63 0 -95.5 -48.5t-32.5 -114.5q0 -70 30.5 -116.5t97.5 -46.5q36 0 54 6zM795 0h-341q-56 -11 -115 -11q-139 0 -223.5 73.5t-84.5 204.5q0 129 85.5 203.5t222.5 74.5q62 0 121 -10h329v-111h-226v-99h216v-110h-216v-105h232v-110z" />
    <glyph glyph-name="racute.sc" unicode="&#xe05e;" horiz-adv-x="587" 
d="M231 428v-123h45q90 0 90 64q0 59 -89 59h-46zM231 0h-172v535h235q127 0 189.5 -33.5t62.5 -111.5q0 -52 -32.5 -86t-86.5 -47q42 -10 61 -34t33 -69l48 -154h-186l-39 135q-11 36 -25.5 50t-49.5 14h-38v-199zM337 603h-127l73 136h177z" />
    <glyph glyph-name="rcommaaccent.sc" unicode="&#xe05f;" horiz-adv-x="587" 
d="M231 428v-123h45q90 0 90 64q0 59 -89 59h-46zM231 0h-172v535h235q127 0 189.5 -33.5t62.5 -111.5q0 -52 -32.5 -86t-86.5 -47q42 -10 61 -34t33 -69l48 -154h-186l-39 135q-11 36 -25.5 50t-49.5 14h-38v-199zM296 -227h-108l43 159h156z" />
    <glyph glyph-name="rcaron.sc" unicode="&#xe060;" horiz-adv-x="587" 
d="M231 428v-123h45q90 0 90 64q0 59 -89 59h-46zM231 0h-172v535h235q127 0 189.5 -33.5t62.5 -111.5q0 -52 -32.5 -86t-86.5 -47q42 -10 61 -34t33 -69l48 -154h-186l-39 135q-11 36 -25.5 50t-49.5 14h-38v-199zM360 603h-147l-103 136h114l63 -79l63 79h113z" />
    <glyph glyph-name="sacute.sc" unicode="&#xe061;" horiz-adv-x="509" 
d="M33 15l5 121q84 -35 186 -35q76 0 76 46q0 20 -19 35t-67 31l-57 19q-63 22 -95 56.5t-32 91.5q0 47 24 81t64 51.5t81.5 25t87.5 7.5q76 0 164 -20l-4 -119q-84 28 -156 28q-81 0 -81 -45q0 -18 17 -30t57 -25l62 -21q71 -23 102.5 -55t31.5 -95q0 -62 -38 -102.5
t-90 -55.5t-115 -15q-105 0 -204 25zM307 603h-127l73 136h177z" />
    <glyph glyph-name="scircumflex.sc" unicode="&#xe062;" horiz-adv-x="509" 
d="M33 15l5 121q84 -35 186 -35q76 0 76 46q0 20 -19 35t-67 31l-57 19q-63 22 -95 56.5t-32 91.5q0 47 24 81t64 51.5t81.5 25t87.5 7.5q76 0 164 -20l-4 -119q-84 28 -156 28q-81 0 -81 -45q0 -18 17 -30t57 -25l62 -21q71 -23 102.5 -55t31.5 -95q0 -62 -38 -102.5
t-90 -55.5t-115 -15q-105 0 -204 25zM192 603h-114l103 136h148l103 -136h-114l-63 78z" />
    <glyph glyph-name="scaron.sc" unicode="&#xe063;" horiz-adv-x="509" 
d="M33 15l5 121q84 -35 186 -35q76 0 76 46q0 20 -19 35t-67 31l-57 19q-63 22 -95 56.5t-32 91.5q0 47 24 81t64 51.5t81.5 25t87.5 7.5q76 0 164 -20l-4 -119q-84 28 -156 28q-81 0 -81 -45q0 -18 17 -30t57 -25l62 -21q71 -23 102.5 -55t31.5 -95q0 -62 -38 -102.5
t-90 -55.5t-115 -15q-105 0 -204 25zM331 603h-147l-103 136h114l63 -79l63 79h113z" />
    <glyph glyph-name="scedilla.sc" unicode="&#xe064;" horiz-adv-x="509" 
d="M122 -182l20 52q49 -16 86 -16q49 0 49 27q0 12 -12.5 19.5t-27.5 7.5q-22 0 -41 -5l-25 29l38 58q-93 3 -176 25l5 121q84 -35 186 -35q76 0 76 46q0 20 -19 35t-67 31l-57 19q-63 22 -95 56.5t-32 91.5q0 47 24 81t64 51.5t81.5 25t87.5 7.5q76 0 164 -20l-4 -119
q-84 28 -156 28q-81 0 -81 -45q0 -18 17 -30t57 -25l62 -21q71 -23 102.5 -55t31.5 -95q0 -80 -56.5 -121t-143.5 -50l-27 -42q33 3 41 3q34 0 55 -18t21 -50q0 -39 -34 -62.5t-94 -23.5q-66 0 -120 19z" />
    <glyph glyph-name="scommaaccent.sc" unicode="&#xe065;" horiz-adv-x="509" 
d="M33 15l5 121q84 -35 186 -35q76 0 76 46q0 20 -19 35t-67 31l-57 19q-63 22 -95 56.5t-32 91.5q0 47 24 81t64 51.5t81.5 25t87.5 7.5q76 0 164 -20l-4 -119q-84 28 -156 28q-81 0 -81 -45q0 -18 17 -30t57 -25l62 -21q71 -23 102.5 -55t31.5 -95q0 -62 -38 -102.5
t-90 -55.5t-115 -15q-105 0 -204 25zM256 -227h-108l43 159h156z" />
    <glyph glyph-name="germandbls.sc" unicode="&#xe066;" horiz-adv-x="1010" 
d="M534 15l5 121q84 -35 186 -35q76 0 76 46q0 20 -19 35t-67 31l-57 19q-63 22 -95 56.5t-32 91.5q0 47 24 81t64 51.5t81.5 25t87.5 7.5q76 0 164 -20l-4 -119q-84 28 -156 28q-81 0 -81 -45q0 -18 17 -30t57 -25l62 -21q71 -23 102.5 -55t31.5 -95q0 -62 -38 -102.5
t-90 -55.5t-115 -15q-105 0 -204 25zM33 15l5 121q84 -35 186 -35q76 0 76 46q0 20 -19 35t-67 31l-57 19q-63 22 -95 56.5t-32 91.5q0 47 24 81t64 51.5t81.5 25t87.5 7.5q76 0 164 -20l-4 -119q-84 28 -156 28q-81 0 -81 -45q0 -18 17 -30t57 -25l62 -21q71 -23 102.5 -55
t31.5 -95q0 -62 -38 -102.5t-90 -55.5t-115 -15q-105 0 -204 25z" />
    <glyph glyph-name="tcaron.sc" unicode="&#xe067;" horiz-adv-x="551" 
d="M363 0h-176v404h-176v131h529v-131h-177v-404zM348 603h-147l-103 136h114l63 -79l63 79h113z" />
    <glyph glyph-name="tcommaaccent.sc" unicode="&#xe068;" horiz-adv-x="551" 
d="M363 0h-176v404h-176v131h529v-131h-177v-404zM262 -227h-108l43 159h156z" />
    <glyph glyph-name="tbar.sc" unicode="&#xe069;" horiz-adv-x="551" 
d="M363 0h-176v228h-114v85h114v91h-176v131h529v-131h-177v-91h113v-85h-113v-228z" />
    <glyph glyph-name="thorn.sc" unicode="&#xe06a;" horiz-adv-x="580" 
d="M232 343v-148h35q51 0 79.5 15t28.5 61q0 72 -97 72h-46zM233 0h-174v535h174v-85h124q87 0 142 -47.5t55 -130.5q0 -88 -54 -135.5t-145 -47.5h-122v-89z" />
    <glyph glyph-name="ugrave.sc" unicode="&#xe06b;" horiz-adv-x="622" 
d="M230 535v-321q0 -45 19.5 -74t61.5 -29t61.5 28t19.5 74v322h176v-324q0 -107 -73.5 -164.5t-185.5 -57.5q-115 0 -185 53.5t-70 161.5v331h176zM391 603h-127l-123 136h177z" />
    <glyph glyph-name="uacute.sc" unicode="&#xe06c;" horiz-adv-x="622" 
d="M230 535v-321q0 -45 19.5 -74t61.5 -29t61.5 28t19.5 74v322h176v-324q0 -107 -73.5 -164.5t-185.5 -57.5q-115 0 -185 53.5t-70 161.5v331h176zM360 603h-127l73 136h177z" />
    <glyph glyph-name="ucircumflex.sc" unicode="&#xe06d;" horiz-adv-x="622" 
d="M230 535v-321q0 -45 19.5 -74t61.5 -29t61.5 28t19.5 74v322h176v-324q0 -107 -73.5 -164.5t-185.5 -57.5q-115 0 -185 53.5t-70 161.5v331h176zM248 603h-114l103 136h148l103 -136h-114l-63 78z" />
    <glyph glyph-name="utilde.sc" unicode="&#xe06e;" horiz-adv-x="622" 
d="M230 535v-321q0 -45 19.5 -74t61.5 -29t61.5 28t19.5 74v322h176v-324q0 -107 -73.5 -164.5t-185.5 -57.5q-115 0 -185 53.5t-70 161.5v331h176zM199 603h-76q4 53 31 92.5t77 39.5q31 0 81 -18.5t70 -18.5q35 0 42 39h76q-2 -52 -33 -92.5t-81 -40.5q-31 0 -77.5 18.5
t-67.5 18.5q-16 0 -28.5 -11t-13.5 -27z" />
    <glyph glyph-name="udieresis.sc" unicode="&#xe06f;" horiz-adv-x="622" 
d="M230 535v-321q0 -45 19.5 -74t61.5 -29t61.5 28t19.5 74v322h176v-324q0 -107 -73.5 -164.5t-185.5 -57.5q-115 0 -185 53.5t-70 161.5v331h176zM270 607h-137v127h137v-127zM489 607h-136v127h136v-127z" />
    <glyph glyph-name="umacron.sc" unicode="&#xe070;" horiz-adv-x="622" 
d="M230 535v-321q0 -45 19.5 -74t61.5 -29t61.5 28t19.5 74v322h176v-324q0 -107 -73.5 -164.5t-185.5 -57.5q-115 0 -185 53.5t-70 161.5v331h176zM485 629h-346v84h346v-84z" />
    <glyph glyph-name="ubreve.sc" unicode="&#xe071;" horiz-adv-x="622" 
d="M230 535v-321q0 -45 19.5 -74t61.5 -29t61.5 28t19.5 74v322h176v-324q0 -107 -73.5 -164.5t-185.5 -57.5q-115 0 -185 53.5t-70 161.5v331h176zM147 742h85q1 -25 22 -43t58 -18t57.5 17.5t22.5 43.5h84q0 -60 -46.5 -101.5t-117.5 -41.5q-73 0 -119 41t-46 102z" />
    <glyph glyph-name="uring.sc" unicode="&#xe072;" horiz-adv-x="622" 
d="M230 535v-321q0 -45 19.5 -74t61.5 -29t61.5 28t19.5 74v322h176v-324q0 -107 -73.5 -164.5t-185.5 -57.5q-115 0 -185 53.5t-70 161.5v331h176zM262 671q0 -21 15 -35.5t35 -14.5q21 0 35.5 14.5t14.5 35.5q0 20 -14.5 34.5t-35.5 14.5t-35.5 -14.5t-14.5 -34.5z
M271 574q-29 12 -46.5 38t-17.5 59q0 44 30.5 74t74.5 30t74.5 -30t30.5 -74t-30.5 -74.5t-74.5 -30.5q-20 0 -41 8z" />
    <glyph glyph-name="uhungarumlaut.sc" unicode="&#xe073;" horiz-adv-x="622" 
d="M230 535v-321q0 -45 19.5 -74t61.5 -29t61.5 28t19.5 74v322h176v-324q0 -107 -73.5 -164.5t-185.5 -57.5q-115 0 -185 53.5t-70 161.5v331h176zM240 603h-127l73 136h177zM488 603h-126l72 136h177z" />
    <glyph glyph-name="uogonek.sc" unicode="&#xe074;" horiz-adv-x="622" 
d="M427 -124l15 -54q-48 -23 -105 -23q-53 0 -83 21.5t-30 60.5q0 58 82 108q-112 0 -182 54t-70 161v331h176v-321q0 -45 19.5 -74t61.5 -29t61.5 28t19.5 74v322h176v-324q0 -87 -50 -142t-132 -72q-46 -38 -59 -57.5t-13 -41.5q0 -18 13.5 -28.5t35.5 -10.5t64 17z" />
    <glyph glyph-name="wcircumflex.sc" unicode="&#xe075;" horiz-adv-x="859" 
d="M334 0h-189l-140 535h167l80 -379l97 379h171l94 -380l82 380h159l-138 -535h-189l-99 385zM369 603h-114l103 136h148l103 -136h-114l-63 78z" />
    <glyph glyph-name="yacute.sc" unicode="&#xe076;" horiz-adv-x="553" 
d="M363 0h-176v182l-199 353h190l104 -232l102 232h182l-203 -353v-182zM329 603h-127l73 136h177z" />
    <glyph glyph-name="ycircumflex.sc" unicode="&#xe077;" horiz-adv-x="553" 
d="M363 0h-176v182l-199 353h190l104 -232l102 232h182l-203 -353v-182zM217 603h-114l103 136h148l103 -136h-114l-63 78z" />
    <glyph glyph-name="ydieresis.sc" unicode="&#xe078;" horiz-adv-x="553" 
d="M363 0h-176v182l-199 353h190l104 -232l102 232h182l-203 -353v-182zM239 607h-137v127h137v-127zM458 607h-136v127h136v-127z" />
    <glyph glyph-name="zacute.sc" unicode="&#xe079;" horiz-adv-x="517" 
d="M493 0h-468v128l272 290h-263v117h451v-130l-266 -288h274v-117zM312 603h-127l73 136h177z" />
    <glyph glyph-name="zcaron.sc" unicode="&#xe07a;" horiz-adv-x="517" 
d="M493 0h-468v128l272 290h-263v117h451v-130l-266 -288h274v-117zM337 603h-147l-103 136h114l63 -79l63 79h113z" />
    <glyph glyph-name="zdotaccent.sc" unicode="&#xe07b;" horiz-adv-x="517" 
d="M493 0h-468v128l272 290h-263v117h451v-130l-266 -288h274v-117zM337 607h-147v127h147v-127z" />
    <glyph glyph-name="fi.sc" unicode="&#xe07c;" horiz-adv-x="791" 
d="M235 0h-176v535h416v-111h-240v-123h231v-109h-231v-192zM732 0h-176v535h176v-535z" />
    <glyph glyph-name="fl.sc" unicode="&#xe07d;" horiz-adv-x="994" 
d="M235 0h-176v535h416v-111h-240v-123h231v-109h-231v-192zM976 0h-420v535h176v-404h244v-131z" />
    <glyph glyph-name="ij.sc" unicode="&#xe07e;" horiz-adv-x="649" 
d="M235 0h-176v535h176v-535zM293 6l4 123q29 -12 54 -12q68 0 68 78v340h176v-375q0 -82 -49.5 -126.5t-135.5 -44.5q-54 0 -117 17z" />
    <glyph glyph-name="exclamdown.sc" unicode="&#xe07f;" horiz-adv-x="310" 
d="M236 402h-162v133h162v-133zM245 0h-180l23 336h134z" />
    <glyph glyph-name="questiondown.sc" unicode="&#xe080;" horiz-adv-x="443" 
d="M319 402h-162v133h162v-133zM390 127l5 -112q-87 -25 -166 -25q-94 0 -150.5 36t-56.5 99q0 43 19 70.5t57 51.5q38 25 52.5 43t14.5 46h147q0 -44 -16.5 -68.5t-62.5 -55.5q-42 -31 -42 -64q0 -46 76 -46q57 0 123 25z" />
    <glyph glyph-name="Euro.sc" unicode="&#xe081;" horiz-adv-x="526" 
d="M99 183h-79l15 60h55q-1 8 -1 25q0 11 1 22h-69l15 60h63q26 90 100 142.5t175 52.5q83 0 143 -16l-30 -113q-39 13 -85 13q-100 0 -132 -79h201l-15 -60h-200q-1 -9 -1 -23q0 -16 1 -24h191l-15 -60h-163q14 -36 49 -56t83 -20q45 0 89 11l7 -115q-46 -14 -119 -14
q-108 0 -182 49t-97 145z" />
    <glyph glyph-name="cent.sc" unicode="&#xe082;" horiz-adv-x="526" 
d="M339 0h-87v75q-84 12 -134.5 62.5t-50.5 132.5q0 77 52 127.5t133 63.5v74h87v-71q63 -5 104 -17l-5 -102q-49 23 -96 23q-49 0 -78 -26.5t-29 -71.5q0 -48 28 -75.5t79 -27.5q56 0 98 26l5 -102q-42 -17 -106 -19v-72z" />
    <glyph glyph-name="sterling.sc" unicode="&#xe083;" horiz-adv-x="526" 
d="M487 0h-433v101h65v118h-62v97h62v36q0 95 58 144t160 49q73 0 150 -18l-5 -113q-54 18 -109 18q-91 0 -91 -93v-23h145v-97h-145v-118h205v-101z" />
    <glyph glyph-name="florin.sc" unicode="&#xe084;" horiz-adv-x="526" 
d="M-2 -170l4 110q33 -6 50 -6q41 0 55 65l49 226h-95v97h116l16 71q35 152 173 152q68 0 103 -12l-5 -103q-37 8 -54 8q-45 0 -60 -62l-13 -54h100v-97h-120l-52 -244q-35 -161 -160 -161q-57 0 -107 10z" />
    <glyph glyph-name="yen.sc" unicode="&#xe085;" horiz-adv-x="526" 
d="M174 112h-123v60h123v52h-123v60h84l-137 251h170l95 -210l98 210h167l-145 -251h88v-60h-130v-52h130v-60h-130v-112h-167v112z" />
    <glyph glyph-name="ordfeminine.sc" unicode="&#xe086;" horiz-adv-x="357" 
d="M176 480l-30 -83h59zM115 297h-98l100 241h125l97 -241h-102l-16 44h-89z" />
    <glyph glyph-name="perthousand.sc" unicode="&#xe087;" horiz-adv-x="1246" 
d="M324 -19h-88l340 572h87zM644 80q8 -26 34 -26q24 0 33 25t9 75q0 52 -9.5 75.5t-32.5 23.5t-32.5 -23.5t-9.5 -75.5q0 -45 8 -74zM605 2q-85 36 -85 152q0 73 39.5 119.5t118.5 46.5q80 0 118.5 -46.5t38.5 -119.5t-39 -119t-118 -46q-44 0 -73 13zM990 80q8 -26 34 -26
q24 0 33 25t9 75q0 52 -9.5 75.5t-32.5 23.5t-32.5 -23.5t-9.5 -75.5q0 -45 8 -74zM951 2q-85 36 -85 152q0 73 39.5 119.5t118.5 46.5q80 0 118.5 -46.5t38.5 -119.5t-39 -119t-118 -46q-44 0 -73 13zM190 305q8 -26 34 -26q24 0 33 25t9 75q0 53 -9.5 76t-32.5 23
t-32.5 -23.5t-9.5 -75.5q0 -45 8 -74zM151 227q-85 36 -85 152q0 73 39.5 119.5t118.5 46.5q80 0 118.5 -46.5t38.5 -119.5t-39 -119t-118 -46q-44 0 -73 13z" />
    <glyph glyph-name="dotlessj.sc" unicode="&#xe090;" horiz-adv-x="363" 
d="M7 6l4 123q29 -12 54 -12q68 0 68 78v340h176v-375q0 -82 -49.5 -126.5t-135.5 -44.5q-54 0 -117 17z" />
    <glyph glyph-name="zero.onum" unicode="&#xe100;" horiz-adv-x="620" 
d="M241 152q20 -41 70 -41q47 0 67.5 39.5t20.5 123.5q0 82 -20 121.5t-68 39.5t-68.5 -39.5t-20.5 -122.5q0 -80 19 -121zM188 8q-80 30 -122.5 98t-42.5 166q0 130 78 207.5t210 77.5q138 0 212.5 -75t74.5 -209q0 -131 -76 -207.5t-211 -76.5q-70 0 -123 19z" />
    <glyph glyph-name="one.onum" unicode="&#xe101;" horiz-adv-x="620" 
d="M454 0h-194v410h-156v137h350v-547z" />
    <glyph glyph-name="two.onum" unicode="&#xe102;" horiz-adv-x="620" 
d="M537 0h-474v127q163 94 219.5 138.5t56.5 89.5q0 76 -93 76q-59 0 -165 -34l-5 127q108 33 211 33q124 0 184.5 -48.5t60.5 -128.5q0 -78 -55 -133.5t-188 -129.5h248v-117z" />
    <glyph glyph-name="three.onum" unicode="&#xe103;" horiz-adv-x="620" 
d="M61 -156l-8 120q41 -6 84 -6q204 0 204 122q0 85 -132 85h-77v114h68q135 0 135 87q0 70 -108 70q-68 0 -152 -28l-6 121q100 28 206 28q116 0 182.5 -44.5t66.5 -125.5q0 -57 -35.5 -97t-96.5 -55q143 -23 143 -149q0 -112 -98.5 -180.5t-275.5 -68.5q-61 0 -100 7z" />
    <glyph glyph-name="four.onum" unicode="&#xe104;" horiz-adv-x="620" 
d="M346 0h-314v135l215 412h169l-222 -420h154v237h161v-237h94v-127h-92v-159h-165v159z" />
    <glyph glyph-name="five.onum" unicode="&#xe105;" horiz-adv-x="620" 
d="M90 -156l-8 120q38 -6 83 -6q101 0 151 35.5t50 97.5q0 98 -142 98q-67 0 -132 -14l6 372h432v-124h-264l-3 -139q44 5 81 5q105 0 160.5 -49.5t55.5 -140.5q0 -115 -96.5 -188.5t-275.5 -73.5q-60 0 -98 7z" />
    <glyph glyph-name="six.onum" unicode="&#xe106;" horiz-adv-x="620" 
d="M242 134q27 -33 75 -33q49 0 76.5 31t27.5 84q0 55 -26 85t-76 30q-48 0 -75.5 -31t-27.5 -82q0 -49 26 -84zM524 702v-122q-40 6 -91 6q-104 0 -161.5 -56t-63.5 -148q67 60 165 60q100 0 160 -56t60 -158q0 -111 -81 -175t-193 -64q-140 0 -214.5 83.5t-74.5 239.5
q0 177 108.5 286t296.5 109q45 0 89 -5z" />
    <glyph glyph-name="seven.onum" unicode="&#xe107;" horiz-adv-x="620" 
d="M279 -163l-197 13q80 210 292 560h-328v137h511v-139q-199 -362 -278 -571z" />
    <glyph glyph-name="eight.onum" unicode="&#xe108;" horiz-adv-x="620" 
d="M387 278q-23 29 -77 39q-49 -6 -73.5 -36t-24.5 -73q0 -46 26 -74.5t73 -28.5t72.5 28.5t25.5 75.5q0 41 -22 69zM243 439q24 -27 70 -34q43 7 65 33.5t22 64.5q0 40 -25 64t-64 24t-64 -24t-25 -64q0 -39 21 -64zM63 293q37 42 103 62q-60 23 -91 59.5t-31 96.5
q0 86 74.5 137t193.5 51q118 0 192.5 -45.5t74.5 -138.5q0 -62 -31 -99t-95 -59q74 -25 108 -64.5t34 -106.5q0 -90 -77 -143.5t-207 -53.5q-132 0 -208 49t-76 145q0 67 36 110z" />
    <glyph glyph-name="nine.onum" unicode="&#xe109;" horiz-adv-x="620" 
d="M225 245q25 -30 76 -30q48 0 75.5 31t27.5 82q0 52 -27 84.5t-74 32.5q-49 0 -76.5 -31t-27.5 -84t26 -85zM96 -158v121q45 -5 91 -5q106 0 163 54.5t62 151.5q-67 -60 -165 -60q-101 0 -160.5 55.5t-59.5 158.5q0 111 81 175t193 64q140 0 214.5 -83.5t74.5 -239.5
q0 -182 -108 -289.5t-297 -107.5q-45 0 -89 5z" />
    <glyph glyph-name="zero.sc" unicode="&#xe10a;" horiz-adv-x="526" 
d="M230 108q12 -12 33 -12q37 0 49.5 42.5t12.5 128.5q0 91 -12.5 131t-49.5 40t-50 -40.5t-13 -130.5q0 -127 30 -159zM153 11q-126 62 -126 256q0 78 22.5 138.5t77 100t136.5 39.5q121 0 178.5 -78t57.5 -200q0 -79 -22 -139t-76.5 -99.5t-137.5 -39.5q-66 0 -110 22z
" />
    <glyph glyph-name="one.sc" unicode="&#xe10b;" horiz-adv-x="526" 
d="M397 0h-168v371l-119 -81l-52 116l198 129h141v-535z" />
    <glyph glyph-name="two.sc" unicode="&#xe10c;" horiz-adv-x="526" 
d="M469 0h-429v116l96 70q90 67 123.5 103t33.5 71q0 67 -95 67q-64 0 -143 -35l-5 120q104 33 185 33q45 0 84 -8.5t73.5 -26.5t54.5 -52t20 -80q0 -64 -43 -119t-136 -117l-47 -31h228v-111z" />
    <glyph glyph-name="three.sc" unicode="&#xe10d;" horiz-adv-x="526" 
d="M39 12l5 109q72 -25 146 -25q109 0 109 65q0 63 -119 63h-71v98h60q61 0 92 13.5t31 47.5q0 55 -103 55q-56 0 -134 -25l-5 107q95 25 170 25q107 0 176 -36.5t69 -111.5q0 -89 -99 -123q47 -10 78 -41.5t31 -74.5q0 -87 -70.5 -128t-184.5 -41q-107 0 -181 23z" />
    <glyph glyph-name="four.sc" unicode="&#xe10e;" horiz-adv-x="526" 
d="M272 401l-141 -190h141v190zM270 105h-246v125l242 305h167v-320h78v-110h-78v-105h-163v105z" />
    <glyph glyph-name="five.sc" unicode="&#xe10f;" horiz-adv-x="526" 
d="M51 12l4 110q69 -20 130 -20q114 0 114 73q0 71 -116 71q-61 0 -119 -16l6 305h381v-107h-231l-3 -98q27 5 44 5q214 0 214 -160q0 -62 -40.5 -106t-96.5 -62t-118 -18q-89 0 -169 23z" />
    <glyph glyph-name="six.sc" unicode="&#xe110;" horiz-adv-x="526" 
d="M217 112q17 -24 53 -24q35 0 53.5 22t18.5 59q0 82 -70 82q-34 0 -53 -22t-19 -58q0 -34 17 -59zM463 530l-5 -109q-70 18 -125 18q-66 0 -100 -35t-36 -95q53 39 121 39q84 0 133.5 -44.5t49.5 -125.5q0 -89 -66.5 -139t-164.5 -50q-115 0 -177 68.5t-62 189.5
q0 132 78 215t209 83q74 0 145 -15z" />
    <glyph glyph-name="seven.sc" unicode="&#xe111;" horiz-adv-x="526" 
d="M279 0h-195l225 411h-267v124h436v-122z" />
    <glyph glyph-name="eight.sc" unicode="&#xe112;" horiz-adv-x="526" 
d="M201 390q0 -55 64 -71q29 6 44.5 25t15.5 46t-17 44t-45 17q-27 0 -44.5 -16.5t-17.5 -44.5zM315 213q-17 20 -52 28q-69 -12 -69 -79q0 -33 18.5 -52.5t50.5 -19.5t50.5 19.5t18.5 54.5q0 29 -17 49zM52 225q29 32 81 52q-98 44 -98 123q0 68 68.5 106.5t159.5 38.5
q95 0 161.5 -37.5t66.5 -107.5q0 -85 -98 -123q111 -46 111 -133q0 -75 -72.5 -115t-169.5 -40q-105 0 -172.5 39.5t-67.5 115.5q0 48 30 81z" />
    <glyph glyph-name="nine.sc" unicode="&#xe113;" horiz-adv-x="526" 
d="M199 305q17 -23 55 -23q34 0 52 22.5t18 57.5t-17 59.5t-51 24.5q-35 0 -54 -23t-19 -59t16 -59zM60 5l4 110q71 -19 131 -19q66 0 96.5 31.5t34.5 94.5q-46 -38 -118 -38q-82 0 -133 45t-51 126q0 89 67.5 139.5t160.5 50.5q117 0 180.5 -67.5t63.5 -186.5
q0 -138 -73 -220t-209 -82q-86 0 -154 16z" />
    <glyph glyph-name="zero.prop" unicode="&#xe11e;" horiz-adv-x="620" 
d="M178 16q-149 77 -149 317q0 73 15.5 133t47.5 108.5t88 75.5t130 27q99 0 164 -48.5t91.5 -123t26.5 -172.5q0 -72 -15 -132t-47 -108.5t-88 -76t-132 -27.5q-78 0 -132 27zM259 128q19 -19 51 -19q30 0 50 17.5t28.5 52.5t11.5 69t3 85q0 54 -3 90t-12.5 69t-28.5 49
t-49 16t-49 -16t-28 -49t-12 -69t-3 -90q0 -162 41 -205z" />
    <glyph glyph-name="one.prop" unicode="&#xe11f;" horiz-adv-x="496" 
d="M402 0h-187v482l-142 -103l-58 134l226 154h161v-667z" />
    <glyph glyph-name="two.prop" unicode="&#xe120;" horiz-adv-x="620" 
d="M556 0h-512v138l189 144q63 48 96.5 86.5t33.5 83.5q0 92 -127 92q-80 0 -173 -42l-5 135q102 40 218 40q54 0 100 -9.5t87 -31t65 -62t24 -96.5q0 -74 -41.5 -132t-121.5 -118l-129 -99h296v-129z" />
    <glyph glyph-name="three.prop" unicode="&#xe121;" horiz-adv-x="620" 
d="M43 16l6 123q79 -30 173 -30q58 0 102.5 20t44.5 69q0 89 -158 89h-81v112h68q163 0 163 81q0 31 -24.5 49.5t-50.5 23t-56 4.5q-71 0 -167 -30l-6 121q93 29 202 29q50 0 95.5 -7t92.5 -25t75 -55t28 -90q0 -119 -130 -158q61 -10 101.5 -48.5t40.5 -97.5
q0 -60 -27.5 -102.5t-74.5 -64t-96.5 -31t-106.5 -9.5q-118 0 -214 27z" />
    <glyph glyph-name="four.prop" unicode="&#xe122;" horiz-adv-x="620" 
d="M333 512l-187 -255h187v255zM330 133h-305v150l295 384h191v-405h96v-129h-96v-133h-181v133z" />
    <glyph glyph-name="five.prop" unicode="&#xe123;" horiz-adv-x="620" 
d="M58 16l5 126q78 -24 149 -24q63 0 111 23t48 76q0 52 -48 75.5t-108 23.5q-73 0 -141 -18l9 369h449v-125h-282l-4 -138q27 7 61 7q257 0 257 -194q0 -59 -27.5 -104.5t-73.5 -71.5t-98 -39t-108 -13q-109 0 -199 27z" />
    <glyph glyph-name="six.prop" unicode="&#xe124;" horiz-adv-x="620" 
d="M244 134q26 -33 75 -33t76 30t27 79q0 50 -26 79.5t-75 29.5q-48 0 -75 -29t-27 -78q0 -46 25 -78zM549 659l-6 -125q-72 23 -146 23q-82 0 -130.5 -50.5t-48.5 -131.5q55 56 153 56q100 0 162 -57t62 -156q0 -108 -81.5 -168.5t-193.5 -60.5q-140 0 -212.5 88.5
t-72.5 237.5q0 161 92.5 261.5t251.5 100.5q92 0 170 -18z" />
    <glyph glyph-name="seven.prop" unicode="&#xe125;" horiz-adv-x="566" 
d="M289 0h-219l277 521h-332v146h520v-146z" />
    <glyph glyph-name="eight.prop" unicode="&#xe126;" horiz-adv-x="620" 
d="M60 288q38 39 105 57q-126 36 -126 156q0 45 27 81t69.5 55.5t87.5 29.5t87 10q46 0 90 -8.5t87 -27t69 -55t26 -85.5q0 -116 -129 -156q72 -18 108 -57.5t36 -110.5q0 -52 -27.5 -90.5t-72 -58.5t-91.5 -29.5t-96 -9.5q-51 0 -98 9.5t-91 30t-70.5 58.5t-26.5 90
q0 73 36 111zM246 423q26 -24 65 -32q37 6 63.5 34t26.5 65t-26 59.5t-65 22.5t-64.5 -22.5t-25.5 -59.5q0 -41 26 -67zM381 273q-29 28 -71 35q-45 -7 -72 -36t-27 -71q0 -45 26.5 -72t72.5 -27q47 0 73.5 27t26.5 73q0 45 -29 71z" />
    <glyph glyph-name="nine.prop" unicode="&#xe127;" horiz-adv-x="620" 
d="M70 7l5 125q75 -23 151 -23q83 0 128 46.5t48 131.5q-54 -53 -152 -53t-161 58t-63 155q0 109 80 169.5t192 60.5q138 0 213.5 -84t75.5 -229q0 -173 -86.5 -274t-251.5 -101q-91 0 -179 18zM223 376q25 -31 76 -31q49 0 75.5 29.5t26.5 78.5q0 48 -26 80t-73 32
q-49 0 -76 -30t-27 -79q0 -48 24 -80z" />
    <glyph glyph-name="zero.scprop" unicode="&#xe128;" horiz-adv-x="526" 
d="M230 108q12 -12 33 -12q37 0 49.5 42.5t12.5 128.5q0 91 -12.5 131t-49.5 40t-50 -40.5t-13 -130.5q0 -127 30 -159zM153 11q-126 62 -126 256q0 78 22.5 138.5t77 100t136.5 39.5q121 0 178.5 -78t57.5 -200q0 -79 -22 -139t-76.5 -99.5t-137.5 -39.5q-66 0 -110 22z
" />
    <glyph glyph-name="one.scprop" unicode="&#xe129;" horiz-adv-x="427" 
d="M350 0h-168v371l-119 -81l-52 116l198 129h141v-535z" />
    <glyph glyph-name="two.scprop" unicode="&#xe12a;" horiz-adv-x="526" 
d="M469 0h-429v116l96 70q90 67 123.5 103t33.5 71q0 67 -95 67q-64 0 -143 -35l-5 120q104 33 185 33q45 0 84 -8.5t73.5 -26.5t54.5 -52t20 -80q0 -64 -43 -119t-136 -117l-47 -31h228v-111z" />
    <glyph glyph-name="three.scprop" unicode="&#xe12b;" horiz-adv-x="526" 
d="M39 12l5 109q72 -25 146 -25q109 0 109 65q0 63 -119 63h-71v98h60q61 0 92 13.5t31 47.5q0 55 -103 55q-56 0 -134 -25l-5 107q95 25 170 25q107 0 176 -36.5t69 -111.5q0 -89 -99 -123q47 -10 78 -41.5t31 -74.5q0 -87 -70.5 -128t-184.5 -41q-107 0 -181 23z" />
    <glyph glyph-name="four.scprop" unicode="&#xe12c;" horiz-adv-x="526" 
d="M272 401l-141 -190h141v190zM270 105h-246v125l242 305h167v-320h78v-110h-78v-105h-163v105z" />
    <glyph glyph-name="five.scprop" unicode="&#xe12d;" horiz-adv-x="526" 
d="M51 12l4 110q69 -20 130 -20q114 0 114 73q0 71 -116 71q-61 0 -119 -16l6 305h381v-107h-231l-3 -98q27 5 44 5q214 0 214 -160q0 -62 -40.5 -106t-96.5 -62t-118 -18q-89 0 -169 23z" />
    <glyph glyph-name="six.scprop" unicode="&#xe12e;" horiz-adv-x="526" 
d="M217 112q17 -24 53 -24q35 0 53.5 22t18.5 59q0 82 -70 82q-34 0 -53 -22t-19 -58q0 -34 17 -59zM463 530l-5 -109q-70 18 -125 18q-66 0 -100 -35t-36 -95q53 39 121 39q84 0 133.5 -44.5t49.5 -125.5q0 -89 -66.5 -139t-164.5 -50q-115 0 -177 68.5t-62 189.5
q0 132 78 215t209 83q74 0 145 -15z" />
    <glyph glyph-name="seven.scprop" unicode="&#xe12f;" horiz-adv-x="480" 
d="M252 0h-195l225 411h-267v124h436v-122z" />
    <glyph glyph-name="eight.scprop" unicode="&#xe130;" horiz-adv-x="526" 
d="M201 390q0 -55 64 -71q29 6 44.5 25t15.5 46t-17 44t-45 17q-27 0 -44.5 -16.5t-17.5 -44.5zM315 213q-17 20 -52 28q-69 -12 -69 -79q0 -33 18.5 -52.5t50.5 -19.5t50.5 19.5t18.5 54.5q0 29 -17 49zM52 225q29 32 81 52q-98 44 -98 123q0 68 68.5 106.5t159.5 38.5
q95 0 161.5 -37.5t66.5 -107.5q0 -85 -98 -123q111 -46 111 -133q0 -75 -72.5 -115t-169.5 -40q-105 0 -172.5 39.5t-67.5 115.5q0 48 30 81z" />
    <glyph glyph-name="nine.scprop" unicode="&#xe131;" horiz-adv-x="526" 
d="M199 305q17 -23 55 -23q34 0 52 22.5t18 57.5t-17 59.5t-51 24.5q-35 0 -54 -23t-19 -59t16 -59zM60 5l4 110q71 -19 131 -19q66 0 96.5 31.5t34.5 94.5q-46 -38 -118 -38q-82 0 -133 45t-51 126q0 89 67.5 139.5t160.5 50.5q117 0 180.5 -67.5t63.5 -186.5
q0 -138 -73 -220t-209 -82q-86 0 -154 16z" />
    <glyph glyph-name="zero.onumprop" unicode="&#xe132;" horiz-adv-x="681" 
d="M258 153q30 -42 83 -42q52 0 81.5 42t29.5 122q0 78 -29 119t-82 41t-82.5 -41t-29.5 -120q0 -78 29 -121zM112 65q-82 76 -82 207q0 130 84.5 207.5t226.5 77.5q149 0 229.5 -74t80.5 -209q0 -131 -82.5 -208t-227.5 -77q-147 0 -229 76z" />
    <glyph glyph-name="one.onumprop" unicode="&#xe133;" horiz-adv-x="481" 
d="M381 0h-194v410h-156v137h350v-547z" />
    <glyph glyph-name="two.onumprop" unicode="&#xe134;" horiz-adv-x="553" 
d="M505 0h-474v127q163 94 219.5 138.5t56.5 89.5q0 76 -93 76q-59 0 -165 -34l-5 127q108 33 211 33q124 0 184.5 -48.5t60.5 -128.5q0 -78 -55 -133.5t-188 -129.5h248v-117z" />
    <glyph glyph-name="three.onumprop" unicode="&#xe135;" horiz-adv-x="527" 
d="M16 -156l-8 120q40 -6 84 -6q204 0 204 122q0 85 -132 85h-77v114h68q135 0 135 87q0 70 -108 70q-68 0 -152 -28l-6 121q100 28 206 28q116 0 182.5 -44.5t66.5 -125.5q0 -57 -35.5 -97t-96.5 -55q143 -23 143 -149q0 -112 -98.5 -180.5t-275.5 -68.5q-61 0 -100 7z" />
    <glyph glyph-name="four.onumprop" unicode="&#xe136;" horiz-adv-x="624" 
d="M348 0h-314v135l215 412h169l-222 -420h154v237h161v-237h94v-127h-92v-159h-165v159z" />
    <glyph glyph-name="five.onumprop" unicode="&#xe137;" horiz-adv-x="567" 
d="M58 -156l-8 120q38 -6 83 -6q101 0 151 35.5t50 97.5q0 98 -142 98q-67 0 -132 -14l6 372h432v-124h-264l-3 -139q44 5 81 5q105 0 160.5 -49.5t55.5 -140.5q0 -115 -96.5 -188.5t-275.5 -73.5q-60 0 -98 7z" />
    <glyph glyph-name="six.onumprop" unicode="&#xe138;" horiz-adv-x="630" 
d="M246 134q27 -33 75 -33q49 0 76.5 31t27.5 84q0 55 -26 85t-76 30q-48 0 -75.5 -31t-27.5 -82q0 -49 26 -84zM528 702v-122q-40 6 -91 6q-104 0 -161.5 -56t-63.5 -148q67 60 165 60q100 0 160 -56t60 -158q0 -111 -81 -175t-193 -64q-140 0 -214.5 83.5t-74.5 239.5
q0 177 108.5 286t296.5 109q45 0 89 -5z" />
    <glyph glyph-name="seven.onumprop" unicode="&#xe139;" horiz-adv-x="577" 
d="M257 -163l-197 13q80 210 292 560h-328v137h511v-139q-199 -362 -278 -571z" />
    <glyph glyph-name="eight.onumprop" unicode="&#xe13a;" horiz-adv-x="640" 
d="M396 278q-23 29 -77 39q-49 -6 -73.5 -36t-24.5 -73q0 -46 26 -74.5t73 -28.5t72.5 28.5t25.5 75.5q0 41 -22 69zM252 439q24 -27 70 -34q43 7 65 33.5t22 64.5q0 40 -25 64t-64 24t-64 -24t-25 -64q0 -39 21 -64zM72 293q37 42 103 62q-60 23 -91 59.5t-31 96.5
q0 86 74.5 137t193.5 51q118 0 192.5 -45.5t74.5 -138.5q0 -62 -31 -99t-95 -59q74 -25 108 -64.5t34 -106.5q0 -90 -77 -143.5t-207 -53.5q-132 0 -208 49t-76 145q0 67 36 110z" />
    <glyph glyph-name="nine.onumprop" unicode="&#xe13b;" horiz-adv-x="630" 
d="M231 245q25 -30 76 -30q48 0 75.5 31t27.5 82q0 52 -27 84.5t-74 32.5q-49 0 -76.5 -31t-27.5 -84t26 -85zM102 -158v121q45 -5 91 -5q106 0 163 54.5t62 151.5q-67 -60 -165 -60q-101 0 -160.5 55.5t-59.5 158.5q0 111 81 175t193 64q140 0 214.5 -83.5t74.5 -239.5
q0 -182 -108 -289.5t-297 -107.5q-45 0 -89 5z" />
    <glyph glyph-name="one.numerator" unicode="&#xe13c;" horiz-adv-x="480" 
d="M343 269h-125v285l-97 -64l-39 85l154 95h107v-401z" />
    <glyph glyph-name="two.numerator" unicode="&#xe13d;" horiz-adv-x="480" 
d="M401 269h-335v88l85 54q119 72 119 128q0 26 -20 39.5t-54 13.5q-59 0 -118 -24l-3 85q83 23 142 23q34 0 64.5 -6t58 -19.5t43.5 -39t16 -59.5q0 -46 -34 -86.5t-103 -84.5l-46 -30h185v-82z" />
    <glyph glyph-name="three.numerator" unicode="&#xe13e;" horiz-adv-x="480" 
d="M66 278l4 78q47 -17 116 -17q38 0 64 13t26 38q0 50 -103 50h-51v71h42q107 0 107 46q0 43 -86 43q-61 0 -106 -16l-4 76q56 17 130 17q46 0 85 -7t73 -33t34 -69q0 -70 -79 -92q37 -6 62 -29.5t25 -57.5q0 -48 -33 -78t-74.5 -39.5t-92.5 -9.5q-84 0 -139 16z" />
    <glyph glyph-name="four.numerator" unicode="&#xe13f;" horiz-adv-x="480" 
d="M253 581l-124 -155h124v155zM251 348h-196v95l189 228h128v-241h61v-82h-61v-79h-121v79z" />
    <glyph glyph-name="five.numerator" unicode="&#xe140;" horiz-adv-x="480" 
d="M75 279l3 79q50 -14 95 -14q103 0 103 57q0 30 -31 43t-69 13q-44 0 -90 -9l6 223h294v-79h-183l-2 -79q13 4 38 4q167 0 167 -116q0 -48 -32.5 -80.5t-76 -45.5t-92.5 -13q-68 0 -130 17z" />
    <glyph glyph-name="six.numerator" unicode="&#xe141;" horiz-adv-x="480" 
d="M199 352q16 -19 48 -19q29 0 46 18t17 46q0 27 -16 45t-46 18t-47 -17t-17 -45q0 -26 15 -46zM395 667l-4 -79q-42 13 -95 13q-51 0 -82 -28.5t-31 -75.5q37 33 99 33q65 0 104.5 -34t39.5 -95q0 -66 -53 -102.5t-126 -36.5q-93 0 -140 54t-47 143q0 97 60.5 157.5
t162.5 60.5q62 0 112 -10z" />
    <glyph glyph-name="seven.numerator" unicode="&#xe142;" horiz-adv-x="480" 
d="M250 269h-148l180 309h-213v93h339v-93z" />
    <glyph glyph-name="eight.numerator" unicode="&#xe143;" horiz-adv-x="480" 
d="M286 433q-14 15 -46 20q-29 -3 -45.5 -20t-16.5 -42t16.5 -41t45.5 -16t45.5 16t16.5 43q0 24 -16 40zM199 524q16 -14 41 -17q25 2 41 17.5t16 37.5q0 21 -16.5 35t-40.5 14t-40 -13.5t-16 -36.5t15 -37zM75 443q22 22 65 33q-40 12 -58.5 32.5t-18.5 58.5q0 54 57 82
t120 28q68 0 123 -26t55 -83q0 -66 -79 -91q46 -10 67 -33t21 -67q0 -42 -32 -69.5t-71.5 -36.5t-83.5 -9q-73 0 -130 27.5t-57 87.5q0 44 22 66z" />
    <glyph glyph-name="nine.numerator" unicode="&#xe144;" horiz-adv-x="480" 
d="M185 498q15 -18 47 -18q29 0 46.5 17t17.5 44q0 28 -17 47t-46 19t-46 -18.5t-17 -45.5t15 -45zM84 273l4 78q50 -13 98 -13q51 0 81 28t31 76q-39 -33 -101 -33t-102 35t-40 94q0 66 52 102.5t123 36.5q94 0 142.5 -53t48.5 -143q0 -100 -57.5 -159.5t-161.5 -59.5
q-64 0 -118 11z" />
    <glyph glyph-name="zero.numerator" unicode="&#xe145;" horiz-adv-x="480" 
d="M191 379q13 -40 49 -40q19 0 31.5 10t17.5 30.5t7 40.5t2 50q0 66 -11.5 98t-46.5 32t-46 -32t-11 -98q0 -64 8 -91zM154 278q-98 47 -98 192q0 92 45 149.5t139 57.5q95 0 140 -57.5t45 -149.5t-45 -150t-140 -58q-53 0 -86 16z" />
    <glyph glyph-name="one.denominator" unicode="&#xe146;" horiz-adv-x="480" 
d="M343 0h-125v285l-97 -64l-39 85l154 95h107v-401z" />
    <glyph glyph-name="two.denominator" unicode="&#xe147;" horiz-adv-x="480" 
d="M401 0h-335v88l85 54q119 72 119 128q0 26 -20 39.5t-54 13.5q-59 0 -118 -24l-3 85q83 23 142 23q34 0 64.5 -6t58 -19.5t43.5 -39t16 -59.5q0 -46 -34 -86.5t-103 -84.5l-46 -30h185v-82z" />
    <glyph glyph-name="three.denominator" unicode="&#xe148;" horiz-adv-x="480" 
d="M66 9l4 78q47 -17 116 -17q38 0 64 13t26 38q0 50 -103 50h-51v71h42q107 0 107 46q0 43 -86 43q-61 0 -106 -16l-4 76q56 17 130 17q46 0 85 -7t73 -33t34 -69q0 -70 -79 -92q37 -6 62 -29.5t25 -57.5q0 -48 -33 -78t-74.5 -39.5t-92.5 -9.5q-84 0 -139 16z" />
    <glyph glyph-name="four.denominator" unicode="&#xe149;" horiz-adv-x="480" 
d="M253 312l-124 -155h124v155zM251 79h-196v95l189 228h128v-241h61v-82h-61v-79h-121v79z" />
    <glyph glyph-name="five.denominator" unicode="&#xe14a;" horiz-adv-x="480" 
d="M75 10l3 79q50 -14 95 -14q103 0 103 57q0 30 -31 43t-69 13q-44 0 -90 -9l6 223h294v-79h-183l-2 -79q13 4 38 4q167 0 167 -116q0 -48 -32.5 -80.5t-76 -45.5t-92.5 -13q-68 0 -130 17z" />
    <glyph glyph-name="six.denominator" unicode="&#xe14b;" horiz-adv-x="480" 
d="M199 83q16 -19 48 -19q29 0 46 18t17 46q0 27 -16 45t-46 18t-47 -17.5t-17 -44.5t15 -46zM395 398l-4 -79q-42 13 -95 13q-51 0 -82 -28.5t-31 -75.5q37 33 99 33q65 0 104.5 -34t39.5 -95q0 -66 -53 -102.5t-126 -36.5q-93 0 -140 54t-47 143q0 97 60.5 157.5
t162.5 60.5q62 0 112 -10z" />
    <glyph glyph-name="seven.denominator" unicode="&#xe14c;" horiz-adv-x="480" 
d="M250 0h-148l180 309h-213v93h339v-93z" />
    <glyph glyph-name="eight.denominator" unicode="&#xe14d;" horiz-adv-x="480" 
d="M286 164q-14 15 -46 20q-29 -3 -45.5 -20t-16.5 -42t16.5 -41t45.5 -16t45.5 16t16.5 43q0 24 -16 40zM199 255q16 -14 41 -17q25 2 41 17.5t16 37.5q0 21 -16.5 35t-40.5 14t-40 -13.5t-16 -36.5q0 -24 15 -37zM75 174q22 22 65 33q-40 12 -58.5 32.5t-18.5 58.5
q0 54 57 82t120 28q68 0 123 -26t55 -83q0 -66 -79 -91q46 -10 67 -33t21 -67q0 -42 -32 -69.5t-71.5 -36.5t-83.5 -9q-73 0 -130 27.5t-57 87.5q0 44 22 66z" />
    <glyph glyph-name="nine.denominator" unicode="&#xe14e;" horiz-adv-x="480" 
d="M185 229q15 -18 47 -18q29 0 46.5 17t17.5 44q0 28 -17 47t-46 19t-46 -18.5t-17 -45.5t15 -45zM84 4l4 78q50 -13 98 -13q51 0 81 28t31 76q-39 -33 -101 -33t-102 35t-40 94q0 66 52 102.5t123 36.5q94 0 142.5 -53t48.5 -143q0 -100 -57.5 -159.5t-161.5 -59.5
q-64 0 -118 11z" />
    <glyph glyph-name="zero.denominator" unicode="&#xe14f;" horiz-adv-x="480" 
d="M191 110q13 -40 49 -40q19 0 31.5 10t17.5 30.5t7 40.5t2 50q0 66 -11.5 98t-46.5 32t-46 -32t-11 -98q0 -64 8 -91zM154 9q-98 47 -98 192q0 92 45 149.5t139 57.5q95 0 140 -57.5t45 -149.5t-45 -150t-140 -58q-53 0 -86 16z" />
    <glyph glyph-name="parenleft.inferior" unicode="&#xe192;" horiz-adv-x="250" 
d="M220 -241h-92q-89 135 -89 255q0 117 89 255h92q-76 -129 -76 -255q0 -127 76 -255z" />
    <glyph glyph-name="parenright.inferior" unicode="&#xe193;" horiz-adv-x="250" 
d="M122 -241h-92q75 126 75 255q0 127 -75 255h92q89 -138 89 -255t-89 -255z" />
    <glyph glyph-name="equal.inferior" unicode="&#xe196;" horiz-adv-x="480" 
d="M413 26h-345v82h345v-82zM413 -115h-345v82h345v-82z" />
    <glyph glyph-name="a.superior" unicode="&#xe19f;" horiz-adv-x="398" 
d="M242 407h-20q-85 0 -85 -42q0 -19 13 -27.5t31 -8.5q30 0 45.5 19.5t15.5 46.5v12zM364 269h-118l-2 42q-36 -49 -109 -49q-51 0 -81.5 24.5t-30.5 70.5q0 105 162 105q47 0 57 -2v6q0 48 -74 48q-55 0 -105 -24l-4 72q53 18 126 18q176 0 176 -123v-110q0 -58 3 -78z
" />
    <glyph glyph-name="b.superior" unicode="&#xe1a0;" horiz-adv-x="425" 
d="M172 369q14 -29 43 -29q54 0 54 83q0 79 -52 79q-54 0 -54 -79q0 -32 9 -54zM155 269h-113v435h125v-180q29 56 98 56q68 0 102 -45t34 -112q0 -70 -34 -115.5t-105 -45.5q-75 0 -105 57z" />
    <glyph glyph-name="d.superior" unicode="&#xe1a2;" horiz-adv-x="425" 
d="M166 368q14 -29 45 -29q52 0 52 83q0 79 -53 79t-53 -79q0 -35 9 -54zM387 269h-116l-2 50q-31 -57 -103 -57t-106.5 45.5t-34.5 115.5q0 67 34.5 112t103.5 45q33 0 59 -14.5t38 -40.5v179h124v-360q0 -18 3 -75z" />
    <glyph glyph-name="e.superior" unicode="&#xe1a3;" horiz-adv-x="383" 
d="M145 449h108q0 67 -49 67q-53 0 -59 -67zM361 394h-215q2 -31 28.5 -47.5t67.5 -16.5q54 0 98 18l4 -68q-57 -18 -119 -18q-200 0 -200 161q0 73 50.5 115t127.5 42q84 0 121 -40.5t37 -117.5v-28z" />
    <glyph glyph-name="h.superior" unicode="&#xe1a6;" horiz-adv-x="416" 
d="M374 269h-123v176q0 16 -2 26t-11.5 19t-26.5 9q-35 0 -42 -44q-3 -23 -3 -45v-141h-124v434h124v-180q14 27 41 42t59 15q108 0 108 -107v-204z" />
    <glyph glyph-name="l.superior" unicode="&#xe1a9;" horiz-adv-x="207" 
d="M167 269h-125v435h125v-435z" />
    <glyph glyph-name="m.superior" unicode="&#xe1aa;" horiz-adv-x="616" 
d="M167 269h-125v239q0 43 -3 66h118l1 -50q34 56 108 56q75 0 97 -58q14 28 42 43t62 15q59 0 83 -31.5t24 -90.5v-189h-124v182q0 49 -38 49q-43 0 -43 -59v-172h-122v182q0 49 -38 49q-42 0 -42 -59v-172z" />
    <glyph glyph-name="o.superior" unicode="&#xe1ab;" horiz-adv-x="420" 
d="M168 364q14 -27 42 -27q53 0 53 85q0 83 -53 83t-53 -83q0 -36 11 -58zM75 302q-50 41 -50 120q0 78 51.5 118t133.5 40q85 0 135 -39.5t50 -118.5q0 -78 -49.5 -119t-135.5 -41t-135 40z" />
    <glyph glyph-name="r.superior" unicode="&#xe1ae;" 
d="M166 269h-124v239q0 44 -3 65h117l2 -61q36 68 98 68q18 0 23 -2l-3 -102q-9 3 -29 3q-40 0 -60.5 -24.5t-20.5 -62.5v-123z" />
    <glyph glyph-name="s.superior" unicode="&#xe1af;" horiz-adv-x="333" 
d="M30 277l4 74q45 -22 100 -22q59 0 59 27q0 7 -4.5 12.5t-16.5 10.5t-20 7.5t-28 8.5q-97 22 -97 87q0 36 27.5 59t61 31t70.5 8q41 0 106 -13l-4 -70q-45 16 -95 16q-51 0 -51 -26q0 -17 41 -28q5 -1 19.5 -4.5t21.5 -5.5t20.5 -6.5t20.5 -8.5t16.5 -10.5t14.5 -14.5
t8.5 -18.5t3.5 -23.5q0 -38 -26 -63t-59.5 -33.5t-73.5 -8.5q-54 0 -119 15z" />
    <glyph glyph-name="t.superior" unicode="&#xe1b0;" horiz-adv-x="286" 
d="M69 499h-56v75h56v56l123 36v-92h71v-75h-71v-115q0 -42 38 -42q18 0 33 6l4 -73q-50 -13 -82 -13q-63 0 -89.5 30t-26.5 91v116z" />
    <glyph glyph-name="n.superior" unicode="&#xe1da;" horiz-adv-x="417" 
d="M166 269h-124v239q0 43 -3 66h117l2 -51q34 57 107 57q54 0 82 -28t28 -79v-204h-124v175q0 55 -40 55q-45 0 -45 -59v-171z" />
    <glyph glyph-name="period.superior" unicode="&#xe1dc;" horiz-adv-x="200" 
d="M146 269h-92v88h92v-88z" />
    <glyph glyph-name="parenleft.superior" unicode="&#xe1df;" horiz-adv-x="250" 
d="M220 296h-92q-89 135 -89 255q0 117 89 255h92q-76 -129 -76 -255q0 -127 76 -255z" />
    <glyph glyph-name="parenright.superior" unicode="&#xe1e0;" horiz-adv-x="250" 
d="M122 296h-92q75 126 75 255q0 127 -75 255h92q89 -138 89 -255t-89 -255z" />
    <glyph glyph-name="equal.superior" unicode="&#xe1e3;" horiz-adv-x="480" 
d="M413 563h-345v82h345v-82zM413 422h-345v82h345v-82z" />
    <glyph glyph-name="grave.cap" unicode="&#xe300;" 
d="M211 724h-127l-123 136h177z" />
    <glyph glyph-name="acute.cap" unicode="&#xe301;" 
d="M198 724h-127l73 136h177z" />
    <glyph glyph-name="circumflex.cap" unicode="&#xe302;" 
d="M84 724h-114l103 136h148l103 -136h-114l-63 78z" />
    <glyph glyph-name="caron.cap" unicode="&#xe303;" 
d="M221 724h-147l-103 136h114l63 -79l63 79h113z" />
    <glyph glyph-name="tilde.cap" unicode="&#xe304;" 
d="M35 724h-76q4 53 31 92.5t77 39.5q31 0 81 -18.5t70 -18.5q35 0 42 39h76q-2 -52 -33 -92.5t-81 -40.5q-31 0 -77.5 18.5t-67.5 18.5q-16 0 -28.5 -11t-13.5 -27z" />
    <glyph glyph-name="dieresis.cap" unicode="&#xe305;" 
d="M106 728h-137v127h137v-127zM325 728h-136v127h136v-127z" />
    <glyph glyph-name="macron.cap" unicode="&#xe306;" 
d="M321 750h-346v84h346v-84z" />
    <glyph glyph-name="breve.cap" unicode="&#xe307;" 
d="M-17 863h85q1 -25 22 -43t58 -18t57.5 17.5t22.5 43.5h84q0 -60 -46.5 -101.5t-117.5 -41.5q-73 0 -119 41t-46 102z" />
    <glyph glyph-name="ring.cap" unicode="&#xe308;" 
d="M98 792q0 -21 15 -35.5t35 -14.5q21 0 35.5 14.5t14.5 35.5q0 20 -14.5 34.5t-35.5 14.5t-35.5 -14.5t-14.5 -34.5zM148 687q-45 0 -75 30t-30 75t30 74.5t75 29.5t75 -29.5t30 -74.5q0 -44 -30.5 -74.5t-74.5 -30.5z" />
    <glyph glyph-name="hungarumlaut.cap" unicode="&#xe309;" 
d="M48 724h-127l73 136h177zM296 724h-126l72 136h177z" />
    <glyph glyph-name="dotaccent.cap" unicode="&#xe30a;" 
d="M221 728h-147v127h147v-127z" />
    <glyph glyph-name="caron.alt" unicode="&#xe30b;" 
d="M212 552h-98l19 166h129z" />
    <glyph glyph-name="commaaccent" unicode="&#xe30c;" 
d="M147 -227h-108l43 159h156z" />
    <glyph glyph-name="commaaccent.alt" unicode="&#xe30d;" 
d="M401 582h-154l83 136h112z" />
    <glyph glyph-name="grave.sc" unicode="&#xe320;" 
d="M211 603h-127l-123 136h177z" />
    <glyph glyph-name="acute.sc" unicode="&#xe321;" 
d="M198 603h-127l73 136h177z" />
    <glyph glyph-name="circumflex.sc" unicode="&#xe322;" 
d="M84 603h-114l103 136h148l103 -136h-114l-63 78z" />
    <glyph glyph-name="caron.sc" unicode="&#xe323;" 
d="M221 603h-147l-103 136h114l63 -79l63 79h113z" />
    <glyph glyph-name="tilde.sc" unicode="&#xe324;" 
d="M35 603h-76q4 53 31 92.5t77 39.5q31 0 81 -18.5t70 -18.5q35 0 42 39h76q-2 -52 -33 -92.5t-81 -40.5q-31 0 -77.5 18.5t-67.5 18.5q-16 0 -28.5 -11t-13.5 -27z" />
    <glyph glyph-name="dieresis.sc" unicode="&#xe325;" 
d="M106 607h-137v127h137v-127zM325 607h-136v127h136v-127z" />
    <glyph glyph-name="macron.sc" unicode="&#xe326;" 
d="M321 629h-346v84h346v-84z" />
    <glyph glyph-name="breve.sc" unicode="&#xe327;" 
d="M-17 742h85q1 -25 22 -43t58 -18t57.5 17.5t22.5 43.5h84q0 -60 -46.5 -101.5t-117.5 -41.5q-73 0 -119 41t-46 102z" />
    <glyph glyph-name="ring.sc" unicode="&#xe328;" 
d="M98 671q0 -21 15 -35.5t35 -14.5q21 0 35.5 14.5t14.5 35.5q0 20 -14.5 34.5t-35.5 14.5t-35.5 -14.5t-14.5 -34.5zM107 574q-29 12 -46.5 38t-17.5 59q0 44 30.5 74t74.5 30t74.5 -30t30.5 -74t-30.5 -74.5t-74.5 -30.5q-20 0 -41 8z" />
    <glyph glyph-name="hungarumlaut.sc" unicode="&#xe329;" 
d="M48 603h-127l73 136h177zM296 603h-126l72 136h177z" />
    <glyph glyph-name="dotaccent.sc" unicode="&#xe32a;" 
d="M221 607h-147v127h147v-127z" />
    <glyph glyph-name="ntilde.superior" unicode="&#xf463;" horiz-adv-x="417" 
d="M142 648h-52q0 35 19 61.5t53 26.5q18 0 51 -11.5t45 -11.5q20 0 25 24h51q0 -35 -20.5 -62t-54.5 -27q-19 0 -49.5 12t-42.5 12q-23 0 -25 -24zM166 269h-124v239q0 43 -3 66h117l2 -51q34 57 107 57q54 0 82 -28t28 -79v-204h-124v175q0 55 -40 55q-45 0 -45 -59v-171z
" />
    <glyph glyph-name="i.superior" unicode="&#xf464;" horiz-adv-x="207" 
d="M167 269h-125v305h125v-305zM167 619h-125v81h125v-81z" />
    <glyph glyph-name="napostrophe.sc" horiz-adv-x="667" 
d="M213 0h-154v535h252l143 -396v396h154v-535h-252l-143 398v-398zM31 512h-94l45 209h126z" />
    <glyph glyph-name="revcommaaccent" 
d="M212 582h-156l91 159h108z" />
    <glyph glyph-name="ordmasculine.sc" horiz-adv-x="357" 
d="M135 420q0 -67 43 -67t43 67q0 65 -43 65t-43 -65zM68 324q-41 32 -41 96q0 61 42 93t109 32q70 0 111 -31t41 -94q0 -62 -41 -95t-111 -33q-69 0 -110 32z" />
    </font>
</defs>
</svg>
